<svg xmlns="http://www.w3.org/2000/svg" viewBox="0 0 20.1 13.82"><defs><style>.cls-1{fill:#fff;}</style></defs><title>add_the_message_icon_light</title><g id="Layer_2" data-name="Layer 2"><g id="Layer_1-2" data-name="Layer 1"><path class="cls-1" d="M18.85,0H1.26A1.25,1.25,0,0,0,0,1.26v11.3a1.25,1.25,0,0,0,1.26,1.26H18.85a1.25,1.25,0,0,0,1.25-1.26V1.26A1.25,1.25,0,0,0,18.85,0Zm0,1.26v5H16a4,4,0,0,0,1-.55,1.88,1.88,0,0,0-2.67-2.66c-.28.28-1.1,1.25-1.81,2.1V1.26ZM13.73,5.74C14.38,5,15,4.17,15.26,4a.63.63,0,0,1,.45-.18.62.62,0,0,1,.44.18.65.65,0,0,1,0,.88A15,15,0,0,1,13.73,5.74ZM1.26,1.26H11.31V5.17C10.6,4.32,9.78,3.35,9.5,3.06A1.89,1.89,0,0,0,6.83,5.73a4,4,0,0,0,1,.55H1.26Zm8.89,4.48a14,14,0,0,1-2.43-.9.64.64,0,0,1,0-.89.66.66,0,0,1,.45-.18A.62.62,0,0,1,8.61,4C8.83,4.17,9.49,5,10.15,5.74ZM1.26,12.56v-5h9.16L8.35,9.61a.63.63,0,0,0,0,.88.59.59,0,0,0,.44.19.63.63,0,0,0,.45-.18l2.07-2.07v4.13Zm17.59.63v-.63H12.56V8.43l2.07,2.06a.63.63,0,0,0,.45.19.63.63,0,0,0,.44-1.07L13.45,7.54h5.4v5h0Z"/><path class="cls-1" d="M6.91,10.05H3.14a.63.63,0,0,0,0,1.26H6.91a.63.63,0,1,0,0-1.26Z"/></g></g></svg>