<svg xmlns="http://www.w3.org/2000/svg" xmlns:xlink="http://www.w3.org/1999/xlink" viewBox="0 0 66 92.36"><defs><style>.cls-1{fill:#ec6d9e;opacity:0.02;}.cls-2{opacity:0.07;fill:url(#linear-gradient);}.cls-3{opacity:0.11;fill:url(#linear-gradient-2);}.cls-4{opacity:0.16;fill:url(#linear-gradient-3);}.cls-5{opacity:0.21;fill:url(#linear-gradient-4);}.cls-6{opacity:0.25;fill:url(#linear-gradient-5);}.cls-7{opacity:0.3;fill:url(#linear-gradient-6);}.cls-8{opacity:0.35;fill:url(#linear-gradient-7);}.cls-9{opacity:0.39;fill:url(#linear-gradient-8);}.cls-10{opacity:0.44;fill:url(#linear-gradient-9);}.cls-11{opacity:0.49;fill:url(#linear-gradient-10);}.cls-12{opacity:0.53;fill:url(#linear-gradient-11);}.cls-13{opacity:0.58;fill:url(#linear-gradient-12);}.cls-14{opacity:0.63;fill:url(#linear-gradient-13);}.cls-15{opacity:0.67;fill:url(#linear-gradient-14);}.cls-16{opacity:0.72;fill:url(#linear-gradient-15);}.cls-17{opacity:0.77;fill:url(#linear-gradient-16);}.cls-18{opacity:0.81;fill:url(#linear-gradient-17);}.cls-19{opacity:0.86;fill:url(#linear-gradient-18);}.cls-20{opacity:0.91;fill:url(#linear-gradient-19);}.cls-21{opacity:0.95;fill:url(#linear-gradient-20);}.cls-22{fill:url(#New_Gradient_Swatch_20);}</style><linearGradient id="linear-gradient" x1="424.74" y1="-27.56" x2="493.9" y2="-27.56" gradientTransform="matrix(0.92, -0.01, 0.01, 0.91, -391.31, 74.02)" gradientUnits="userSpaceOnUse"><stop offset="0.29" stop-color="#ec6d9e"/><stop offset="0.42" stop-color="#ec6fa0"/><stop offset="0.56" stop-color="#ec6f9f"/><stop offset="0.69" stop-color="#ec6d9d"/><stop offset="0.88" stop-color="#e96b9b"/></linearGradient><linearGradient id="linear-gradient-2" x1="927.97" y1="-110.47" x2="1000.84" y2="-110.47" gradientTransform="matrix(0.85, -0.01, 0.02, 0.81, -782.62, 148.03)" gradientUnits="userSpaceOnUse"><stop offset="0.29" stop-color="#ec6d9f"/><stop offset="0.42" stop-color="#ec71a1"/><stop offset="0.56" stop-color="#ec71a0"/><stop offset="0.58" stop-color="#ec709f"/><stop offset="0.69" stop-color="#ec6c9d"/><stop offset="0.88" stop-color="#e66898"/></linearGradient><linearGradient id="linear-gradient-3" x1="1533.38" y1="-203.42" x2="1610.67" y2="-203.42" gradientTransform="matrix(0.77, -0.02, 0.03, 0.72, -1173.92, 222.05)" gradientUnits="userSpaceOnUse"><stop offset="0.29" stop-color="#ec6d9f"/><stop offset="0.42" stop-color="#ed74a3"/><stop offset="0.42" stop-color="#ed74a3"/><stop offset="0.56" stop-color="#ed72a1"/><stop offset="0.59" stop-color="#ed709f"/><stop offset="0.69" stop-color="#ec6c9c"/><stop offset="0.88" stop-color="#e46696"/></linearGradient><linearGradient id="linear-gradient-4" x1="2275.07" y1="-306.39" x2="2357.69" y2="-306.39" gradientTransform="matrix(0.69, -0.03, 0.04, 0.62, -1565.23, 296.06)" gradientUnits="userSpaceOnUse"><stop offset="0.29" stop-color="#ec6ea0"/><stop offset="0.42" stop-color="#ed76a5"/><stop offset="0.43" stop-color="#ed75a4"/><stop offset="0.56" stop-color="#ed74a2"/><stop offset="0.61" stop-color="#ec6f9e"/><stop offset="0.69" stop-color="#eb6b9c"/><stop offset="0.88" stop-color="#e16393"/></linearGradient><linearGradient id="linear-gradient-5" x1="3203.75" y1="-416.75" x2="3292.88" y2="-416.75" gradientTransform="matrix(0.62, -0.03, 0.05, 0.53, -1956.54, 370.08)" gradientUnits="userSpaceOnUse"><stop offset="0.29" stop-color="#ec6ea0"/><stop offset="0.42" stop-color="#ed78a7"/><stop offset="0.44" stop-color="#ed77a5"/><stop offset="0.56" stop-color="#ed76a3"/><stop offset="0.61" stop-color="#ec6f9e"/><stop offset="0.69" stop-color="#eb6b9b"/><stop offset="0.88" stop-color="#de6190"/></linearGradient><linearGradient id="linear-gradient-6" x1="4397.61" y1="-524.14" x2="4494.78" y2="-524.14" gradientTransform="matrix(0.54, -0.04, 0.06, 0.44, -2347.85, 444.09)" gradientUnits="userSpaceOnUse"><stop offset="0.29" stop-color="#ec6ea0"/><stop offset="0.42" stop-color="#ed7aa8"/><stop offset="0.43" stop-color="#ed79a7"/><stop offset="0.56" stop-color="#ed78a5"/><stop offset="0.62" stop-color="#ec6f9d"/><stop offset="0.69" stop-color="#eb6b9a"/><stop offset="0.88" stop-color="#db5f8d"/></linearGradient><linearGradient id="linear-gradient-7" x1="5981.49" y1="-594.82" x2="6088.67" y2="-594.82" gradientTransform="matrix(0.47, -0.04, 0.07, 0.34, -2739.16, 518.11)" gradientUnits="userSpaceOnUse"><stop offset="0.29" stop-color="#ec6ea1"/><stop offset="0.42" stop-color="#ee7daa"/><stop offset="0.44" stop-color="#ed7ba8"/><stop offset="0.56" stop-color="#ed79a6"/><stop offset="0.56" stop-color="#ed79a6"/><stop offset="0.62" stop-color="#eb6e9d"/><stop offset="0.69" stop-color="#eb6a9a"/><stop offset="0.88" stop-color="#d95c8b"/></linearGradient><linearGradient id="linear-gradient-8" x1="8157.34" y1="-514.76" x2="8276.87" y2="-514.76" gradientTransform="matrix(0.39, -0.05, 0.08, 0.25, -3130.46, 592.12)" gradientUnits="userSpaceOnUse"><stop offset="0.29" stop-color="#ec6ea1"/><stop offset="0.42" stop-color="#ee7fac"/><stop offset="0.44" stop-color="#ee7ca9"/><stop offset="0.56" stop-color="#ee7ba7"/><stop offset="0.57" stop-color="#ee79a5"/><stop offset="0.63" stop-color="#ec6e9c"/><stop offset="0.69" stop-color="#eb6a99"/><stop offset="0.88" stop-color="#d65a88"/></linearGradient><linearGradient id="linear-gradient-9" x1="11206.72" y1="174.41" x2="11339.78" y2="174.41" gradientTransform="matrix(0.31, -0.06, 0.09, 0.15, -3521.77, 666.14)" gradientUnits="userSpaceOnUse"><stop offset="0.29" stop-color="#ec6ea1"/><stop offset="0.42" stop-color="#ee81ad"/><stop offset="0.44" stop-color="#ee7eaa"/><stop offset="0.56" stop-color="#ee7da8"/><stop offset="0.58" stop-color="#ed79a4"/><stop offset="0.63" stop-color="#ec6e9b"/><stop offset="0.69" stop-color="#eb6a98"/><stop offset="0.88" stop-color="#d35885"/></linearGradient><linearGradient id="linear-gradient-10" x1="14677.39" y1="4213.74" x2="14933.71" y2="4213.74" gradientTransform="matrix(0.24, -0.06, 0.1, 0.06, -3913.08, 740.16)" gradientUnits="userSpaceOnUse"><stop offset="0.29" stop-color="#ec6ea2"/><stop offset="0.42" stop-color="#ee83af"/><stop offset="0.45" stop-color="#ee80ab"/><stop offset="0.56" stop-color="#ee7fa9"/><stop offset="0.58" stop-color="#ed78a3"/><stop offset="0.63" stop-color="#eb6d9b"/><stop offset="0.69" stop-color="#eb6998"/><stop offset="0.88" stop-color="#d05582"/></linearGradient><linearGradient id="linear-gradient-11" x1="-30326.33" y1="78272.26" x2="-26304.49" y2="78272.26" gradientTransform="matrix(0.16, -0.07, 0.11, -0.04, -4304.39, 814.17)" gradientUnits="userSpaceOnUse"><stop offset="0.29" stop-color="#ec6fa2"/><stop offset="0.42" stop-color="#ef86b1"/><stop offset="0.45" stop-color="#ee82ac"/><stop offset="0.56" stop-color="#ee80aa"/><stop offset="0.59" stop-color="#ed78a3"/><stop offset="0.64" stop-color="#eb6d9a"/><stop offset="0.69" stop-color="#ea6997"/><stop offset="0.88" stop-color="#ce5380"/></linearGradient><linearGradient id="linear-gradient-12" x1="341323.72" y1="-197946.15" x2="350282.02" y2="-197946.15" gradientTransform="matrix(0.08, -0.08, 0.12, -0.13, -4695.7, 888.19)" gradientUnits="userSpaceOnUse"><stop offset="0.29" stop-color="#ec6fa3"/><stop offset="0.42" stop-color="#ef88b3"/><stop offset="0.45" stop-color="#ee83ad"/><stop offset="0.56" stop-color="#ee82ab"/><stop offset="0.59" stop-color="#ec77a2"/><stop offset="0.64" stop-color="#eb6c9a"/><stop offset="0.69" stop-color="#ea6897"/><stop offset="0.88" stop-color="#cb507d"/></linearGradient><linearGradient id="linear-gradient-13" x1="-111214.45" y1="44990.67" x2="-109405.03" y2="44990.67" gradientTransform="matrix(0.01, -0.08, 0.13, -0.22, -5087, 962.2)" gradientUnits="userSpaceOnUse"><stop offset="0.29" stop-color="#ec6fa3"/><stop offset="0.42" stop-color="#ef8ab4"/><stop offset="0.45" stop-color="#ee85ae"/><stop offset="0.56" stop-color="#ee84ac"/><stop offset="0.6" stop-color="#ec77a1"/><stop offset="0.64" stop-color="#eb6c99"/><stop offset="0.69" stop-color="#ea6896"/><stop offset="0.88" stop-color="#c84e7a"/></linearGradient><linearGradient id="linear-gradient-14" x1="-46914.96" y1="16197.37" x2="-46331.8" y2="16197.37" gradientTransform="matrix(-0.07, -0.09, 0.14, -0.32, -5478.31, 1036.22)" gradientUnits="userSpaceOnUse"><stop offset="0.29" stop-color="#ec6fa3"/><stop offset="0.42" stop-color="#ef8cb6"/><stop offset="0.42" stop-color="#ef8cb6"/><stop offset="0.46" stop-color="#ef87af"/><stop offset="0.56" stop-color="#ef86ad"/><stop offset="0.6" stop-color="#ec77a1"/><stop offset="0.64" stop-color="#eb6c98"/><stop offset="0.69" stop-color="#ea6895"/><stop offset="0.88" stop-color="#c54c77"/></linearGradient><linearGradient id="linear-gradient-15" x1="-30696.41" y1="9675.22" x2="-30383.69" y2="9675.22" gradientTransform="matrix(-0.14, -0.1, 0.15, -0.41, -5869.62, 1110.23)" gradientUnits="userSpaceOnUse"><stop offset="0.29" stop-color="#ec6fa4"/><stop offset="0.42" stop-color="#f08fb8"/><stop offset="0.42" stop-color="#f08eb7"/><stop offset="0.46" stop-color="#ef88b0"/><stop offset="0.56" stop-color="#ef87ae"/><stop offset="0.6" stop-color="#ec76a0"/><stop offset="0.64" stop-color="#eb6b98"/><stop offset="0.69" stop-color="#ea6795"/><stop offset="0.88" stop-color="#c34975"/></linearGradient><linearGradient id="linear-gradient-16" x1="-23437.19" y1="6955.63" x2="-23234.4" y2="6955.63" gradientTransform="matrix(-0.22, -0.1, 0.17, -0.51, -6260.93, 1184.25)" gradientUnits="userSpaceOnUse"><stop offset="0.29" stop-color="#ec6fa4"/><stop offset="0.42" stop-color="#f091b9"/><stop offset="0.42" stop-color="#f091b9"/><stop offset="0.46" stop-color="#ef8bb2"/><stop offset="0.56" stop-color="#ef89b0"/><stop offset="0.56" stop-color="#ef88af"/><stop offset="0.6" stop-color="#ec76a0"/><stop offset="0.64" stop-color="#eb6b97"/><stop offset="0.69" stop-color="#ea6794"/><stop offset="0.88" stop-color="#c04772"/></linearGradient><linearGradient id="linear-gradient-17" x1="-19346.63" y1="5502.37" x2="-19201.45" y2="5502.37" gradientTransform="matrix(-0.3, -0.11, 0.18, -0.6, -6652.24, 1258.26)" gradientUnits="userSpaceOnUse"><stop offset="0.29" stop-color="#ec6fa4"/><stop offset="0.42" stop-color="#f093bb"/><stop offset="0.42" stop-color="#f092ba"/><stop offset="0.46" stop-color="#ef8cb3"/><stop offset="0.56" stop-color="#ef8bb1"/><stop offset="0.57" stop-color="#ef88ae"/><stop offset="0.61" stop-color="#ec769f"/><stop offset="0.65" stop-color="#ea6b96"/><stop offset="0.69" stop-color="#ea6793"/><stop offset="0.88" stop-color="#bd456f"/></linearGradient><linearGradient id="linear-gradient-18" x1="-16729.34" y1="4610.26" x2="-16618.98" y2="4610.26" gradientTransform="matrix(-0.37, -0.11, 0.19, -0.69, -7043.54, 1332.28)" gradientUnits="userSpaceOnUse"><stop offset="0.29" stop-color="#ec70a5"/><stop offset="0.42" stop-color="#f095bd"/><stop offset="0.42" stop-color="#f093bb"/><stop offset="0.46" stop-color="#ef8eb4"/><stop offset="0.56" stop-color="#ef8db2"/><stop offset="0.57" stop-color="#ee87ad"/><stop offset="0.61" stop-color="#eb759f"/><stop offset="0.65" stop-color="#ea6a96"/><stop offset="0.69" stop-color="#e96693"/><stop offset="0.88" stop-color="#ba426c"/></linearGradient><linearGradient id="linear-gradient-19" x1="-14913.6" y1="4011.4" x2="-14826.31" y2="4011.4" gradientTransform="matrix(-0.45, -0.12, 0.2, -0.79, -7434.85, 1406.29)" gradientUnits="userSpaceOnUse"><stop offset="0.29" stop-color="#ec70a5"/><stop offset="0.42" stop-color="#f198bf"/><stop offset="0.43" stop-color="#f195bc"/><stop offset="0.46" stop-color="#f090b5"/><stop offset="0.56" stop-color="#f08eb3"/><stop offset="0.57" stop-color="#ef87ad"/><stop offset="0.61" stop-color="#ec759e"/><stop offset="0.65" stop-color="#ea6a95"/><stop offset="0.69" stop-color="#e96692"/><stop offset="0.88" stop-color="#b8406a"/></linearGradient><linearGradient id="linear-gradient-20" x1="-13581.23" y1="3583.57" x2="-13510.23" y2="3583.57" gradientTransform="matrix(-0.53, -0.13, 0.21, -0.88, -7826.16, 1480.31)" gradientUnits="userSpaceOnUse"><stop offset="0.29" stop-color="#ec70a6"/><stop offset="0.42" stop-color="#f19ac0"/><stop offset="0.43" stop-color="#f197bd"/><stop offset="0.46" stop-color="#f092b6"/><stop offset="0.56" stop-color="#f090b4"/><stop offset="0.58" stop-color="#ee86ac"/><stop offset="0.61" stop-color="#eb749e"/><stop offset="0.65" stop-color="#ea6995"/><stop offset="0.69" stop-color="#e96592"/><stop offset="0.88" stop-color="#b53d67"/></linearGradient><linearGradient id="New_Gradient_Swatch_20" x1="-12562.44" y1="3263.63" x2="-12503.48" y2="3263.63" gradientTransform="matrix(-0.6, -0.13, 0.22, -0.98, -8217.47, 1554.33)" gradientUnits="userSpaceOnUse"><stop offset="0.29" stop-color="#ec70a6"/><stop offset="0.42" stop-color="#f19cc2"/><stop offset="0.43" stop-color="#f199be"/><stop offset="0.46" stop-color="#f093b7"/><stop offset="0.56" stop-color="#f092b5"/><stop offset="0.58" stop-color="#ee86ab"/><stop offset="0.61" stop-color="#eb749d"/><stop offset="0.65" stop-color="#ea6994"/><stop offset="0.69" stop-color="#e96591"/><stop offset="0.88" stop-color="#b23b64"/></linearGradient></defs><title>blurred-ribbon</title><g id="Layer_2" data-name="Layer 2"><g id="Layer_1-2" data-name="Layer 1"><path class="cls-1" d="M17.08.23c-.41,12.56,8.1,22.54,9,23.57C41,37.11,50,44.51,55.22,48.58S62,53.39,62,53.4l4,.87L58.89,92.36,54,89.8Q38.1,81.45,26.68,74.29a146.69,146.69,0,0,1-18.09-13C1.53,55.14.35,51.7.11,49.4L0,48.21l.18-1.28c2.39-16.6,4.44-28.2,5.91-35.71S8.44.27,8.52,0Z"/><path class="cls-2" d="M9.1,1c0,.05,8.16.33,8.16.38C16.9,13.49,25.07,23.16,26,24.26q4.69,4.26,8.53,7.61C44,40.13,50.23,45.24,54.27,48.37a52.48,52.48,0,0,0,6.61,4.7l3.83.88c.15.12-1.9,11.71-1.82,11.77s-1,6.16-1,6.16L58.32,91.27,53.6,88.79q-15.37-8.07-26.43-15Q21.1,70,16.37,66.56q-4-2.9-7-5.53a43,43,0,0,1-5.45-5.49c-2.24-2.79-2.8-4.7-3-6.16,0,0-.12-1.16-.13-1.17S.93,47,.93,47c2.34-16.28,4.35-27.65,5.79-35S9,1.22,9.1,1Z"/><path class="cls-3" d="M9.69,1.91c0,.12,7.75.44,7.76.54C17.13,14.2,25,23.55,25.93,24.71c3,2.83,5.82,5.3,8.24,7.42,9.14,8,15.19,13,19.14,16a55.07,55.07,0,0,0,6.41,4.57s3.67.86,3.71.89c.29.24-1.54,11.34-1.39,11.45.3.23-.71,6-.71,6L57.76,90.18l-4.56-2.4Q38.33,80,27.66,73.3q-6-3.75-10.65-7.1-4-2.86-6.94-5.43a43.41,43.41,0,0,1-5.38-5.38c-2.22-2.73-2.8-4.6-3-6,0,0-.13-1.13-.14-1.15S1.68,47,1.68,47C4,31,6,19.88,7.36,12.67S9.62,2.16,9.69,1.91Z"/><path class="cls-4" d="M10.27,2.87c0,.17,7.34.54,7.36.69-.28,11.34,7.23,20.38,8.22,21.61,2.95,2.8,5.66,5.22,7.95,7.23C42.62,40.12,48.5,44.94,52.36,48a59,59,0,0,0,6.2,4.44c.07.05,3.53.85,3.58.9.44.36-1.18,11-1,11.14.45.33-.47,5.79-.47,5.79L57.2,89.08c-.08,0-4.33-2.27-4.4-2.31q-14.34-7.51-24.65-14-5.91-3.67-10.49-7-3.91-2.8-6.84-5.32a43.54,43.54,0,0,1-5.33-5.27c-2.18-2.67-2.79-4.5-3-5.89,0,0-.14-1.1-.16-1.12A10.44,10.44,0,0,1,2.43,47C4.68,31.38,6.61,20.46,8,13.39S10.21,3.1,10.27,2.87Z"/><path class="cls-5" d="M10.85,3.82c0,.23,6.94.64,7,.85-.24,10.94,6.94,19.66,8,21,2.87,2.79,5.49,5.15,7.66,7.05,8.5,7.44,14.19,12.14,18,15.09a60.62,60.62,0,0,0,6,4.32c.08.07,3.37.85,3.45.91.58.49-.83,10.6-.53,10.82.6.45-.23,5.61-.23,5.61L56.63,88l-4.24-2.22q-13.8-7.24-23.75-13.46-5.84-3.61-10.33-6.84-3.85-2.76-6.75-5.22A44,44,0,0,1,6.3,55.09a12.16,12.16,0,0,1-3-5.76s-.15-1.06-.18-1.1a8.11,8.11,0,0,1,.09-1.18c2.21-15.32,4.1-26,5.45-32.94S10.8,4,10.85,3.82Z"/><path class="cls-6" d="M11.44,4.78c0,.29,6.53.74,6.56,1-.19,10.53,6.65,18.94,7.69,20.3,2.78,2.76,5.33,5.07,7.37,6.86,8.18,7.16,13.7,11.72,17.39,14.62a63.83,63.83,0,0,0,5.8,4.19c.11.09,3.23.84,3.32.92.73.61-.47,10.22-.09,10.5.74.57,0,5.43,0,5.43L56.07,86.9,52,84.76q-13.27-7-22.87-13c-3.83-2.37-7.21-4.6-10.17-6.71Q15.16,62.4,12.3,60a43,43,0,0,1-5.19-5,12.21,12.21,0,0,1-3.05-5.61c0-.07-.17-1-.19-1.08a5.79,5.79,0,0,1,.06-1.15c2.16-15,4-25.48,5.33-32.26S11.38,5,11.44,4.78Z"/><path class="cls-7" d="M12,5.74c0,.34,6.13.84,6.17,1.15C18,17,24.55,25.11,25.6,26.53c2.71,2.75,5.18,5,7.09,6.67,7.86,6.89,13.2,11.32,16.81,14.15a61.74,61.74,0,0,0,5.6,4.07c.12.11,3.07.83,3.19.93.87.73-.12,9.85.33,10.19.9.67.25,5.25.25,5.25l-3.37,18-3.92-2.06q-12.73-6.69-22-12.43-5.66-3.5-10-6.58c-2.5-1.77-4.68-3.45-6.55-5a43.76,43.76,0,0,1-5.13-4.94A12.32,12.32,0,0,1,4.85,49.3c0-.08-.18-1-.21-1a5,5,0,0,1,0-1.13C6.79,32.43,8.6,22.18,9.9,15.56S12,5.93,12,5.74Z"/><path class="cls-8" d="M12.61,6.69c0,.4,5.71.94,5.76,1.31-.11,9.72,6.07,17.51,7.15,19,2.62,2.72,5,4.92,6.8,6.48,7.54,6.61,12.7,10.9,16.23,13.68,3.79,3,5.11,3.71,5.39,4s2.93.82,3.06.93c1,.85.24,9.48.77,9.87,1,.79.48,5.07.48,5.07L54.94,84.72l-3.76-2Q39,76.32,30.1,70.82c-3.71-2.29-7-4.43-9.85-6.45-2.47-1.74-4.62-3.37-6.46-4.91a44.38,44.38,0,0,1-5.06-4.83,12.57,12.57,0,0,1-3.09-5.35c-.06-.09-.19-1-.22-1a3.94,3.94,0,0,1,0-1.1c2.07-14.37,3.84-24.4,5.1-30.87S12.56,6.87,12.61,6.69Z"/><path class="cls-9" d="M13.19,7.65c0,.46,5.31,1,5.36,1.46-.06,9.32,5.79,16.79,6.89,18.34,2.53,2.7,4.85,4.84,6.51,6.29C39.17,40.08,44.15,44.23,47.59,47s4.88,3.55,5.2,3.82c.16.14,2.78.81,2.93.94,1.16,1,.6,9.11,1.19,9.56,1.2.9.73,4.88.73,4.88L54.37,83.62l-3.6-1.89C43,77.64,36.26,73.82,30.59,70.33Q25.1,67,20.89,64c-2.43-1.71-4.54-3.31-6.36-4.81a46.23,46.23,0,0,1-5-4.72,12.72,12.72,0,0,1-3.1-5.21c-.07-.11-.2-.93-.24-1a3.55,3.55,0,0,1,0-1.08c2-14,3.75-23.85,5-30.18S13.15,7.82,13.19,7.65Z"/><path class="cls-10" d="M13.78,8.61c0,.51,4.9,1.14,5,1.61,0,8.91,5.49,16.07,6.62,17.68A78.15,78.15,0,0,0,31.58,34c6.91,6.06,11.7,10.07,15.06,12.73s4.64,3.4,5,3.7c.19.15,2.63.8,2.8,1,1.31,1.09,1,8.74,1.63,9.24,1.35,1,1,4.7,1,4.7l-3.21,17.2-3.44-1.81c-7.43-3.9-13.86-7.56-19.29-10.89-3.6-2.21-6.78-4.26-9.54-6.19-2.4-1.67-4.48-3.24-6.26-4.71a45.42,45.42,0,0,1-4.94-4.6,12.84,12.84,0,0,1-3.12-5.08c-.08-.12-.21-.9-.26-1a3.24,3.24,0,0,1,0-1.06c2-13.73,3.67-23.31,4.88-29.49S13.74,8.76,13.78,8.61Z"/><path class="cls-11" d="M14.36,9.56c0,.57,4.5,1.25,4.56,1.77,0,8.51,5.21,15.35,6.36,17a66.75,66.75,0,0,0,5.93,5.91c6.59,5.79,11.2,9.67,14.48,12.27s4.39,3.24,4.79,3.57c.2.17,2.48.8,2.67,1,1.45,1.21,1.31,8.36,2.06,8.93,1.5,1.12,1.2,4.51,1.2,4.51L53.24,81.44,50,79.72C42.89,76,36.76,72.51,31.57,69.34c-3.55-2.17-6.67-4.18-9.38-6.06-2.37-1.64-4.42-3.18-6.17-4.61a45.18,45.18,0,0,1-4.87-4.5A13.1,13.1,0,0,1,8,49.23c-.09-.13-.22-.86-.27-.95a2.81,2.81,0,0,1-.06-1c1.93-13.42,3.58-22.76,4.76-28.79S14.32,9.7,14.36,9.56Z"/><path class="cls-12" d="M15,10.52c0,.63,4.09,1.34,4.16,1.92.06,8.1,4.91,14.63,6.08,16.37a59.15,59.15,0,0,0,5.65,5.73c6.27,5.51,10.71,9.25,13.89,11.8,3,2.36,4.16,3.08,4.59,3.44.23.19,2.33.79,2.54,1,1.6,1.33,1.67,8,2.49,8.61C56,60.6,55.79,63.7,55.79,63.7L52.68,80.35l-3.12-1.64C42.84,75.17,37,71.86,32.05,68.84q-5.22-3.18-9.22-5.93-3.48-2.41-6.07-4.5A46.09,46.09,0,0,1,12,54,13.35,13.35,0,0,1,8.8,49.21c-.1-.14-.23-.83-.29-.93a2.53,2.53,0,0,1-.08-1c1.88-13.11,3.5-22.23,4.65-28.11S14.91,10.65,15,10.52Z"/><path class="cls-13" d="M15.53,11.47c0,.69,3.68,1.45,3.76,2.08.11,7.7,4.63,13.91,5.82,15.72a52.53,52.53,0,0,0,5.36,5.54c6,5.23,10.21,8.84,13.31,11.32,2.76,2.21,3.92,2.93,4.39,3.32.24.21,2.18.79,2.41,1,1.73,1.45,2,7.62,2.92,8.3,1.8,1.35,1.67,4.15,1.67,4.15L52.12,79.26l-3-1.56c-6.38-3.36-11.9-6.49-16.62-9.35-3.43-2.09-6.45-4-9.06-5.8-2.29-1.58-4.28-3-6-4.41a46.4,46.4,0,0,1-4.74-4.27A13.73,13.73,0,0,1,9.59,49.2c-.11-.16-.24-.8-.31-.91a2.23,2.23,0,0,1-.1-1C11,34.52,12.59,25.62,13.71,19.89S15.5,11.59,15.53,11.47Z"/><path class="cls-14" d="M16.12,12.43c0,.74,3.27,1.55,3.36,2.23C19.63,22,23.81,27.85,25,29.73a44.87,44.87,0,0,0,5.07,5.34c5.63,5,9.71,8.43,12.73,10.86,2.55,2,3.68,2.77,4.18,3.19.27.23,2,.78,2.28,1,1.88,1.57,2.38,7.25,3.36,8a5.25,5.25,0,0,1,1.91,4l-3,16.1-2.8-1.47c-6-3.17-11.25-6.14-15.72-8.84-3.38-2-6.34-3.92-8.9-5.67-2.26-1.54-4.21-3-5.88-4.3a47.72,47.72,0,0,1-4.68-4.16,14.17,14.17,0,0,1-3.19-4.54c-.12-.17-.25-.76-.32-.88a2,2,0,0,1-.13-1c1.79-12.47,3.33-21.14,4.42-26.73S16.09,12.53,16.12,12.43Z"/><path class="cls-15" d="M16.7,13.39c0,.8,2.87,1.65,3,2.38.2,6.89,4.05,12.47,5.29,14.41a40.57,40.57,0,0,0,4.78,5.16c5.32,4.68,9.21,8,12.14,10.39,2.35,1.89,3.44,2.61,4,3.06.28.25,1.88.77,2.15,1,2,1.69,2.73,6.88,3.78,7.66a5.28,5.28,0,0,1,2.15,3.79L51,77.07l-2.64-1.39c-5.67-3-10.6-5.78-14.83-8.32-3.32-2-6.23-3.84-8.75-5.55-2.22-1.5-4.14-2.9-5.78-4.19a49,49,0,0,1-4.61-4,14.77,14.77,0,0,1-3.21-4.41c-.13-.18-.26-.73-.34-.86a1.92,1.92,0,0,1-.15-.93c1.75-12.15,3.24-20.6,4.3-26S16.68,13.48,16.7,13.39Z"/><path class="cls-16" d="M17.29,14.34c0,.86,2.46,1.75,2.55,2.54.24,6.48,3.76,11.76,5,13.76a36,36,0,0,0,4.49,5c5,4.4,8.72,7.6,11.56,9.91,2.14,1.74,3.2,2.46,3.78,2.95.31.26,1.74.76,2,1,2.17,1.82,3.1,6.51,4.22,7.35a5.49,5.49,0,0,1,2.39,3.6L50.42,76l-2.48-1.31C42.63,71.87,38,69.25,34,66.86c-3.27-2-6.12-3.75-8.59-5.41-2.19-1.47-4.07-2.84-5.68-4.09a48,48,0,0,1-4.55-4A15.27,15.27,0,0,1,12,49.15a6.62,6.62,0,0,1-.35-.84,1.81,1.81,0,0,1-.18-.91c1.7-11.83,3.15-20,4.19-25.34S17.26,14.42,17.29,14.34Z"/><path class="cls-17" d="M17.87,15.3c0,.91,2.05,1.85,2.16,2.69.28,6.08,3.46,11,4.76,13.1A31.27,31.27,0,0,0,29,35.88c4.69,4.12,8.22,7.18,11,9.44,1.93,1.58,3,2.3,3.57,2.82.33.28,1.59.75,1.9,1,2.31,1.94,3.45,6.13,4.65,7,2.39,1.8,2.62,3.43,2.62,3.43L49.86,74.89l-2.32-1.23c-5-2.61-9.29-5.06-13-7.3-3.21-1.91-6-3.66-8.43-5.28-2.16-1.44-4-2.77-5.59-4A48,48,0,0,1,16,53.26a15.86,15.86,0,0,1-3.25-4.13,7.6,7.6,0,0,1-.37-.81,1.8,1.8,0,0,1-.2-.89c1.65-11.51,3.07-19.51,4.07-24.65S17.85,15.36,17.87,15.3Z"/><path class="cls-18" d="M18.45,16.25c0,1,1.65,2,1.76,2.85.33,5.67,3.18,10.32,4.49,12.45a28.81,28.81,0,0,0,3.92,4.59C33,40,36.34,42.92,39,45.11c1.73,1.43,2.73,2.15,3.38,2.7.35.29,1.44.74,1.76,1,2.46,2.06,3.81,5.76,5.08,6.72,2.55,1.91,2.87,3.24,2.87,3.24l-2.81,15-2.16-1.13Q40.23,69,35,65.87q-4.72-2.81-8.27-5.15c-2.12-1.41-3.93-2.7-5.49-3.89a53,53,0,0,1-4.41-3.72,16.8,16.8,0,0,1-3.27-4,7.12,7.12,0,0,1-.39-.79,1.76,1.76,0,0,1-.22-.86c1.61-11.19,3-19,4-24S18.44,16.31,18.45,16.25Z"/><path class="cls-19" d="M19,17.21c0,1,1.24,2.06,1.36,3A26.54,26.54,0,0,0,24.62,32a26,26,0,0,0,3.63,4.41c4,3.57,7.23,6.36,9.81,8.5,1.52,1.27,2.48,2,3.17,2.57.37.31,1.3.74,1.64,1,2.6,2.18,4.16,5.39,5.51,6.4,2.7,2,3.1,3.06,3.1,3.06L48.73,72.7l-2-1c-4.25-2.25-8-4.35-11.26-6.28-3.1-1.82-5.79-3.49-8.11-5C25.28,59,23.49,57.72,22,56.57A54,54,0,0,1,17.61,53a18.07,18.07,0,0,1-3.28-3.86,6.44,6.44,0,0,1-.4-.77,1.71,1.71,0,0,1-.25-.83c1.56-10.88,2.9-18.43,3.84-23.27S19,17.25,19,17.21Z"/><path class="cls-20" d="M19.62,18.17c0,1.08.84,2.15,1,3.16a26.19,26.19,0,0,0,4,11.13,24.9,24.9,0,0,0,3.34,4.22c3.73,3.29,6.73,5.94,9.23,8,1.31,1.1,2.24,1.83,3,2.44.39.33,1.14.73,1.5,1,2.75,2.3,4.52,5,6,6.09a17.56,17.56,0,0,1,3.34,2.87l-2.7,14.46-1.85-1c-3.89-2.06-7.33-4-10.36-5.76S30.28,61.47,28,60c-2.05-1.34-3.81-2.57-5.3-3.68-1.79-1.34-3.19-2.5-4.29-3.5a19.14,19.14,0,0,1-3.3-3.73,6.84,6.84,0,0,1-.42-.74,1.8,1.8,0,0,1-.27-.81C16,37,17.24,29.64,18.16,25S19.62,18.19,19.62,18.17Z"/><path class="cls-21" d="M20.21,19.12a20.72,20.72,0,0,0,.56,3.32,25.84,25.84,0,0,0,3.69,10.48,23.59,23.59,0,0,0,3.05,4c3.41,3,6.24,5.52,8.64,7.55,1.12,1,2,1.68,2.77,2.32.41.35,1,.73,1.38,1,2.89,2.42,4.87,4.65,6.37,5.77l3.58,2.69L47.6,70.52l-1.68-.89q-5.31-2.82-9.47-5.25c-3-1.73-5.57-3.31-7.8-4.76-2-1.31-3.73-2.5-5.2-3.58-1.75-1.29-3.13-2.42-4.22-3.39a20.12,20.12,0,0,1-3.32-3.59,7.42,7.42,0,0,1-.44-.71,2,2,0,0,1-.29-.79c1.47-10.24,2.73-17.34,3.62-21.89S20.21,19.14,20.21,19.12Z"/><path class="cls-22" d="M47,69.43l2.6-13.92S49,55.37,45.82,53c-1.57-1.19-3.77-2.92-6.81-5.47s-6.92-5.9-11.87-10.33c0,0-6.68-7.06-6.35-17.13,0,0-.5,1.92-1.36,6.31s-2.08,11.28-3.5,21.2c0,0,.14,1.46,4.11,4.91a80,80,0,0,0,9.26,6.76c2.17,1.4,4.7,2.94,7.64,4.63S43.22,67.42,47,69.43Z"/></g></g></svg>