<svg xmlns="http://www.w3.org/2000/svg" xmlns:xlink="http://www.w3.org/1999/xlink" viewBox="0 0 396.52 284.67"><defs><style>.cls-1{fill:url(#linear-gradient);}.cls-2{fill:url(#linear-gradient-2);}.cls-3{fill:url(#linear-gradient-3);}</style><linearGradient id="linear-gradient" x1="380.65" y1="68.68" x2="76.65" y2="286.68" gradientUnits="userSpaceOnUse"><stop offset="0" stop-color="#e72e78"/><stop offset="1" stop-color="#473684"/></linearGradient><linearGradient id="linear-gradient-2" x1="331.41" y1="0.02" x2="27.41" y2="218.02" xlink:href="#linear-gradient"/><linearGradient id="linear-gradient-3" x1="360.71" y1="40.88" x2="56.71" y2="258.88" xlink:href="#linear-gradient"/></defs><title>creative_wrapping_icon</title><g id="Layer_2" data-name="Layer 2"><g id="Layer_1-2" data-name="Layer 1"><path class="cls-1" d="M344,144,329,141.65l-.39-.05a15.32,15.32,0,0,0-17.06,15.22l-.38,36.85-94.39,18.59V100.16a15.32,15.32,0,0,0-29.48-5.83l-16,38.91L51.42,145.91a15.33,15.33,0,0,0-14,15.65l2.31,79.13a15.25,15.25,0,0,0,12.16,14.6l133.75,28.14a57.34,57.34,0,0,0,24-.06L344.85,254.3a15.38,15.38,0,0,0,12.1-15l.38-80.16A15.3,15.3,0,0,0,344,144Zm-7.09,91.53L205.44,263.78a37.4,37.4,0,0,1-15.66,0L59.69,236.45l-2.1-71L175.85,153a15.25,15.25,0,0,0,12.82-9.43l8-19.47v112.4l134.48-26.19.37-47.94,5.74.89Z"/><path class="cls-2" d="M395.11,114.56l-34.85-76.4a15.29,15.29,0,0,0-11-8.68L211.64,0,48.21,29.44A15.34,15.34,0,0,0,37.09,38L1.44,114.23A15.32,15.32,0,0,0,16.85,136l133.91-13.53a15.38,15.38,0,0,0,12.45-9l48-108.17,21.89,110.23.48,1.06a15.33,15.33,0,0,0,12.72,8.92l134,10.75c.43,0,.48.05.9.05a15.32,15.32,0,0,0,13.89-21.68ZM146,102.76,23.12,115.18,54.21,48.72,180.27,25.56Zm105.62,3-16-80.45L343,48.63l30.53,66.93Z"/><path class="cls-3" d="M154,193H112.64a10.95,10.95,0,0,0,0,21.9H154a10.95,10.95,0,0,0,0-21.9Z"/></g></g></svg>