<svg xmlns="http://www.w3.org/2000/svg" xmlns:xlink="http://www.w3.org/1999/xlink" viewBox="0 0 262.9 310.05"><defs><style>.cls-1{fill:url(#linear-gradient);}</style><linearGradient id="linear-gradient" x1="229.36" y1="30.67" x2="45.36" y2="326.67" gradientUnits="userSpaceOnUse"><stop offset="0" stop-color="#e72e78"/><stop offset="1" stop-color="#473684"/></linearGradient></defs><title>diverse_gifts_icon</title><g id="Layer_2" data-name="Layer 2"><g id="Layer_1-2" data-name="Layer 1"><path class="cls-1" d="M227.3,66.29H211.47a49.71,49.71,0,0,0-80-53.62,49.72,49.72,0,0,0-80,53.62H35.6A35.64,35.64,0,0,0,0,101.89V274.46a35.63,35.63,0,0,0,35.6,35.59H227.3a35.63,35.63,0,0,0,35.6-35.59V101.89A35.64,35.64,0,0,0,227.3,66.29Zm0,23.73a11.89,11.89,0,0,1,11.87,11.87v42.84H148.44V90ZM164.59,33.15a16.57,16.57,0,1,1,0,33.14H148V49.72A16.58,16.58,0,0,1,164.59,33.15ZM81.73,49.72C81.73,34.93,99.66,27.65,110,38a16.46,16.46,0,0,1,4.85,11.72V66.29H98.3A16.56,16.56,0,0,1,81.73,49.72ZM35.6,90h79.88v54.71H23.73V101.89A11.88,11.88,0,0,1,35.6,90ZM23.73,274.46V177.7h91.75V286.32H35.6A11.88,11.88,0,0,1,23.73,274.46ZM227.3,286.32H148.44V177.7h90.73v96.76A11.88,11.88,0,0,1,227.3,286.32Z"/></g></g></svg>