<svg xmlns="http://www.w3.org/2000/svg" xmlns:xlink="http://www.w3.org/1999/xlink" viewBox="0 0 341.14 283.55"><defs><style>.cls-1{fill:url(#linear-gradient);}.cls-2{fill:url(#linear-gradient-2);}.cls-3{fill:url(#linear-gradient-3);}</style><linearGradient id="linear-gradient" x1="266.09" y1="-17.49" x2="-27.91" y2="176.51" gradientUnits="userSpaceOnUse"><stop offset="0" stop-color="#e72e78"/><stop offset="1" stop-color="#473684"/></linearGradient><linearGradient id="linear-gradient-2" x1="290.3" y1="19.21" x2="-3.7" y2="213.21" xlink:href="#linear-gradient"/><linearGradient id="linear-gradient-3" x1="302.67" y1="37.95" x2="8.67" y2="231.95" xlink:href="#linear-gradient"/></defs><title>fast_delivery_icon</title><g id="Layer_2" data-name="Layer 2"><g id="Layer_1-2" data-name="Layer 1"><path class="cls-1" d="M68.57,101h72a11.87,11.87,0,0,0,0-23.73h-72a11.87,11.87,0,0,0,0,23.73Z"/><path class="cls-2" d="M68.57,153.64h72a11.87,11.87,0,0,0,0-23.73h-72a11.87,11.87,0,0,0,0,23.73Z"/><path class="cls-3" d="M318.34,65.11c-14-15.17-33.93-23.54-56.09-23.54H208.92V12.73A12.77,12.77,0,0,0,196.19,0H12.73A12.77,12.77,0,0,0,0,12.73V237.52a12.77,12.77,0,0,0,12.73,12.73h38.7a42.72,42.72,0,0,0,83.34,0h81.89a42.72,42.72,0,0,0,83.34,0h28.42a12.77,12.77,0,0,0,12.72-12.73V131.81C341.14,104.34,333.19,81.23,318.34,65.11ZM93.1,258.2a17.29,17.29,0,1,1,17.29-17.28A17.28,17.28,0,0,1,93.1,258.2Zm90.47-33.3H134.35a7.74,7.74,0,0,0-1.59.11,42.67,42.67,0,0,0-79.32.21,12.29,12.29,0,0,0-2.75-.32H25.56V25.45h158Zm74.76,33.3a17.29,17.29,0,1,1,17.28-17.28A17.29,17.29,0,0,1,258.33,258.2Zm57.36-33.3H297.88a42.64,42.64,0,0,0-79.11,0H209V67h53.34c33.4,0,53.33,24.29,53.33,64.9Z"/></g></g></svg>