<svg xmlns="http://www.w3.org/2000/svg" xmlns:xlink="http://www.w3.org/1999/xlink" viewBox="0 0 108.98 87.17"><defs><style>.cls-1{fill:url(#linear-gradient);}.cls-2{fill:url(#linear-gradient-2);}.cls-3{fill:url(#linear-gradient-3);}.cls-4{fill:url(#linear-gradient-4);}.cls-5{fill:url(#linear-gradient-5);}.cls-6{fill:url(#linear-gradient-6);}.cls-7{fill:url(#linear-gradient-7);}.cls-8{fill:url(#linear-gradient-8);}.cls-9{fill:url(#linear-gradient-9);}.cls-10{fill:url(#linear-gradient-10);}.cls-11{fill:url(#linear-gradient-11);}.cls-12{fill:url(#linear-gradient-12);}.cls-13{fill:url(#linear-gradient-13);}.cls-14{fill:url(#linear-gradient-14);}.cls-15{fill:url(#linear-gradient-15);}.cls-16{fill:url(#linear-gradient-16);}.cls-17{fill:url(#linear-gradient-17);}.cls-18{fill:url(#linear-gradient-18);}.cls-19{fill:url(#linear-gradient-19);}.cls-20{fill:url(#linear-gradient-20);}.cls-21{fill:url(#linear-gradient-21);}.cls-22{fill:url(#linear-gradient-22);}.cls-23{fill:url(#linear-gradient-23);}.cls-24{fill:url(#linear-gradient-24);}.cls-25{fill:url(#linear-gradient-25);}.cls-26{fill:url(#linear-gradient-26);}.cls-27{fill:url(#linear-gradient-27);}.cls-28{fill:url(#linear-gradient-28);}.cls-29{fill:url(#linear-gradient-29);}.cls-30{fill:url(#linear-gradient-30);}.cls-31{fill:url(#linear-gradient-31);}.cls-32{fill:url(#linear-gradient-32);}.cls-33{fill:url(#linear-gradient-33);}.cls-34{fill:url(#linear-gradient-34);}.cls-35{fill:url(#linear-gradient-35);}.cls-36{fill:url(#linear-gradient-36);}.cls-37{fill:url(#linear-gradient-37);}.cls-38{fill:url(#linear-gradient-38);}.cls-39{fill:url(#linear-gradient-39);}.cls-40{fill:url(#linear-gradient-40);}.cls-41{fill:url(#linear-gradient-41);}.cls-42{fill:url(#linear-gradient-42);}.cls-43{fill:url(#linear-gradient-43);}.cls-44{fill:url(#linear-gradient-44);}.cls-45{fill:url(#linear-gradient-45);}.cls-46{fill:url(#linear-gradient-46);}.cls-47{fill:url(#linear-gradient-47);}.cls-48{fill:url(#linear-gradient-48);}.cls-49{fill:url(#linear-gradient-49);}.cls-50{fill:url(#linear-gradient-50);}.cls-51{fill:url(#linear-gradient-51);}.cls-52{fill:url(#linear-gradient-52);}.cls-53{fill:url(#linear-gradient-53);}.cls-54{fill:url(#linear-gradient-54);}.cls-55{fill:url(#linear-gradient-55);}.cls-56{fill:url(#linear-gradient-56);}.cls-57{fill:url(#linear-gradient-57);}.cls-58{fill:url(#linear-gradient-58);}.cls-59{fill:url(#linear-gradient-59);}.cls-60{fill:url(#linear-gradient-60);}.cls-61{fill:url(#linear-gradient-61);}.cls-62{fill:url(#linear-gradient-62);}.cls-63{fill:url(#linear-gradient-63);}.cls-64{fill:url(#linear-gradient-64);}.cls-65{fill:url(#linear-gradient-65);}</style><linearGradient id="linear-gradient" x1="107.75" y1="86.29" x2="107.75" y2="86.29" gradientUnits="userSpaceOnUse"><stop offset="0" stop-color="#ee2a7b"/><stop offset="0.43" stop-color="#1c4695"/><stop offset="1" stop-color="#0073ad"/></linearGradient><linearGradient id="linear-gradient-2" x1="107.75" y1="93.46" x2="107.75" y2="-164.89" xlink:href="#linear-gradient"/><linearGradient id="linear-gradient-3" x1="104.16" y1="86.29" x2="104.16" y2="86.29" xlink:href="#linear-gradient"/><linearGradient id="linear-gradient-4" x1="104.16" y1="93.46" x2="104.16" y2="-164.89" xlink:href="#linear-gradient"/><linearGradient id="linear-gradient-5" x1="99" y1="86.29" x2="99" y2="86.29" xlink:href="#linear-gradient"/><linearGradient id="linear-gradient-6" x1="99" y1="93.46" x2="99" y2="-164.89" xlink:href="#linear-gradient"/><linearGradient id="linear-gradient-7" x1="55.48" y1="86.29" x2="55.48" y2="86.29" xlink:href="#linear-gradient"/><linearGradient id="linear-gradient-8" x1="55.48" y1="93.46" x2="55.48" y2="-164.89" xlink:href="#linear-gradient"/><linearGradient id="linear-gradient-9" x1="8.22" y1="86.29" x2="8.22" y2="86.29" xlink:href="#linear-gradient"/><linearGradient id="linear-gradient-10" x1="8.22" y1="93.46" x2="8.22" y2="-164.89" xlink:href="#linear-gradient"/><linearGradient id="linear-gradient-11" x1="4" y1="93.46" x2="4" y2="-164.89" xlink:href="#linear-gradient"/><linearGradient id="linear-gradient-12" x1="41.49" y1="93.46" x2="41.49" y2="-164.88" xlink:href="#linear-gradient"/><linearGradient id="linear-gradient-13" x1="71.41" y1="93.46" x2="71.41" y2="-164.88" xlink:href="#linear-gradient"/><linearGradient id="linear-gradient-14" x1="60.71" y1="93.46" x2="60.71" y2="-164.88" xlink:href="#linear-gradient"/><linearGradient id="linear-gradient-15" x1="66.45" y1="93.46" x2="66.45" y2="-164.89" xlink:href="#linear-gradient"/><linearGradient id="linear-gradient-16" x1="40.97" y1="93.46" x2="40.97" y2="-164.88" xlink:href="#linear-gradient"/><linearGradient id="linear-gradient-17" x1="84.35" y1="93.46" x2="84.35" y2="-164.88" xlink:href="#linear-gradient"/><linearGradient id="linear-gradient-18" x1="83.82" y1="93.46" x2="83.82" y2="-164.88" xlink:href="#linear-gradient"/><linearGradient id="linear-gradient-19" x1="25.63" y1="93.46" x2="25.63" y2="-164.88" xlink:href="#linear-gradient"/><linearGradient id="linear-gradient-20" x1="95.78" y1="93.46" x2="95.78" y2="-164.88" xlink:href="#linear-gradient"/><linearGradient id="linear-gradient-21" x1="46.43" y1="93.46" x2="46.43" y2="-164.88" xlink:href="#linear-gradient"/><linearGradient id="linear-gradient-22" x1="45.99" y1="93.46" x2="45.99" y2="-164.88" xlink:href="#linear-gradient"/><linearGradient id="linear-gradient-23" x1="51.91" y1="93.46" x2="51.91" y2="-164.89" xlink:href="#linear-gradient"/><linearGradient id="linear-gradient-24" x1="53.97" y1="93.46" x2="53.97" y2="-164.88" xlink:href="#linear-gradient"/><linearGradient id="linear-gradient-25" x1="36.65" y1="93.46" x2="36.65" y2="-164.88" xlink:href="#linear-gradient"/><linearGradient id="linear-gradient-26" x1="45.98" y1="93.46" x2="45.98" y2="-164.88" xlink:href="#linear-gradient"/><linearGradient id="linear-gradient-27" x1="8.85" y1="93.46" x2="8.85" y2="-164.88" xlink:href="#linear-gradient"/><linearGradient id="linear-gradient-28" x1="15.38" y1="93.46" x2="15.38" y2="-164.88" xlink:href="#linear-gradient"/><linearGradient id="linear-gradient-29" x1="23.05" y1="93.46" x2="23.05" y2="-164.89" xlink:href="#linear-gradient"/><linearGradient id="linear-gradient-30" x1="29.16" y1="93.46" x2="29.16" y2="-164.89" xlink:href="#linear-gradient"/><linearGradient id="linear-gradient-31" x1="19.34" y1="93.46" x2="19.34" y2="-164.88" xlink:href="#linear-gradient"/><linearGradient id="linear-gradient-32" x1="9.21" y1="93.46" x2="9.21" y2="-164.88" xlink:href="#linear-gradient"/><linearGradient id="linear-gradient-33" x1="17.53" y1="93.46" x2="17.53" y2="-164.88" xlink:href="#linear-gradient"/><linearGradient id="linear-gradient-34" x1="37.07" y1="93.46" x2="37.07" y2="-164.88" xlink:href="#linear-gradient"/><linearGradient id="linear-gradient-35" x1="26.58" y1="93.46" x2="26.58" y2="-164.88" xlink:href="#linear-gradient"/><linearGradient id="linear-gradient-36" x1="9.89" y1="93.46" x2="9.89" y2="-164.88" xlink:href="#linear-gradient"/><linearGradient id="linear-gradient-37" x1="7.59" y1="93.46" x2="7.59" y2="-164.89" xlink:href="#linear-gradient"/><linearGradient id="linear-gradient-38" x1="74.72" y1="93.46" x2="74.72" y2="-164.88" xlink:href="#linear-gradient"/><linearGradient id="linear-gradient-39" x1="70.08" y1="93.46" x2="70.08" y2="-164.88" xlink:href="#linear-gradient"/><linearGradient id="linear-gradient-40" x1="59.53" y1="93.46" x2="59.53" y2="-164.88" xlink:href="#linear-gradient"/><linearGradient id="linear-gradient-41" x1="56.67" y1="93.46" x2="56.67" y2="-164.88" xlink:href="#linear-gradient"/><linearGradient id="linear-gradient-42" x1="85.57" y1="93.46" x2="85.57" y2="-164.88" xlink:href="#linear-gradient"/><linearGradient id="linear-gradient-43" x1="60.82" y1="93.46" x2="60.82" y2="-164.88" xlink:href="#linear-gradient"/><linearGradient id="linear-gradient-44" x1="64.71" y1="93.46" x2="64.71" y2="-164.88" xlink:href="#linear-gradient"/><linearGradient id="linear-gradient-45" x1="97.61" y1="93.46" x2="97.61" y2="-164.88" xlink:href="#linear-gradient"/><linearGradient id="linear-gradient-46" x1="15.98" y1="93.46" x2="15.98" y2="-164.88" xlink:href="#linear-gradient"/><linearGradient id="linear-gradient-47" x1="1.19" y1="93.46" x2="1.19" y2="-164.88" xlink:href="#linear-gradient"/><linearGradient id="linear-gradient-48" x1="0.73" y1="93.46" x2="0.73" y2="-164.89" xlink:href="#linear-gradient"/><linearGradient id="linear-gradient-49" x1="1.22" y1="93.46" x2="1.22" y2="-164.89" xlink:href="#linear-gradient"/><linearGradient id="linear-gradient-50" x1="2.37" y1="93.46" x2="2.37" y2="-164.88" xlink:href="#linear-gradient"/><linearGradient id="linear-gradient-51" x1="3.5" y1="93.46" x2="3.5" y2="-164.88" xlink:href="#linear-gradient"/><linearGradient id="linear-gradient-52" x1="3.96" y1="93.46" x2="3.96" y2="-164.9" xlink:href="#linear-gradient"/><linearGradient id="linear-gradient-53" x1="3.48" y1="93.46" x2="3.48" y2="-164.88" xlink:href="#linear-gradient"/><linearGradient id="linear-gradient-54" x1="2.33" y1="93.46" x2="2.33" y2="-164.88" xlink:href="#linear-gradient"/><linearGradient id="linear-gradient-55" x1="20.41" y1="93.46" x2="20.41" y2="-164.88" xlink:href="#linear-gradient"/><linearGradient id="linear-gradient-56" x1="20.41" y1="93.46" x2="20.41" y2="-164.88" xlink:href="#linear-gradient"/><linearGradient id="linear-gradient-57" x1="22.17" y1="93.46" x2="22.17" y2="-164.89" xlink:href="#linear-gradient"/><linearGradient id="linear-gradient-58" x1="18.65" y1="93.46" x2="18.65" y2="-164.89" xlink:href="#linear-gradient"/><linearGradient id="linear-gradient-59" x1="42.29" y1="93.46" x2="42.29" y2="-164.88" xlink:href="#linear-gradient"/><linearGradient id="linear-gradient-60" x1="40.69" y1="93.46" x2="40.69" y2="-164.88" xlink:href="#linear-gradient"/><linearGradient id="linear-gradient-61" x1="42.29" y1="93.46" x2="42.29" y2="-164.88" xlink:href="#linear-gradient"/><linearGradient id="linear-gradient-62" x1="40.69" y1="93.46" x2="40.69" y2="-164.88" xlink:href="#linear-gradient"/><linearGradient id="linear-gradient-63" x1="15.98" y1="93.46" x2="15.98" y2="-164.88" xlink:href="#linear-gradient"/><linearGradient id="linear-gradient-64" x1="64.95" y1="93.46" x2="64.95" y2="-164.88" xlink:href="#linear-gradient"/><linearGradient id="linear-gradient-65" x1="3.13" y1="93.46" x2="3.13" y2="-164.88" xlink:href="#linear-gradient"/></defs><title>gifts-car</title><g id="Layer_2" data-name="Layer 2"><g id="Layer_1-2" data-name="Layer 1"><path class="cls-1" d="M107.4,86.29h0Z"/><path class="cls-2" d="M108.1,87.17h-.7a.88.88,0,1,1,0-1.76h.7a.88.88,0,0,1,0,1.76Z"/><path class="cls-3" d="M103.35,86.29h0Z"/><path class="cls-4" d="M105,87.17h-1.63a.88.88,0,0,1,0-1.76H105a.88.88,0,1,1,0,1.76Z"/><path class="cls-5" d="M97.66,86.29h0Z"/><path class="cls-6" d="M100.34,87.17H97.66a.88.88,0,0,1,0-1.76h2.68a.88.88,0,1,1,0,1.76Z"/><path class="cls-7" d="M13.73,86.29h0Z"/><path class="cls-8" d="M97.23,87.17H13.73a.88.88,0,0,1,0-1.76h83.5a.88.88,0,1,1,0,1.76Z"/><path class="cls-9" d="M6.86,86.29h0Z"/><path class="cls-10" d="M9.58,87.17H6.86a.88.88,0,0,1,0-1.76H9.58a.88.88,0,1,1,0,1.76Z"/><path class="cls-11" d="M4,87.17a.85.85,0,0,1-.62-.26.88.88,0,1,1,1.24-1.24A.88.88,0,0,1,4,87.17Z"/><path class="cls-12" d="M41.49,86a5.62,5.62,0,1,1,5.62-5.62A5.62,5.62,0,0,1,41.49,86Zm0-9.56a3.94,3.94,0,1,0,3.94,3.94A3.95,3.95,0,0,0,41.49,76.43Z"/><path class="cls-13" d="M78.18,65.71H64.64a.85.85,0,0,1-.84-.84V58.22a.85.85,0,0,1,.84-.84h6.5A4.83,4.83,0,0,1,75,59.27l3.9,5.09a.85.85,0,0,1,.08.88A.83.83,0,0,1,78.18,65.71ZM65.47,64h11l-2.86-3.75a3.16,3.16,0,0,0-2.49-1.23H65.47Z"/><path class="cls-14" d="M93.35,81.21H91.62a.84.84,0,0,1-.84-.84,6.35,6.35,0,1,0-12.7,0,.85.85,0,0,1-.84.84H48.68a.85.85,0,0,1-.84-.84,6.35,6.35,0,0,0-12.7,0,.84.84,0,0,1-.84.84h-5a4.49,4.49,0,0,1-4.48-4.49V70.16a.83.83,0,0,1,.83-.83H58.82a1.65,1.65,0,0,0,1.64-1.64V57.22A3.19,3.19,0,0,1,63.64,54h6.85A9.47,9.47,0,0,1,78,57.75l4.06,5.31a3.32,3.32,0,0,0,1.73,1.16l8.6,2.27c2.49.66,4.22,4,4.22,6.62v4.83A3.27,3.27,0,0,1,93.35,81.21Zm-.94-1.67h.94a1.6,1.6,0,0,0,1.59-1.6V73.11c0-1.91-1.33-4.57-3-5l-8.59-2.28a4.88,4.88,0,0,1-2.64-1.76l-4.06-5.31a7.82,7.82,0,0,0-6.18-3H63.64a1.52,1.52,0,0,0-1.51,1.51V67.69A3.31,3.31,0,0,1,58.82,71H26.48v5.72a2.82,2.82,0,0,0,2.81,2.82h4.22a8,8,0,0,1,16,0h27a8,8,0,0,1,16,0Z"/><path class="cls-15" d="M67.39,70.76H65.51a.59.59,0,0,1-.59-.6.58.58,0,0,1,.59-.59h1.88a.58.58,0,0,1,.59.59A.59.59,0,0,1,67.39,70.76Z"/><path class="cls-16" d="M42.22,80.08A1.26,1.26,0,1,1,41,78.83,1.25,1.25,0,0,1,42.22,80.08Z"/><path class="cls-17" d="M84.35,86A5.62,5.62,0,1,1,90,80.37,5.62,5.62,0,0,1,84.35,86Zm0-9.56a3.94,3.94,0,1,0,3.94,3.94A3.95,3.95,0,0,0,84.35,76.43Z"/><circle class="cls-18" cx="83.82" cy="80.08" r="1.26"/><path class="cls-19" d="M27.11,73.4h-3a.84.84,0,0,1-.84-.83.85.85,0,0,1,.84-.84h3a.84.84,0,0,1,.83.84A.83.83,0,0,1,27.11,73.4Z"/><path class="cls-20" d="M97.26,73.4h-3a.83.83,0,0,1-.84-.83.84.84,0,0,1,.84-.84h3a.84.84,0,0,1,.83.84A.83.83,0,0,1,97.26,73.4Z"/><path class="cls-21" d="M46.76,29.86h0A3.44,3.44,0,0,0,43,32.94l6.84.68A3.44,3.44,0,0,0,46.76,29.86Zm-2.71,2.35a2.63,2.63,0,0,1,.72-.94,2.62,2.62,0,0,1,3.66.36A2.63,2.63,0,0,1,49,32.69Z"/><path class="cls-22" d="M53.57,43.46h-.09l-16-1.59a.82.82,0,0,1-.56-.3.8.8,0,0,1-.19-.61l.85-8.55a.82.82,0,0,1,.3-.56.84.84,0,0,1,.61-.19l16,1.59a.86.86,0,0,1,.75.92L54.4,42.7A.84.84,0,0,1,53.57,43.46ZM38.48,40.28l14.34,1.43.51-5.22h0l.17-1.66L39.16,33.4Z"/><path class="cls-23" d="M52,51.88l-.1.94Z"/><path class="cls-24" d="M54,37.73a.85.85,0,0,0-.84.84.83.83,0,0,0,.25.59.81.81,0,0,0,.59.24.82.82,0,0,0,.59-.24.87.87,0,0,0,.24-.59.85.85,0,0,0-.24-.59A.83.83,0,0,0,54,37.73Z"/><path class="cls-25" d="M36.65,56.34a.84.84,0,0,0-.84.84.87.87,0,0,0,.24.59.89.89,0,0,0,.6.24.82.82,0,0,0,.83-.83.85.85,0,0,0-.24-.59A.83.83,0,0,0,36.65,56.34Z"/><path class="cls-26" d="M64.79,35.57a4.39,4.39,0,0,0-3-1.6L52,33a16.33,16.33,0,0,0,4.09-1.63.84.84,0,0,0,.38-1,10.84,10.84,0,0,0-4.4-5.49.83.83,0,0,0-1,.05.81.81,0,0,0-.28.91,4.11,4.11,0,0,1,.16,1.6,4,4,0,0,1-1.45,2.7l-.13.1A4.25,4.25,0,0,0,44,29.74l-.16-.18a4,4,0,0,1-.45-4.41.83.83,0,0,0-.11-.95.85.85,0,0,0-.94-.22,10.89,10.89,0,0,0-5.23,4.48.83.83,0,0,0,.17,1.06A16.36,16.36,0,0,0,41,31.9l-9.78-1a4.42,4.42,0,0,0-4.84,4l-.16,1.55a4.45,4.45,0,0,0,1,3.24,4.4,4.4,0,0,0,2.07,1.41,2.49,2.49,0,0,0-.31,1L27.07,60.76A7.74,7.74,0,0,0,34,69.22l6.32.63,9.75,1h0l1.43.14a6.74,6.74,0,0,0,.77,0A7.74,7.74,0,0,0,60,64l1.85-18.66a2.41,2.41,0,0,0-.11-1,4.45,4.45,0,0,0,3.9-4l.16-1.56A4.42,4.42,0,0,0,64.79,35.57Zm-12.16-8s0-.09,0-.13a9.13,9.13,0,0,1,2,2.8,14.67,14.67,0,0,1-4.25,1.37l0,0,.24-.19A5.65,5.65,0,0,0,52.63,27.58Zm-5.87,2.28h0a3.44,3.44,0,0,1,1.89.81,4.08,4.08,0,0,1-1,.31,2.67,2.67,0,0,1,.81.65A2.63,2.63,0,0,1,49,32.69l-4.9-.48a2.63,2.63,0,0,1,.72-.94,2.67,2.67,0,0,1,.88-.47,4,4,0,0,1-1-.49A3.48,3.48,0,0,1,46.76,29.86Zm-5.43-3.44v0a5.6,5.6,0,0,0,1.26,4.16l.2.24A15.14,15.14,0,0,1,39,28.72,9.21,9.21,0,0,1,41.33,26.42ZM60.16,45.2,58.3,63.86a6.07,6.07,0,0,1-6.63,5.44l-.6-.06L52.7,52.9h0l.09-.93h0L53,50.28a.84.84,0,0,0-1.67-.16L49.41,69.07l-7.91-.78-5.07-.51.67-6.69a.84.84,0,0,0-1.67-.16l-.66,6.69-.6-.06a6.06,6.06,0,0,1-5.43-6.63l1.85-18.66a1,1,0,0,1,.34-.64,1,1,0,0,1,.5-.21l5.88.58L36.07,54.48a.84.84,0,0,0,.75.91h.09a.83.83,0,0,0,.83-.75L39,42.17l13,1.29-.33,3.34a.84.84,0,0,0,1.67.16l.33-3.34,5.88.59A1,1,0,0,1,60.16,45.2Zm3.94-6.55L64,40.2a2.76,2.76,0,0,1-3,2.47l-1.14-.11a1.77,1.77,0,0,0-.32-.05l-6.06-.61a.86.86,0,0,0-.44-.18L38.33,40.27a.75.75,0,0,0-.47.09l-6.07-.61h-.31l-1.15-.11a2.76,2.76,0,0,1-2.47-3L28,35.06a2.75,2.75,0,0,1,2.74-2.48H31l30.6,3a2.74,2.74,0,0,1,1.86,1A2.7,2.7,0,0,1,64.1,38.65Z"/><path class="cls-27" d="M9.37,70.27h-1a.84.84,0,0,1-.83-.84.83.83,0,0,1,.83-.83h1a.84.84,0,0,1,.84.83A.85.85,0,0,1,9.37,70.27Z"/><path class="cls-28" d="M18.57,70.27H12.2a.85.85,0,0,1-.84-.84.84.84,0,0,1,.84-.83h6.37a.83.83,0,0,1,.83.83A.84.84,0,0,1,18.57,70.27Z"/><path class="cls-29" d="M24.22,50.87H21.87a.84.84,0,0,1,0-1.67h2.35a.84.84,0,1,1,0,1.67Z"/><path class="cls-30" d="M31,50.87H27.37a.84.84,0,1,1,0-1.67H31a.84.84,0,1,1,0,1.67Z"/><path class="cls-31" d="M19.34,50.87a.83.83,0,0,1-.59-.25.85.85,0,0,1-.24-.59.82.82,0,0,1,.83-.83.85.85,0,0,1,.59.24.83.83,0,0,1,.25.59.85.85,0,0,1-.84.84Z"/><path class="cls-32" d="M10.09,32.57H8.33a.84.84,0,0,1,0-1.67h1.76a.84.84,0,0,1,0,1.67Z"/><path class="cls-33" d="M21.87,32.57H13.19a.84.84,0,0,1,0-1.67h8.68a.84.84,0,1,1,0,1.67Z"/><path class="cls-34" d="M37.29,14.26h-.43a.6.6,0,0,0-.6.6.59.59,0,0,0,.6.59h.43a.59.59,0,0,0,.6-.59A.6.6,0,0,0,37.29,14.26Z"/><path class="cls-35" d="M40.15,8.89a3.7,3.7,0,0,0-2.69-1.08A3.76,3.76,0,0,0,34.54,9.3a6.5,6.5,0,0,0-12.11-.14,4.63,4.63,0,0,0-.6-.74,4.4,4.4,0,0,0-3.18-1.27,4.49,4.49,0,0,0-4.36,4.5v2a.58.58,0,0,1-.58.58H12.45a.6.6,0,0,0-.6.6.59.59,0,0,0,.6.59h1.26a1.77,1.77,0,0,0,1.77-1.77v-2a3.29,3.29,0,0,1,3.19-3.3A3.24,3.24,0,0,1,22,11.59a.6.6,0,0,0,1.2,0,5.3,5.3,0,1,1,10.6,0,.58.58,0,0,0,.59.59.59.59,0,0,0,.6-.59A2.6,2.6,0,0,1,37.48,9a2.55,2.55,0,0,1,1.83.74,2.7,2.7,0,0,1,.8,1.91v1.4a1.21,1.21,0,0,1-1.21,1.21.6.6,0,0,0-.6.6.59.59,0,0,0,.6.59,2.41,2.41,0,0,0,2.41-2.4v-1.4A3.92,3.92,0,0,0,40.15,8.89Z"/><path class="cls-36" d="M10.72,14.26H9.07a.6.6,0,0,0-.6.6.59.59,0,0,0,.6.59h1.65a.59.59,0,0,0,.6-.59A.6.6,0,0,0,10.72,14.26Z"/><path class="cls-37" d="M7.59,14.26a.58.58,0,0,0-.6.6.61.61,0,0,0,.17.42.61.61,0,0,0,.43.17.58.58,0,0,0,.59-.59A.63.63,0,0,0,8,14.43.61.61,0,0,0,7.59,14.26Z"/><path class="cls-38" d="M74.84,5.2H74.6a.6.6,0,0,0,0,1.2h.24a.6.6,0,1,0,0-1.2Z"/><path class="cls-39" d="M78,2.23a2.39,2.39,0,0,0-1.71-.69,2.47,2.47,0,0,0-1.58.64,3.94,3.94,0,0,0-7-.1L67.57,2a2.76,2.76,0,0,0-2-.8A2.81,2.81,0,0,0,62.85,4V5.13a.08.08,0,0,1-.07.07h-.72a.6.6,0,0,0,0,1.2h.72A1.27,1.27,0,0,0,64,5.13V4a1.61,1.61,0,0,1,1.55-1.62h0a1.55,1.55,0,0,1,1.11.46,1.58,1.58,0,0,1,.47,1.12.6.6,0,0,0,.6.6.59.59,0,0,0,.59-.6,2.76,2.76,0,0,1,5.51,0,.59.59,0,0,0,.59.6.6.6,0,0,0,.6-.6,1.21,1.21,0,0,1,1.18-1.2,1.14,1.14,0,0,1,.85.34,1.25,1.25,0,0,1,.38.9v.79a.43.43,0,0,1-.43.43.6.6,0,0,0,0,1.2A1.63,1.63,0,0,0,78.7,4.77V4A2.47,2.47,0,0,0,78,2.23Z"/><path class="cls-40" d="M60,5.2h-.93a.6.6,0,0,0,0,1.2H60a.6.6,0,1,0,0-1.2Z"/><path class="cls-41" d="M56.67,5.2a.59.59,0,0,0-.42,1,.58.58,0,0,0,.84,0,.6.6,0,0,0-.42-1Z"/><path class="cls-42" d="M100.91,18.22a2.59,2.59,0,0,0-1.79.64A6.46,6.46,0,0,0,87,18.28a5.1,5.1,0,0,0-9.08.43,3.43,3.43,0,0,0-2.63-1.32h-.07a3.37,3.37,0,0,0-2.38,1,3.54,3.54,0,0,0-1.06,2.5,2.71,2.71,0,0,1-2.71,2.72h-.8a.6.6,0,0,0,0,1.2h.8A3.92,3.92,0,0,0,73,20.87a2.32,2.32,0,0,1,.7-1.65,2.2,2.2,0,0,1,1.58-.64,2.25,2.25,0,0,1,2.2,2.24.6.6,0,0,0,.6.6.59.59,0,0,0,.59-.6,3.92,3.92,0,0,1,7.83,0,.6.6,0,1,0,1.19,0,5.27,5.27,0,0,1,10.54,0,.6.6,0,1,0,1.2,0,1.4,1.4,0,0,1,1.45-1.41,1.44,1.44,0,0,1,1.37,1.45v1.32a1.41,1.41,0,0,1-1.41,1.41h-.36a.6.6,0,0,0,0,1.2h.36a2.61,2.61,0,0,0,2.6-2.61V20.86A2.63,2.63,0,0,0,100.91,18.22Z"/><path class="cls-43" d="M61.14,23.59h-.65a.6.6,0,0,0,0,1.2h.65a.6.6,0,0,0,0-1.2Z"/><path class="cls-44" d="M65.91,23.59h-2.4a.6.6,0,0,0,0,1.2h2.4a.6.6,0,0,0,0-1.2Z"/><path class="cls-45" d="M98.53,23.59H96.69a.6.6,0,1,0,0,1.2h1.84a.6.6,0,0,0,0-1.2Z"/><path class="cls-46" d="M16.35,40.65a1.59,1.59,0,0,0-1.91,1.14.24.24,0,0,0,.17.28.22.22,0,0,0,.28-.17,1.14,1.14,0,0,1,.51-.67,1.05,1.05,0,0,1,.83-.12,1.1,1.1,0,1,1-1.07,1.82.23.23,0,0,0-.34.32,1.59,1.59,0,0,0,.76.45,1.57,1.57,0,0,0,.77-3.05Z"/><path class="cls-47" d="M1.38,27.1a.2.2,0,0,0,.16.07.2.2,0,0,0,.16-.07.22.22,0,0,0,0-.32L1,26.07a.23.23,0,0,0-.33.33Z"/><path class="cls-48" d="M1.46,27.74a.23.23,0,0,0-.23-.23h-1a.23.23,0,0,0-.23.23A.23.23,0,0,0,.23,28h1A.24.24,0,0,0,1.46,27.74Z"/><path class="cls-49" d="M1.73,28.36a.22.22,0,0,0-.32,0l-.71.7a.24.24,0,0,0,0,.33.26.26,0,0,0,.16.07A.28.28,0,0,0,1,29.39l.7-.7A.24.24,0,0,0,1.73,28.36Z"/><path class="cls-50" d="M2.37,28.61a.23.23,0,0,0-.23.23v1a.23.23,0,0,0,.23.23.23.23,0,0,0,.23-.23v-1A.23.23,0,0,0,2.37,28.61Z"/><path class="cls-51" d="M3,28.33a.24.24,0,0,0,0,.33l.7.7a.23.23,0,0,0,.17.07A.23.23,0,0,0,4,29.36.22.22,0,0,0,4,29l-.71-.71A.22.22,0,0,0,3,28.33Z"/><path class="cls-52" d="M3.24,27.7a.23.23,0,0,0,.23.23h1a.23.23,0,0,0,.23-.23.23.23,0,0,0-.23-.23h-1A.23.23,0,0,0,3.24,27.7Z"/><path class="cls-53" d="M3.12,27.14a.23.23,0,0,0,.17-.07l.7-.7A.24.24,0,0,0,4,26a.22.22,0,0,0-.32,0L3,26.75a.22.22,0,0,0,0,.32A.21.21,0,0,0,3.12,27.14Z"/><path class="cls-54" d="M2.33,26.83a.24.24,0,0,0,.23-.23v-1a.23.23,0,0,0-.23-.23.23.23,0,0,0-.23.23v1A.23.23,0,0,0,2.33,26.83Z"/><path class="cls-55" d="M20.41,21.71a.36.36,0,0,0-.36.36v1.52a.36.36,0,0,0,.71,0V22.07A.36.36,0,0,0,20.41,21.71Z"/><path class="cls-56" d="M20.41,25.23a.36.36,0,0,0-.36.36v1.52a.36.36,0,0,0,.71,0V25.59A.36.36,0,0,0,20.41,25.23Z"/><path class="cls-57" d="M22.93,24.24H21.4a.35.35,0,0,0-.35.35.35.35,0,0,0,.35.35h1.53a.35.35,0,0,0,.35-.35A.35.35,0,0,0,22.93,24.24Z"/><path class="cls-58" d="M19.41,24.24H17.88a.35.35,0,0,0-.35.35.35.35,0,0,0,.35.35h1.53a.35.35,0,0,0,.35-.35A.35.35,0,0,0,19.41,24.24Z"/><path class="cls-59" d="M42.48,18l-.69.7a.22.22,0,0,0,0,.32.24.24,0,0,0,.16.07.26.26,0,0,0,.16-.07l.69-.7a.22.22,0,0,0,0-.32A.24.24,0,0,0,42.48,18Z"/><path class="cls-60" d="M40.88,19.64l-.7.69a.22.22,0,0,0,0,.32.23.23,0,0,0,.16.07.2.2,0,0,0,.16-.07l.7-.69a.23.23,0,1,0-.32-.32Z"/><path class="cls-61" d="M42.11,19.64a.23.23,0,0,0-.32.32l.69.69a.21.21,0,0,0,.16.07.2.2,0,0,0,.16-.07.22.22,0,0,0,0-.32Z"/><path class="cls-62" d="M40.5,18a.24.24,0,0,0-.32,0,.22.22,0,0,0,0,.32l.7.7a.24.24,0,0,0,.16.07.26.26,0,0,0,.16-.07.22.22,0,0,0,0-.32Z"/><path class="cls-63" d="M16,60.48A1.07,1.07,0,1,0,17,61.54,1.07,1.07,0,0,0,16,60.48Zm0,1.81a.75.75,0,1,1,.75-.75A.75.75,0,0,1,16,62.29Z"/><path class="cls-64" d="M66.47,28.61l-1.15-1.15,1.15-1.14A.26.26,0,1,0,66.1,26L65,27.09,63.81,26a.27.27,0,0,0-.37,0,.25.25,0,0,0,0,.37l1.14,1.14-1.14,1.15a.25.25,0,0,0,0,.37.27.27,0,0,0,.37,0L65,27.84,66.1,29a.26.26,0,1,0,.37-.37Z"/><path class="cls-65" d="M4.93,50.34H3.38V48.79a.25.25,0,0,0-.5,0v1.55H1.33a.25.25,0,1,0,0,.5H2.88v1.55a.25.25,0,0,0,.5,0V50.84H4.93a.25.25,0,0,0,0-.5Z"/></g></g></svg>