<svg xmlns="http://www.w3.org/2000/svg" xmlns:xlink="http://www.w3.org/1999/xlink" viewBox="0 0 404.99 284.76"><defs><style>.cls-1{fill:url(#linear-gradient);}.cls-2{fill:url(#linear-gradient-2);}.cls-3{fill:url(#linear-gradient-3);}.cls-4{fill:url(#linear-gradient-4);}.cls-5{fill:url(#linear-gradient-5);}</style><linearGradient id="linear-gradient" x1="374.55" y1="-15.74" x2="4.55" y2="246.26" gradientUnits="userSpaceOnUse"><stop offset="0" stop-color="#e72e78"/><stop offset="1" stop-color="#473684"/></linearGradient><linearGradient id="linear-gradient-2" x1="391.66" y1="8.43" x2="21.66" y2="270.43" xlink:href="#linear-gradient"/><linearGradient id="linear-gradient-3" x1="399.48" y1="19.47" x2="29.48" y2="281.47" xlink:href="#linear-gradient"/><linearGradient id="linear-gradient-4" x1="433.05" y1="66.88" x2="63.05" y2="328.88" xlink:href="#linear-gradient"/><linearGradient id="linear-gradient-5" x1="466.63" y1="114.3" x2="96.63" y2="376.3" xlink:href="#linear-gradient"/></defs><title>gift_cards_icon</title><g id="Layer_2" data-name="Layer 2"><g id="Layer_1-2" data-name="Layer 1"><path class="cls-1" d="M202.5,94.92H188.61a35.6,35.6,0,0,0-57.3-38.39A35.61,35.61,0,0,0,74,94.92H60.12a11.86,11.86,0,0,0-11.87,11.87V225.44A11.86,11.86,0,0,0,60.12,237.3H202.5a11.86,11.86,0,0,0,11.86-11.86V106.79A11.86,11.86,0,0,0,202.5,94.92ZM119.44,213.57H72V166.11h47.46Zm0-71.19H72V118.65h47.46Zm0-47.46H107.58a11.87,11.87,0,1,1,11.86-11.86Zm23.73-11.86A11.87,11.87,0,1,1,155,94.92H143.17Zm47.46,130.51H143.17V166.11h47.46Zm0-71.19H143.17V118.65h47.46Z"/><path class="cls-2" d="M369.4,0H35.6A35.64,35.64,0,0,0,0,35.6V249.17a35.64,35.64,0,0,0,35.6,35.59H369.4A35.63,35.63,0,0,0,405,249.17V35.6A35.63,35.63,0,0,0,369.4,0Zm11.86,249.17A11.87,11.87,0,0,1,369.4,261H35.6a11.88,11.88,0,0,1-11.87-11.86V35.6A11.88,11.88,0,0,1,35.6,23.73H369.4A11.88,11.88,0,0,1,381.26,35.6Z"/><path class="cls-3" d="M345.67,71.19h-72a11.87,11.87,0,1,0,0,23.73h72a11.87,11.87,0,0,0,0-23.73Z"/><path class="cls-4" d="M345.67,142.38h-72a11.87,11.87,0,1,0,0,23.73h72a11.87,11.87,0,0,0,0-23.73Z"/><path class="cls-5" d="M345.67,213.57h-72a11.87,11.87,0,1,0,0,23.73h72a11.87,11.87,0,0,0,0-23.73Z"/></g></g></svg>