<svg xmlns="http://www.w3.org/2000/svg" xmlns:xlink="http://www.w3.org/1999/xlink" viewBox="0 0 108.2 79.51"><defs><style>.cls-1{fill:url(#linear-gradient);}.cls-2{fill:url(#linear-gradient-2);}.cls-3{fill:url(#linear-gradient-3);}.cls-4{fill:url(#linear-gradient-4);}.cls-5{fill:url(#linear-gradient-5);}.cls-6{fill:url(#linear-gradient-6);}.cls-7{fill:url(#linear-gradient-7);}.cls-8{fill:url(#linear-gradient-8);}.cls-9{fill:url(#linear-gradient-9);}.cls-10{fill:url(#linear-gradient-10);}.cls-11{fill:url(#linear-gradient-11);}.cls-12{fill:url(#linear-gradient-12);}.cls-13{fill:url(#linear-gradient-13);}.cls-14{fill:url(#linear-gradient-14);}.cls-15{fill:url(#linear-gradient-15);}.cls-16{fill:url(#linear-gradient-16);}.cls-17{fill:url(#linear-gradient-17);}.cls-18{fill:url(#linear-gradient-18);}.cls-19{fill:url(#linear-gradient-19);}.cls-20{fill:url(#linear-gradient-20);}.cls-21{fill:url(#linear-gradient-21);}.cls-22{fill:url(#linear-gradient-22);}.cls-23{fill:url(#linear-gradient-23);}.cls-24{fill:url(#linear-gradient-24);}.cls-25{fill:url(#linear-gradient-25);}.cls-26{fill:url(#linear-gradient-26);}.cls-27{fill:url(#linear-gradient-27);}.cls-28{fill:url(#linear-gradient-28);}.cls-29{fill:url(#linear-gradient-29);}.cls-30{fill:url(#linear-gradient-30);}.cls-31{fill:url(#linear-gradient-31);}.cls-32{fill:url(#linear-gradient-32);}.cls-33{fill:url(#linear-gradient-33);}.cls-34{fill:url(#linear-gradient-34);}.cls-35{fill:url(#linear-gradient-35);}.cls-36{fill:url(#linear-gradient-36);}.cls-37{fill:url(#linear-gradient-37);}.cls-38{fill:url(#linear-gradient-38);}.cls-39{fill:url(#linear-gradient-39);}.cls-40{fill:url(#linear-gradient-40);}.cls-41{fill:url(#linear-gradient-41);}.cls-42{fill:url(#linear-gradient-42);}.cls-43{fill:url(#linear-gradient-43);}.cls-44{fill:url(#linear-gradient-44);}.cls-45{fill:url(#linear-gradient-45);}.cls-46{fill:url(#linear-gradient-46);}.cls-47{fill:url(#linear-gradient-47);}.cls-48{fill:url(#linear-gradient-48);}.cls-49{fill:url(#linear-gradient-49);}.cls-50{fill:url(#linear-gradient-50);}.cls-51{fill:url(#linear-gradient-51);}.cls-52{fill:url(#linear-gradient-52);}.cls-53{fill:url(#linear-gradient-53);}.cls-54{fill:url(#linear-gradient-54);}.cls-55{fill:url(#linear-gradient-55);}.cls-56{fill:url(#linear-gradient-56);}.cls-57{fill:url(#linear-gradient-57);}.cls-58{fill:url(#linear-gradient-58);}.cls-59{fill:url(#linear-gradient-59);}.cls-60{fill:url(#linear-gradient-60);}.cls-61{fill:url(#linear-gradient-61);}.cls-62{fill:url(#linear-gradient-62);}.cls-63{fill:url(#linear-gradient-63);}.cls-64{fill:url(#linear-gradient-64);}.cls-65{fill:url(#linear-gradient-65);}.cls-66{fill:url(#linear-gradient-66);}.cls-67{fill:url(#linear-gradient-67);}.cls-68{fill:url(#linear-gradient-68);}.cls-69{fill:url(#linear-gradient-69);}.cls-70{fill:url(#linear-gradient-70);}.cls-71{fill:url(#linear-gradient-71);}.cls-72{fill:url(#linear-gradient-72);}.cls-73{fill:url(#linear-gradient-73);}.cls-74{fill:url(#linear-gradient-74);}</style><linearGradient id="linear-gradient" x1="106.95" y1="78.62" x2="106.95" y2="78.62" gradientUnits="userSpaceOnUse"><stop offset="0" stop-color="#ee2a7b"/><stop offset="0.43" stop-color="#1c4695"/><stop offset="1" stop-color="#0073ad"/></linearGradient><linearGradient id="linear-gradient-2" x1="106.95" y1="85.98" x2="106.95" y2="-177.77" xlink:href="#linear-gradient"/><linearGradient id="linear-gradient-3" x1="103.29" y1="78.62" x2="103.29" y2="78.62" xlink:href="#linear-gradient"/><linearGradient id="linear-gradient-4" x1="103.29" y1="85.98" x2="103.29" y2="-177.77" xlink:href="#linear-gradient"/><linearGradient id="linear-gradient-5" x1="98" y1="78.62" x2="98" y2="78.62" xlink:href="#linear-gradient"/><linearGradient id="linear-gradient-6" x1="98" y1="85.98" x2="98" y2="-177.77" xlink:href="#linear-gradient"/><linearGradient id="linear-gradient-7" x1="53.52" y1="78.62" x2="53.52" y2="78.62" xlink:href="#linear-gradient"/><linearGradient id="linear-gradient-8" x1="53.52" y1="85.98" x2="53.52" y2="-177.77" xlink:href="#linear-gradient"/><linearGradient id="linear-gradient-9" x1="5.21" y1="78.62" x2="5.21" y2="78.62" xlink:href="#linear-gradient"/><linearGradient id="linear-gradient-10" x1="5.21" y1="85.98" x2="5.21" y2="-177.77" xlink:href="#linear-gradient"/><linearGradient id="linear-gradient-11" x1="0.9" y1="85.98" x2="0.9" y2="-177.77" xlink:href="#linear-gradient"/><linearGradient id="linear-gradient-12" x1="44.57" y1="72.67" x2="44.57" y2="-191.08" xlink:href="#linear-gradient"/><linearGradient id="linear-gradient-13" x1="54.62" y1="85.98" x2="54.62" y2="-177.77" xlink:href="#linear-gradient"/><linearGradient id="linear-gradient-14" x1="37.64" y1="85.98" x2="37.64" y2="-177.76" xlink:href="#linear-gradient"/><linearGradient id="linear-gradient-15" x1="38.99" y1="85.98" x2="38.99" y2="-177.77" xlink:href="#linear-gradient"/><linearGradient id="linear-gradient-16" x1="41.03" y1="85.98" x2="41.03" y2="-177.77" xlink:href="#linear-gradient"/><linearGradient id="linear-gradient-17" x1="22.73" y1="85.98" x2="22.73" y2="-177.77" xlink:href="#linear-gradient"/><linearGradient id="linear-gradient-18" x1="25.24" y1="85.98" x2="25.24" y2="-177.77" xlink:href="#linear-gradient"/><linearGradient id="linear-gradient-19" x1="29.16" y1="85.98" x2="29.16" y2="-177.77" xlink:href="#linear-gradient"/><linearGradient id="linear-gradient-20" x1="11.88" y1="85.98" x2="11.88" y2="-177.77" xlink:href="#linear-gradient"/><linearGradient id="linear-gradient-21" x1="15.1" y1="85.98" x2="15.1" y2="-177.77" xlink:href="#linear-gradient"/><linearGradient id="linear-gradient-22" x1="20.24" y1="85.98" x2="20.24" y2="-177.77" xlink:href="#linear-gradient"/><linearGradient id="linear-gradient-23" x1="5.79" y1="85.98" x2="5.79" y2="-177.77" xlink:href="#linear-gradient"/><linearGradient id="linear-gradient-24" x1="9.75" y1="85.98" x2="9.75" y2="-177.76" xlink:href="#linear-gradient"/><linearGradient id="linear-gradient-25" x1="15.74" y1="85.98" x2="15.74" y2="-177.77" xlink:href="#linear-gradient"/><linearGradient id="linear-gradient-26" x1="6.16" y1="85.98" x2="6.16" y2="-177.76" xlink:href="#linear-gradient"/><linearGradient id="linear-gradient-27" x1="10.04" y1="85.98" x2="10.04" y2="-177.77" xlink:href="#linear-gradient"/><linearGradient id="linear-gradient-28" x1="15.53" y1="85.98" x2="15.53" y2="-177.77" xlink:href="#linear-gradient"/><linearGradient id="linear-gradient-29" x1="103.3" y1="85.98" x2="103.3" y2="-177.76" xlink:href="#linear-gradient"/><linearGradient id="linear-gradient-30" x1="99.41" y1="85.98" x2="99.41" y2="-177.77" xlink:href="#linear-gradient"/><linearGradient id="linear-gradient-31" x1="93.88" y1="85.98" x2="93.88" y2="-177.76" xlink:href="#linear-gradient"/><linearGradient id="linear-gradient-32" x1="103.43" y1="85.98" x2="103.43" y2="-177.77" xlink:href="#linear-gradient"/><linearGradient id="linear-gradient-33" x1="99.47" y1="85.98" x2="99.47" y2="-177.77" xlink:href="#linear-gradient"/><linearGradient id="linear-gradient-34" x1="93.98" y1="85.98" x2="93.98" y2="-177.77" xlink:href="#linear-gradient"/><linearGradient id="linear-gradient-35" x1="97.3" y1="85.98" x2="97.3" y2="-177.77" xlink:href="#linear-gradient"/><linearGradient id="linear-gradient-36" x1="94.09" y1="85.98" x2="94.09" y2="-177.77" xlink:href="#linear-gradient"/><linearGradient id="linear-gradient-37" x1="89.15" y1="85.98" x2="89.15" y2="-177.77" xlink:href="#linear-gradient"/><linearGradient id="linear-gradient-38" x1="86.47" y1="85.98" x2="86.47" y2="-177.77" xlink:href="#linear-gradient"/><linearGradient id="linear-gradient-39" x1="83.61" y1="85.98" x2="83.61" y2="-177.77" xlink:href="#linear-gradient"/><linearGradient id="linear-gradient-40" x1="80.61" y1="85.98" x2="80.61" y2="-177.77" xlink:href="#linear-gradient"/><linearGradient id="linear-gradient-41" x1="79.49" y1="85.98" x2="79.49" y2="-177.77" xlink:href="#linear-gradient"/><linearGradient id="linear-gradient-42" x1="71.55" y1="85.98" x2="71.55" y2="-177.77" xlink:href="#linear-gradient"/><linearGradient id="linear-gradient-43" x1="70.13" y1="85.98" x2="70.13" y2="-177.77" xlink:href="#linear-gradient"/><linearGradient id="linear-gradient-44" x1="68.42" y1="85.98" x2="68.42" y2="-177.77" xlink:href="#linear-gradient"/><linearGradient id="linear-gradient-45" x1="67.66" y1="85.98" x2="67.66" y2="-177.77" xlink:href="#linear-gradient"/><linearGradient id="linear-gradient-46" x1="54.6" y1="85.98" x2="54.6" y2="-177.77" xlink:href="#linear-gradient"/><linearGradient id="linear-gradient-47" x1="54.61" y1="85.98" x2="54.61" y2="-177.77" xlink:href="#linear-gradient"/><linearGradient id="linear-gradient-48" x1="54.61" y1="85.98" x2="54.61" y2="-177.77" xlink:href="#linear-gradient"/><linearGradient id="linear-gradient-49" x1="96.42" y1="85.98" x2="96.42" y2="-177.77" xlink:href="#linear-gradient"/><linearGradient id="linear-gradient-50" x1="95.8" y1="85.98" x2="95.8" y2="-177.77" xlink:href="#linear-gradient"/><linearGradient id="linear-gradient-51" x1="96.46" y1="85.98" x2="96.46" y2="-177.76" xlink:href="#linear-gradient"/><linearGradient id="linear-gradient-52" x1="98.01" y1="85.98" x2="98.01" y2="-177.77" xlink:href="#linear-gradient"/><linearGradient id="linear-gradient-53" x1="99.54" y1="85.98" x2="99.54" y2="-177.76" xlink:href="#linear-gradient"/><linearGradient id="linear-gradient-54" x1="100.17" y1="85.98" x2="100.17" y2="-177.77" xlink:href="#linear-gradient"/><linearGradient id="linear-gradient-55" x1="99.51" y1="85.98" x2="99.51" y2="-177.76" xlink:href="#linear-gradient"/><linearGradient id="linear-gradient-56" x1="97.95" y1="85.98" x2="97.95" y2="-177.77" xlink:href="#linear-gradient"/><linearGradient id="linear-gradient-57" x1="31.99" y1="85.98" x2="31.99" y2="-177.77" xlink:href="#linear-gradient"/><linearGradient id="linear-gradient-58" x1="31.49" y1="85.98" x2="31.49" y2="-177.77" xlink:href="#linear-gradient"/><linearGradient id="linear-gradient-59" x1="32.02" y1="85.98" x2="32.02" y2="-177.77" xlink:href="#linear-gradient"/><linearGradient id="linear-gradient-60" x1="33.28" y1="85.98" x2="33.28" y2="-177.77" xlink:href="#linear-gradient"/><linearGradient id="linear-gradient-61" x1="34.52" y1="85.98" x2="34.52" y2="-177.76" xlink:href="#linear-gradient"/><linearGradient id="linear-gradient-62" x1="35.02" y1="85.98" x2="35.02" y2="-177.77" xlink:href="#linear-gradient"/><linearGradient id="linear-gradient-63" x1="34.49" y1="85.98" x2="34.49" y2="-177.77" xlink:href="#linear-gradient"/><linearGradient id="linear-gradient-64" x1="33.24" y1="85.98" x2="33.24" y2="-177.77" xlink:href="#linear-gradient"/><linearGradient id="linear-gradient-65" x1="15.1" y1="85.98" x2="15.1" y2="-177.77" xlink:href="#linear-gradient"/><linearGradient id="linear-gradient-66" x1="79.23" y1="85.98" x2="79.23" y2="-177.77" xlink:href="#linear-gradient"/><linearGradient id="linear-gradient-67" x1="13.44" y1="85.98" x2="13.44" y2="-177.77" xlink:href="#linear-gradient"/><linearGradient id="linear-gradient-68" x1="99.49" y1="85.98" x2="99.49" y2="-177.77" xlink:href="#linear-gradient"/><linearGradient id="linear-gradient-69" x1="96.09" y1="85.98" x2="96.09" y2="-177.77" xlink:href="#linear-gradient"/><linearGradient id="linear-gradient-70" x1="99.49" y1="85.98" x2="99.49" y2="-177.77" xlink:href="#linear-gradient"/><linearGradient id="linear-gradient-71" x1="96.09" y1="85.98" x2="96.09" y2="-177.77" xlink:href="#linear-gradient"/><linearGradient id="linear-gradient-72" x1="24.18" y1="85.98" x2="24.18" y2="-177.76" xlink:href="#linear-gradient"/><linearGradient id="linear-gradient-73" x1="88.74" y1="85.98" x2="88.74" y2="-177.77" xlink:href="#linear-gradient"/><linearGradient id="linear-gradient-74" x1="54.31" y1="64.81" x2="54.31" y2="-3.04" xlink:href="#linear-gradient"/></defs><title>gift-box</title><g id="Layer_2" data-name="Layer 2"><g id="Layer_1-2" data-name="Layer 1"><path class="cls-1" d="M106.59,78.62h0Z"/><path class="cls-2" d="M107.31,79.51h-.72a.9.9,0,1,1,0-1.79h.72a.9.9,0,0,1,0,1.79Z"/><path class="cls-3" d="M102.45,78.62h0Z"/><path class="cls-4" d="M104.12,79.51h-1.67a.9.9,0,1,1,0-1.79h1.67a.9.9,0,1,1,0,1.79Z"/><path class="cls-5" d="M96.63,78.62h0Z"/><path class="cls-6" d="M99.38,79.51H96.63a.9.9,0,1,1,0-1.79h2.75a.9.9,0,1,1,0,1.79Z"/><path class="cls-7" d="M10.84,78.62h0Z"/><path class="cls-8" d="M96.2,79.51H10.84a.9.9,0,1,1,0-1.79H96.2a.9.9,0,0,1,0,1.79Z"/><path class="cls-9" d="M3.82,78.62h0Z"/><path class="cls-10" d="M6.6,79.51H3.82a.9.9,0,1,1,0-1.79H6.6a.9.9,0,1,1,0,1.79Z"/><path class="cls-11" d="M.9,79.51a.9.9,0,0,1-.64-.26A.91.91,0,0,1,.26,78a.9.9,0,0,1,.64-.26.88.88,0,0,1,.63.26.88.88,0,0,1,0,1.27A.88.88,0,0,1,.9,79.51Z"/><path class="cls-12" d="M44.57,50.25a.85.85,0,0,1-.84-.84.83.83,0,0,1,.25-.59.85.85,0,0,1,1.18,0,.83.83,0,0,1,.25.59.85.85,0,0,1-.84.84Z"/><path class="cls-13" d="M76.85,28.17H60.22a21.72,21.72,0,0,0,7-3.29.84.84,0,0,0,.28-1A14.41,14.41,0,0,0,61,17.14a.84.84,0,0,0-1.14,1.08,5.61,5.61,0,0,1,.46,2.26,5.75,5.75,0,0,1-2,4.4,5.53,5.53,0,0,0-3.62-1.36A5.45,5.45,0,0,0,50.93,25a5.76,5.76,0,0,1-1.72-6.64.84.84,0,0,0-1.16-1.06,14.34,14.34,0,0,0-6.36,6.63.83.83,0,0,0,.28,1,21.79,21.79,0,0,0,7,3.25H32.38A4.43,4.43,0,0,0,28,32.6v4.72a4.43,4.43,0,0,0,4.42,4.43h.22a2.46,2.46,0,0,0-.18.94V71.36a7.74,7.74,0,0,0,7.73,7.73H69.08a7.74,7.74,0,0,0,7.74-7.73V42.69a2.66,2.66,0,0,0-.18-.94h.21a4.44,4.44,0,0,0,4.43-4.43V32.6A4.44,4.44,0,0,0,76.85,28.17ZM62,20.48a7.55,7.55,0,0,0,0-.83,12.81,12.81,0,0,1,3.78,4.27,20.07,20.07,0,0,1-6.13,2.69c-.08-.15-.16-.3-.25-.45A7.43,7.43,0,0,0,62,20.48Zm-14.83-.7a5.37,5.37,0,0,0,0,.7,7.43,7.43,0,0,0,2.76,5.77c-.07.12-.14.25-.2.38A20.15,20.15,0,0,1,43.52,24,12.86,12.86,0,0,1,47.15,19.78Zm5.56,5.93h0l.23-.12h0l.24-.1h0a1.17,1.17,0,0,1,.24-.09h0l.25-.07h0l.25-.05h0a1.15,1.15,0,0,1,.26,0h.61l.24,0h0a4.19,4.19,0,0,1,.51.11h0l.24.08h0a3.64,3.64,0,0,1,.71.36h0a3.91,3.91,0,0,1,1.66,2.36H50.88A3.86,3.86,0,0,1,52.71,25.71Zm-8.24,4.16H64.7V40.08H44.47ZM32.38,40.08a2.76,2.76,0,0,1-2.75-2.76V32.6a2.75,2.75,0,0,1,2.75-2.75H42.8V40.08H32.38ZM75.14,71.36a6.06,6.06,0,0,1-6.06,6.06H65.47v-4a.86.86,0,0,0-.76-.87.83.83,0,0,0-.91.83v2.08a.85.85,0,0,0,0,.23V77a.93.93,0,0,0,0,.23v.23H45.44V68a.87.87,0,0,0-.75-.87.85.85,0,0,0-.92.84v9.45H40.15a6.06,6.06,0,0,1-6.06-6.06V42.69a.94.94,0,0,1,.95-.94h8.39a.76.76,0,0,0,.21,0h.13v4a.86.86,0,0,0,.76.87.84.84,0,0,0,.91-.83v-4H63.8v5a.86.86,0,0,0,.75.87.83.83,0,0,0,.92-.83v-5h.06a.76.76,0,0,0,.21,0H74.2a.94.94,0,0,1,.94.94Zm4.47-34a2.77,2.77,0,0,1-2.76,2.76H66.37V29.85H76.85a2.76,2.76,0,0,1,2.76,2.75Z"/><path class="cls-14" d="M37.64,4.67a.87.87,0,0,1-.59-.24.85.85,0,0,1-.24-.6.82.82,0,0,1,.24-.59A.87.87,0,0,1,37.64,3a.85.85,0,0,1,.59.24.83.83,0,0,1,.25.59.84.84,0,0,1-.84.84Z"/><path class="cls-15" d="M39.31,9.25a.85.85,0,0,1-.79-.55l-.64-1.77a.84.84,0,0,1,1.57-.57l.64,1.77A.83.83,0,0,1,39.6,9.2.77.77,0,0,1,39.31,9.25Z"/><path class="cls-16" d="M41.74,15.94a.83.83,0,0,1-.78-.55l-1.44-3.94a.84.84,0,0,1,.5-1.07.82.82,0,0,1,1.07.5l1.44,3.94a.84.84,0,0,1-.5,1.07A.71.71,0,0,1,41.74,15.94Z"/><path class="cls-17" d="M22.73,13.29a.85.85,0,0,1-.59-.25.87.87,0,0,1-.24-.59.84.84,0,1,1,1.67,0,.87.87,0,0,1-.24.59A.86.86,0,0,1,22.73,13.29Z"/><path class="cls-18" d="M25.82,17a.81.81,0,0,1-.64-.3L24,15.27a.83.83,0,0,1,.11-1.17.84.84,0,0,1,1.18.1l1.16,1.38a.84.84,0,0,1-.11,1.18A.81.81,0,0,1,25.82,17Z"/><path class="cls-19" d="M30.45,22.47a.84.84,0,0,1-.64-.29L27.22,19.1A.84.84,0,0,1,28.51,18l2.58,3.07A.84.84,0,0,1,31,22.28.8.8,0,0,1,30.45,22.47Z"/><path class="cls-20" d="M12.08,26.71a.78.78,0,0,1-.42-.11l-.4-.23a.84.84,0,1,1,.83-1.45l.4.23a.84.84,0,0,1-.41,1.56Z"/><path class="cls-21" d="M15.84,28.88a.78.78,0,0,1-.42-.11l-1.48-.85a.82.82,0,0,1-.3-1.14.84.84,0,0,1,1.14-.31l1.48.85a.83.83,0,0,1,.3,1.14A.82.82,0,0,1,15.84,28.88Z"/><path class="cls-22" d="M22.06,32.48a.94.94,0,0,1-.42-.11L18,30.26a.84.84,0,0,1,.84-1.45l3.65,2.11a.84.84,0,0,1,.31,1.14A.85.85,0,0,1,22.06,32.48Z"/><path class="cls-23" d="M5.79,42.66a.87.87,0,0,1-.59-.24.89.89,0,0,1-.24-.6A.82.82,0,0,1,5.79,41a.85.85,0,0,1,.59.24.83.83,0,0,1,.25.59.84.84,0,0,1-.84.84Z"/><path class="cls-24" d="M11.23,43.62h-.15l-2.95-.52a.84.84,0,0,1,.29-1.65l2.95.52a.84.84,0,0,1-.14,1.66Z"/><path class="cls-25" d="M17.61,44.74h-.15l-3.73-.66A.83.83,0,1,1,14,42.43l3.73.65a.84.84,0,0,1,.68,1A.83.83,0,0,1,17.61,44.74Z"/><path class="cls-26" d="M5.8,59.88a.84.84,0,0,1-.14-1.66l.71-.13a.84.84,0,1,1,.29,1.65L6,59.86Z"/><path class="cls-27" d="M9.15,59.29A.84.84,0,0,1,9,57.63l1.76-.31A.83.83,0,1,1,11.06,59l-1.76.31Z"/><path class="cls-28" d="M13.45,58.53a.84.84,0,0,1-.15-1.66l4.17-.73a.83.83,0,1,1,.29,1.64l-4.17.74Z"/><path class="cls-29" d="M103.44,59.83h-.14l-.3,0a.84.84,0,1,1,.29-1.65l.3.05a.84.84,0,0,1-.15,1.66Z"/><path class="cls-30" d="M100.64,59.34l-.15,0L98,58.89a.84.84,0,0,1,.3-1.65l2.45.44a.84.84,0,0,1-.14,1.66Z"/><path class="cls-31" d="M96.13,58.54H96l-4.51-.79a.84.84,0,0,1-.67-1,.83.83,0,0,1,1-.68l4.51.79a.84.84,0,0,1-.15,1.66Z"/><path class="cls-32" d="M103.43,42.62a.83.83,0,0,1-.59-.25.87.87,0,0,1-.24-.59.85.85,0,0,1,.24-.59.83.83,0,0,1,.59-.25.84.84,0,0,1,.84.84.87.87,0,0,1-.24.59A.86.86,0,0,1,103.43,42.62Z"/><path class="cls-33" d="M98.27,43.53a.84.84,0,0,1-.14-1.66l2.4-.43a.84.84,0,0,1,.29,1.65l-2.4.42Z"/><path class="cls-34" d="M91.62,44.7A.84.84,0,0,1,91.48,43l4.72-.83a.83.83,0,1,1,.29,1.64l-4.72.84Z"/><path class="cls-35" d="M97.07,26.71a.85.85,0,0,1-.73-.42.84.84,0,0,1,.31-1.14l.47-.27A.84.84,0,0,1,98,26.33l-.48.27A.77.77,0,0,1,97.07,26.71Z"/><path class="cls-36" d="M92.93,29.1a.82.82,0,0,1-.72-.42.83.83,0,0,1,.3-1.14l2.33-1.34a.83.83,0,0,1,.84,1.44L93.35,29A.88.88,0,0,1,92.93,29.1Z"/><path class="cls-37" d="M87.15,32.44a.82.82,0,0,1-.72-.42.83.83,0,0,1,.3-1.14l4-2.32A.84.84,0,0,1,91.58,30l-4,2.32A.91.91,0,0,1,87.15,32.44Z"/><path class="cls-38" d="M86.47,13.26a.86.86,0,0,1-.6-.25.87.87,0,0,1-.24-.59.84.84,0,0,1,.84-.84.83.83,0,0,1,.59.25.85.85,0,0,1,.24.59.87.87,0,0,1-.24.59A.83.83,0,0,1,86.47,13.26Z"/><path class="cls-39" d="M83,17.39a.8.8,0,0,1-.53-.19.83.83,0,0,1-.1-1.18l1.23-1.47a.84.84,0,1,1,1.28,1.08L83.63,17.1A.84.84,0,0,1,83,17.39Z"/><path class="cls-40" d="M80.21,20.71a.85.85,0,0,1-.64-1.38l.79-.94a.84.84,0,0,1,1.28,1.08l-.78.94A.88.88,0,0,1,80.21,20.71Z"/><path class="cls-41" d="M78.75,22.45a.85.85,0,0,1-.64-1.38l1.46-1.74a.84.84,0,0,1,1.29,1.08L79.4,22.15A.88.88,0,0,1,78.75,22.45Z"/><path class="cls-42" d="M71.55,4.65a.82.82,0,0,1-.83-.83A.85.85,0,0,1,71,3.23.83.83,0,0,1,71.55,3a.85.85,0,0,1,.84.84.83.83,0,0,1-.25.59A.85.85,0,0,1,71.55,4.65Z"/><path class="cls-43" d="M69.75,9.61a.74.74,0,0,1-.29,0A.83.83,0,0,1,69,8.49l.77-2.13a.84.84,0,0,1,1.57.57l-.77,2.13A.83.83,0,0,1,69.75,9.61Z"/><path class="cls-44" d="M67.88,14.74a.92.92,0,0,1-.28-.05.84.84,0,0,1-.51-1.07l1.09-3a.83.83,0,1,1,1.57.56l-1.08,3A.85.85,0,0,1,67.88,14.74Z"/><path class="cls-45" d="M67.45,15.93a1,1,0,0,1-.29,0,.85.85,0,0,1-.5-1.08l.43-1.18a.84.84,0,0,1,1.08-.5.85.85,0,0,1,.5,1.07l-.44,1.19A.83.83,0,0,1,67.45,15.93Z"/><path class="cls-46" d="M54.6,1.67a.89.89,0,0,1-.6-.24.87.87,0,0,1-.24-.59A.89.89,0,0,1,54,.24.89.89,0,0,1,54.6,0a.87.87,0,0,1,.59.24.89.89,0,0,1,.24.6.87.87,0,0,1-.24.59A.87.87,0,0,1,54.6,1.67Z"/><path class="cls-47" d="M54.6,6.14h0a.84.84,0,0,1-.82-.85l0-1.67a.83.83,0,0,1,.84-.82h0a.84.84,0,0,1,.82.85l0,1.67A.83.83,0,0,1,54.6,6.14Z"/><path class="cls-48" d="M54.6,13.67h0a.84.84,0,0,1-.83-.84l0-4.21a.84.84,0,1,1,1.67,0l0,4.21A.83.83,0,0,1,54.6,13.67Z"/><path class="cls-49" d="M96.67,12a.29.29,0,0,0,.44,0,.3.3,0,0,0,0-.43l-1-1a.31.31,0,1,0-.44.44Z"/><path class="cls-50" d="M96.78,12.84a.31.31,0,0,0-.31-.31H95.12a.31.31,0,0,0,0,.62h1.35A.31.31,0,0,0,96.78,12.84Z"/><path class="cls-51" d="M96.71,13.68l-.95,1a.3.3,0,0,0,0,.43.29.29,0,0,0,.44,0l1-1a.31.31,0,1,0-.44-.44Z"/><path class="cls-52" d="M98,14a.31.31,0,0,0-.31.31v1.34a.31.31,0,1,0,.62,0V14.33A.31.31,0,0,0,98,14Z"/><path class="cls-53" d="M99.29,13.65a.3.3,0,0,0-.44,0,.31.31,0,0,0,0,.44l1,.95a.31.31,0,0,0,.44,0,.31.31,0,0,0,0-.44Z"/><path class="cls-54" d="M100.84,12.48H99.49a.31.31,0,1,0,0,.62h1.35a.31.31,0,1,0,0-.62Z"/><path class="cls-55" d="M99,12a.31.31,0,0,0,.22-.09l1-.95a.31.31,0,0,0-.44-.44l-1,.95a.31.31,0,0,0,0,.44A.31.31,0,0,0,99,12Z"/><path class="cls-56" d="M98,11.61a.31.31,0,0,0,.32-.31V10a.32.32,0,0,0-.63,0V11.3A.31.31,0,0,0,98,11.61Z"/><path class="cls-57" d="M32.2,8.61a.24.24,0,0,0,.18.07.23.23,0,0,0,.17-.07.25.25,0,0,0,0-.36l-.77-.77a.24.24,0,0,0-.35,0,.25.25,0,0,0,0,.36Z"/><path class="cls-58" d="M32.28,9.3A.25.25,0,0,0,32,9.05H30.94a.25.25,0,0,0,0,.5H32A.25.25,0,0,0,32.28,9.3Z"/><path class="cls-59" d="M32.23,10l-.77.77a.25.25,0,0,0,0,.36.24.24,0,0,0,.18.07.22.22,0,0,0,.17-.07l.77-.77a.25.25,0,0,0,0-.36A.24.24,0,0,0,32.23,10Z"/><path class="cls-60" d="M33.28,10.25a.25.25,0,0,0-.25.25v1.09a.25.25,0,1,0,.5,0V10.5A.25.25,0,0,0,33.28,10.25Z"/><path class="cls-61" d="M34.31,10A.24.24,0,0,0,34,10a.25.25,0,0,0,0,.36l.77.77a.24.24,0,0,0,.18.07.22.22,0,0,0,.17-.07.25.25,0,0,0,0-.36Z"/><path class="cls-62" d="M35.57,9H34.48a.25.25,0,0,0,0,.5h1.09a.25.25,0,0,0,0-.5Z"/><path class="cls-63" d="M34.11,8.65a.22.22,0,0,0,.17-.07l.77-.77a.25.25,0,0,0,0-.36.24.24,0,0,0-.35,0l-.77.77a.25.25,0,0,0,0,.36A.24.24,0,0,0,34.11,8.65Z"/><path class="cls-64" d="M33.24,8.31a.26.26,0,0,0,.25-.25V7A.26.26,0,0,0,33,7V8.06A.26.26,0,0,0,33.24,8.31Z"/><path class="cls-65" d="M15.1,15.59a2,2,0,1,1,2-2A2,2,0,0,1,15.1,15.59Zm0-3.46a1.43,1.43,0,1,0,1.43,1.43A1.43,1.43,0,0,0,15.1,12.13Z"/><path class="cls-66" d="M81.28,12.84l-1.55-1.55,1.55-1.55a.35.35,0,0,0-.5-.5l-1.55,1.55L77.68,9.24a.35.35,0,0,0-.5.5l1.55,1.55-1.55,1.55a.35.35,0,0,0,.5.5l1.55-1.55,1.55,1.55a.35.35,0,0,0,.5-.5Z"/><path class="cls-67" d="M10.64,33.3h2.41v2.41a.39.39,0,0,0,.39.39.4.4,0,0,0,.39-.39V33.3h2.41a.4.4,0,0,0,.39-.39.39.39,0,0,0-.39-.39H13.83V30.11a.39.39,0,0,0-.39-.39.38.38,0,0,0-.39.39v2.41H10.64a.39.39,0,0,0-.39.39A.4.4,0,0,0,10.64,33.3Z"/><path class="cls-68" d="M100.57,31.84a.48.48,0,0,0-.68,0l-1.47,1.48a.48.48,0,1,0,.68.68l1.47-1.48A.48.48,0,0,0,100.57,31.84Z"/><path class="cls-69" d="M97.17,35.25a.49.49,0,0,0-.69,0L95,36.73a.48.48,0,1,0,.68.68l1.48-1.48A.5.5,0,0,0,97.17,35.25Z"/><path class="cls-70" d="M99.89,37.41a.48.48,0,0,0,.68-.68L99.1,35.25a.48.48,0,1,0-.68.68Z"/><path class="cls-71" d="M97.17,33.32l-1.48-1.48a.48.48,0,1,0-.68.68L96.48,34a.49.49,0,0,0,.69,0A.5.5,0,0,0,97.17,33.32Z"/><path class="cls-72" d="M24.7,23.73a.52.52,0,0,1-.52.52.52.52,0,0,1,0-1A.52.52,0,0,1,24.7,23.73Z"/><path class="cls-73" d="M89.26,22.92a.52.52,0,0,1-.52.52.52.52,0,0,1-.52-.52.53.53,0,0,1,.52-.52A.52.52,0,0,1,89.26,22.92Z"/><path class="cls-74" d="M58.76,56.38l-2,2.71a2.55,2.55,0,0,0-.49,1.4v.58H52.64v-.83a4.25,4.25,0,0,1,1-2.86l2-2.62a3.33,3.33,0,0,0,.8-1.85,2.22,2.22,0,1,0-4.44,0H48.51c0-3.42,2.59-5.52,5.79-5.52s5.82,2,5.82,5.52A5.48,5.48,0,0,1,58.76,56.38ZM52.53,67.22V63.55h3.81v3.67Z"/></g></g></svg>