<svg xmlns="http://www.w3.org/2000/svg" xmlns:xlink="http://www.w3.org/1999/xlink" viewBox="0 0 108.2 79.51"><defs><style>.cls-1{fill:url(#linear-gradient);}.cls-2{fill:url(#linear-gradient-2);}.cls-3{fill:url(#linear-gradient-3);}.cls-4{fill:url(#linear-gradient-4);}.cls-5{fill:url(#linear-gradient-5);}.cls-6{fill:url(#linear-gradient-6);}.cls-7{fill:url(#linear-gradient-7);}.cls-8{fill:url(#linear-gradient-8);}.cls-9{fill:url(#linear-gradient-9);}.cls-10{fill:url(#linear-gradient-10);}.cls-11{fill:url(#linear-gradient-11);}.cls-12{fill:url(#linear-gradient-12);}.cls-13{fill:url(#linear-gradient-13);}.cls-14{fill:url(#linear-gradient-14);}.cls-15{fill:url(#linear-gradient-15);}.cls-16{fill:url(#linear-gradient-16);}.cls-17{fill:url(#linear-gradient-17);}.cls-18{fill:url(#linear-gradient-18);}.cls-19{fill:url(#linear-gradient-19);}.cls-20{fill:url(#linear-gradient-20);}.cls-21{fill:url(#linear-gradient-21);}.cls-22{fill:url(#linear-gradient-22);}.cls-23{fill:url(#linear-gradient-23);}.cls-24{fill:url(#linear-gradient-24);}.cls-25{fill:url(#linear-gradient-25);}.cls-26{fill:url(#linear-gradient-26);}.cls-27{fill:url(#linear-gradient-27);}.cls-28{fill:url(#linear-gradient-28);}.cls-29{fill:url(#linear-gradient-29);}.cls-30{fill:url(#linear-gradient-30);}.cls-31{fill:url(#linear-gradient-31);}.cls-32{fill:url(#linear-gradient-32);}.cls-33{fill:url(#linear-gradient-33);}.cls-34{fill:url(#linear-gradient-34);}.cls-35{fill:url(#linear-gradient-35);}.cls-36{fill:url(#linear-gradient-36);}.cls-37{fill:url(#linear-gradient-37);}.cls-38{fill:url(#linear-gradient-38);}.cls-39{fill:url(#linear-gradient-39);}.cls-40{fill:url(#linear-gradient-40);}.cls-41{fill:url(#linear-gradient-41);}.cls-42{fill:url(#linear-gradient-42);}.cls-43{fill:url(#linear-gradient-43);}.cls-44{fill:url(#linear-gradient-44);}.cls-45{fill:url(#linear-gradient-45);}.cls-46{fill:url(#linear-gradient-46);}.cls-47{fill:url(#linear-gradient-47);}.cls-48{fill:url(#linear-gradient-48);}.cls-49{fill:url(#linear-gradient-49);}.cls-50{fill:url(#linear-gradient-50);}.cls-51{fill:url(#linear-gradient-51);}.cls-52{fill:url(#linear-gradient-52);}.cls-53{fill:url(#linear-gradient-53);}.cls-54{fill:url(#linear-gradient-54);}.cls-55{fill:url(#linear-gradient-55);}.cls-56{fill:url(#linear-gradient-56);}.cls-57{fill:url(#linear-gradient-57);}.cls-58{fill:url(#linear-gradient-58);}.cls-59{fill:url(#linear-gradient-59);}.cls-60{fill:url(#linear-gradient-60);}.cls-61{fill:url(#linear-gradient-61);}.cls-62{fill:url(#linear-gradient-62);}.cls-63{fill:url(#linear-gradient-63);}.cls-64{fill:url(#linear-gradient-64);}.cls-65{fill:url(#linear-gradient-65);}.cls-66{fill:url(#linear-gradient-66);}.cls-67{fill:url(#linear-gradient-67);}.cls-68{fill:url(#linear-gradient-68);}.cls-69{fill:url(#linear-gradient-69);}.cls-70{fill:url(#linear-gradient-70);}.cls-71{fill:url(#linear-gradient-71);}.cls-72{fill:url(#linear-gradient-72);}.cls-73{fill:url(#linear-gradient-73);}.cls-74{fill:url(#linear-gradient-74);}.cls-75{fill:url(#linear-gradient-75);}.cls-76{fill:url(#linear-gradient-76);}.cls-77{fill:url(#linear-gradient-77);}</style><linearGradient id="linear-gradient" x1="81.08" y1="109.42" x2="184.48" y2="-13.72" gradientUnits="userSpaceOnUse"><stop offset="0" stop-color="#ee2a7b"/><stop offset="0.43" stop-color="#1c4695"/><stop offset="1" stop-color="#0073ad"/></linearGradient><linearGradient id="linear-gradient-2" x1="81.08" y1="109.42" x2="184.48" y2="-13.72" xlink:href="#linear-gradient"/><linearGradient id="linear-gradient-3" x1="78.94" y1="107.62" x2="182.33" y2="-15.52" xlink:href="#linear-gradient"/><linearGradient id="linear-gradient-4" x1="78.94" y1="107.62" x2="182.33" y2="-15.52" xlink:href="#linear-gradient"/><linearGradient id="linear-gradient-5" x1="75.84" y1="105.02" x2="179.23" y2="-18.12" xlink:href="#linear-gradient"/><linearGradient id="linear-gradient-6" x1="75.84" y1="105.02" x2="179.23" y2="-18.12" xlink:href="#linear-gradient"/><linearGradient id="linear-gradient-7" x1="49.75" y1="83.11" x2="153.14" y2="-40.03" xlink:href="#linear-gradient"/><linearGradient id="linear-gradient-8" x1="49.75" y1="83.11" x2="153.14" y2="-40.03" xlink:href="#linear-gradient"/><linearGradient id="linear-gradient-9" x1="21.41" y1="59.32" x2="124.8" y2="-63.82" xlink:href="#linear-gradient"/><linearGradient id="linear-gradient-10" x1="21.41" y1="59.32" x2="124.8" y2="-63.82" xlink:href="#linear-gradient"/><linearGradient id="linear-gradient-11" x1="18.88" y1="57.2" x2="122.28" y2="-65.95" xlink:href="#linear-gradient"/><linearGradient id="linear-gradient-12" x1="3.61" y1="44.37" x2="107" y2="-78.77" xlink:href="#linear-gradient"/><linearGradient id="linear-gradient-13" x1="6.22" y1="46.56" x2="109.61" y2="-76.58" xlink:href="#linear-gradient"/><linearGradient id="linear-gradient-14" x1="10.17" y1="49.88" x2="113.56" y2="-73.26" xlink:href="#linear-gradient"/><linearGradient id="linear-gradient-15" x1="-0.89" y1="40.59" x2="102.5" y2="-82.55" xlink:href="#linear-gradient"/><linearGradient id="linear-gradient-16" x1="2.04" y1="43.05" x2="105.43" y2="-80.09" xlink:href="#linear-gradient"/><linearGradient id="linear-gradient-17" x1="6.64" y1="46.92" x2="110.03" y2="-76.22" xlink:href="#linear-gradient"/><linearGradient id="linear-gradient-18" x1="-0.71" y1="40.75" x2="102.68" y2="-82.39" xlink:href="#linear-gradient"/><linearGradient id="linear-gradient-19" x1="2.1" y1="43.1" x2="105.49" y2="-80.04" xlink:href="#linear-gradient"/><linearGradient id="linear-gradient-20" x1="6.58" y1="46.86" x2="109.97" y2="-76.28" xlink:href="#linear-gradient"/><linearGradient id="linear-gradient-21" x1="3.64" y1="44.39" x2="107.03" y2="-78.75" xlink:href="#linear-gradient"/><linearGradient id="linear-gradient-22" x1="6.3" y1="46.63" x2="109.69" y2="-76.51" xlink:href="#linear-gradient"/><linearGradient id="linear-gradient-23" x1="10.34" y1="50.02" x2="113.73" y2="-73.12" xlink:href="#linear-gradient"/><linearGradient id="linear-gradient-24" x1="12.3" y1="51.67" x2="115.69" y2="-71.47" xlink:href="#linear-gradient"/><linearGradient id="linear-gradient-25" x1="14.24" y1="53.29" x2="117.63" y2="-69.85" xlink:href="#linear-gradient"/><linearGradient id="linear-gradient-26" x1="16.98" y1="55.6" x2="120.37" y2="-67.54" xlink:href="#linear-gradient"/><linearGradient id="linear-gradient-27" x1="69.27" y1="99.5" x2="172.66" y2="-23.64" xlink:href="#linear-gradient"/><linearGradient id="linear-gradient-28" x1="66.65" y1="97.3" x2="170.04" y2="-25.84" xlink:href="#linear-gradient"/><linearGradient id="linear-gradient-29" x1="62.93" y1="94.18" x2="166.32" y2="-28.96" xlink:href="#linear-gradient"/><linearGradient id="linear-gradient-30" x1="60.88" y1="92.46" x2="164.28" y2="-30.68" xlink:href="#linear-gradient"/><linearGradient id="linear-gradient-31" x1="58.9" y1="90.8" x2="162.3" y2="-32.34" xlink:href="#linear-gradient"/><linearGradient id="linear-gradient-32" x1="56.16" y1="88.49" x2="159.55" y2="-34.65" xlink:href="#linear-gradient"/><linearGradient id="linear-gradient-33" x1="49.39" y1="82.81" x2="152.78" y2="-40.33" xlink:href="#linear-gradient"/><linearGradient id="linear-gradient-34" x1="48.42" y1="81.99" x2="151.81" y2="-41.15" xlink:href="#linear-gradient"/><linearGradient id="linear-gradient-35" x1="46.93" y1="80.74" x2="150.32" y2="-42.4" xlink:href="#linear-gradient"/><linearGradient id="linear-gradient-36" x1="36.47" y1="71.96" x2="139.86" y2="-51.18" xlink:href="#linear-gradient"/><linearGradient id="linear-gradient-37" x1="36.48" y1="71.97" x2="139.87" y2="-51.17" xlink:href="#linear-gradient"/><linearGradient id="linear-gradient-38" x1="36.47" y1="71.96" x2="139.87" y2="-51.18" xlink:href="#linear-gradient"/><linearGradient id="linear-gradient-39" x1="36.47" y1="71.96" x2="139.87" y2="-51.18" xlink:href="#linear-gradient"/><linearGradient id="linear-gradient-40" x1="23.49" y1="61.06" x2="126.88" y2="-62.08" xlink:href="#linear-gradient"/><linearGradient id="linear-gradient-41" x1="24.57" y1="61.97" x2="127.96" y2="-61.17" xlink:href="#linear-gradient"/><linearGradient id="linear-gradient-42" x1="25.88" y1="63.07" x2="129.27" y2="-60.07" xlink:href="#linear-gradient"/><linearGradient id="linear-gradient-43" x1="26.47" y1="63.56" x2="129.86" y2="-59.58" xlink:href="#linear-gradient"/><linearGradient id="linear-gradient-44" x1="12.07" y1="51.48" x2="115.47" y2="-71.66" xlink:href="#linear-gradient"/><linearGradient id="linear-gradient-45" x1="13.87" y1="52.99" x2="117.27" y2="-70.15" xlink:href="#linear-gradient"/><linearGradient id="linear-gradient-46" x1="16.95" y1="55.57" x2="120.34" y2="-67.57" xlink:href="#linear-gradient"/><linearGradient id="linear-gradient-47" x1="41.75" y1="76.39" x2="145.14" y2="-46.74" xlink:href="#linear-gradient"/><linearGradient id="linear-gradient-48" x1="42.15" y1="76.73" x2="145.54" y2="-46.41" xlink:href="#linear-gradient"/><linearGradient id="linear-gradient-49" x1="43.3" y1="77.69" x2="146.69" y2="-45.45" xlink:href="#linear-gradient"/><linearGradient id="linear-gradient-50" x1="44.51" y1="78.71" x2="147.9" y2="-44.43" xlink:href="#linear-gradient"/><linearGradient id="linear-gradient-51" x1="45.09" y1="79.2" x2="148.48" y2="-43.94" xlink:href="#linear-gradient"/><linearGradient id="linear-gradient-52" x1="44.69" y1="78.86" x2="148.08" y2="-44.28" xlink:href="#linear-gradient"/><linearGradient id="linear-gradient-53" x1="43.55" y1="77.9" x2="146.94" y2="-45.24" xlink:href="#linear-gradient"/><linearGradient id="linear-gradient-54" x1="42.33" y1="76.88" x2="145.72" y2="-46.26" xlink:href="#linear-gradient"/><linearGradient id="linear-gradient-55" x1="2.37" y1="43.33" x2="105.76" y2="-79.81" xlink:href="#linear-gradient"/><linearGradient id="linear-gradient-56" x1="2.69" y1="43.6" x2="106.08" y2="-79.54" xlink:href="#linear-gradient"/><linearGradient id="linear-gradient-57" x1="3.62" y1="44.38" x2="107.01" y2="-78.76" xlink:href="#linear-gradient"/><linearGradient id="linear-gradient-58" x1="4.6" y1="45.2" x2="107.99" y2="-77.94" xlink:href="#linear-gradient"/><linearGradient id="linear-gradient-59" x1="5.07" y1="45.59" x2="108.46" y2="-77.54" xlink:href="#linear-gradient"/><linearGradient id="linear-gradient-60" x1="4.74" y1="45.32" x2="108.14" y2="-77.82" xlink:href="#linear-gradient"/><linearGradient id="linear-gradient-61" x1="3.82" y1="44.55" x2="107.21" y2="-78.59" xlink:href="#linear-gradient"/><linearGradient id="linear-gradient-62" x1="2.83" y1="43.72" x2="106.23" y2="-79.42" xlink:href="#linear-gradient"/><linearGradient id="linear-gradient-63" x1="-4.83" y1="37.29" x2="98.56" y2="-85.85" xlink:href="#linear-gradient"/><linearGradient id="linear-gradient-64" x1="31.67" y1="67.93" x2="135.06" y2="-55.21" xlink:href="#linear-gradient"/><linearGradient id="linear-gradient-65" x1="3.73" y1="44.47" x2="107.12" y2="-78.67" xlink:href="#linear-gradient"/><linearGradient id="linear-gradient-66" x1="54.21" y1="86.86" x2="157.6" y2="-36.29" xlink:href="#linear-gradient"/><linearGradient id="linear-gradient-67" x1="53.89" y1="86.59" x2="157.28" y2="-36.55" xlink:href="#linear-gradient"/><linearGradient id="linear-gradient-68" x1="55.89" y1="88.26" x2="159.28" y2="-34.87" xlink:href="#linear-gradient"/><linearGradient id="linear-gradient-69" x1="52.21" y1="85.18" x2="155.6" y2="-37.96" xlink:href="#linear-gradient"/><linearGradient id="linear-gradient-70" x1="5.51" y1="45.96" x2="108.9" y2="-77.18" xlink:href="#linear-gradient"/><linearGradient id="linear-gradient-71" x1="42.98" y1="77.43" x2="146.37" y2="-45.71" xlink:href="#linear-gradient"/><linearGradient id="linear-gradient-72" x1="24.31" y1="61.75" x2="127.7" y2="-61.39" xlink:href="#linear-gradient"/><linearGradient id="linear-gradient-73" x1="31.6" y1="67.87" x2="134.99" y2="-55.27" xlink:href="#linear-gradient"/><linearGradient id="linear-gradient-74" x1="51.52" y1="84.6" x2="154.91" y2="-38.54" xlink:href="#linear-gradient"/><linearGradient id="linear-gradient-75" x1="66.34" y1="97.04" x2="169.73" y2="-26.1" gradientTransform="translate(77.17 -39.39) rotate(45)" xlink:href="#linear-gradient"/><linearGradient id="linear-gradient-76" x1="51.76" y1="84.8" x2="155.15" y2="-38.34" xlink:href="#linear-gradient"/><linearGradient id="linear-gradient-77" x1="51.76" y1="84.8" x2="155.15" y2="-38.34" xlink:href="#linear-gradient"/></defs><title>halo-person</title><g id="Layer_2" data-name="Layer 2"><g id="Layer_1-2" data-name="Layer 1"><path class="cls-1" d="M106.59,78.62h0Z"/><path class="cls-2" d="M107.31,79.51h-.72a.9.9,0,1,1,0-1.79h.72a.9.9,0,0,1,0,1.79Z"/><path class="cls-3" d="M102.45,78.62h0Z"/><path class="cls-4" d="M104.12,79.51h-1.67a.9.9,0,1,1,0-1.79h1.67a.9.9,0,1,1,0,1.79Z"/><path class="cls-5" d="M96.63,78.62h0Z"/><path class="cls-6" d="M99.38,79.51H96.63a.9.9,0,1,1,0-1.79h2.75a.9.9,0,1,1,0,1.79Z"/><path class="cls-7" d="M10.84,78.62h0Z"/><path class="cls-8" d="M96.2,79.51H10.84a.9.9,0,1,1,0-1.79H96.2a.9.9,0,0,1,0,1.79Z"/><path class="cls-9" d="M3.82,78.62h0Z"/><path class="cls-10" d="M6.6,79.51H3.82a.9.9,0,1,1,0-1.79H6.6a.9.9,0,1,1,0,1.79Z"/><path class="cls-11" d="M.9,79.51a.9.9,0,0,1-.64-.26A.91.91,0,0,1,.26,78a.9.9,0,0,1,.64-.26.88.88,0,0,1,.63.26.88.88,0,0,1,0,1.27A.88.88,0,0,1,.9,79.51Z"/><path class="cls-12" d="M37.64,4.67a.87.87,0,0,1-.59-.24.85.85,0,0,1-.24-.6.82.82,0,0,1,.24-.59A.87.87,0,0,1,37.64,3a.85.85,0,0,1,.59.24.83.83,0,0,1,.25.59.84.84,0,0,1-.84.84Z"/><path class="cls-13" d="M39.31,9.25a.85.85,0,0,1-.79-.55l-.64-1.77a.84.84,0,0,1,1.57-.57l.64,1.77A.83.83,0,0,1,39.6,9.2.77.77,0,0,1,39.31,9.25Z"/><path class="cls-14" d="M41.74,15.94a.83.83,0,0,1-.78-.55l-1.44-3.94a.84.84,0,0,1,.5-1.07.82.82,0,0,1,1.07.5l1.44,3.94a.84.84,0,0,1-.5,1.07A.71.71,0,0,1,41.74,15.94Z"/><path class="cls-15" d="M22.73,13.29a.85.85,0,0,1-.59-.25.87.87,0,0,1-.24-.59.84.84,0,1,1,1.67,0,.87.87,0,0,1-.24.59A.86.86,0,0,1,22.73,13.29Z"/><path class="cls-16" d="M25.82,17a.81.81,0,0,1-.64-.3L24,15.27a.83.83,0,0,1,.11-1.17.84.84,0,0,1,1.18.1l1.16,1.38a.84.84,0,0,1-.11,1.18A.81.81,0,0,1,25.82,17Z"/><path class="cls-17" d="M30.45,22.47a.84.84,0,0,1-.64-.29L27.22,19.1A.84.84,0,0,1,28.51,18l2.58,3.07A.84.84,0,0,1,31,22.28.8.8,0,0,1,30.45,22.47Z"/><path class="cls-18" d="M12.08,26.71a.78.78,0,0,1-.42-.11l-.4-.23a.84.84,0,1,1,.83-1.45l.4.23a.84.84,0,0,1-.41,1.56Z"/><path class="cls-19" d="M15.84,28.88a.78.78,0,0,1-.42-.11l-1.48-.85a.82.82,0,0,1-.3-1.14.84.84,0,0,1,1.14-.31l1.48.85a.83.83,0,0,1,.3,1.14A.82.82,0,0,1,15.84,28.88Z"/><path class="cls-20" d="M22.06,32.48a.94.94,0,0,1-.42-.11L18,30.26a.84.84,0,0,1,.84-1.45l3.65,2.11a.84.84,0,0,1,.31,1.14A.85.85,0,0,1,22.06,32.48Z"/><path class="cls-21" d="M5.79,42.66a.87.87,0,0,1-.59-.24.89.89,0,0,1-.24-.6A.82.82,0,0,1,5.79,41a.85.85,0,0,1,.59.24.83.83,0,0,1,.25.59.84.84,0,0,1-.84.84Z"/><path class="cls-22" d="M11.23,43.62h-.15l-2.95-.52a.84.84,0,0,1,.29-1.65l2.95.52a.84.84,0,0,1-.14,1.66Z"/><path class="cls-23" d="M17.61,44.74h-.15l-3.73-.66A.83.83,0,1,1,14,42.43l3.73.65a.84.84,0,0,1,.68,1A.83.83,0,0,1,17.61,44.74Z"/><path class="cls-24" d="M5.8,59.88a.84.84,0,0,1-.14-1.66l.71-.13a.84.84,0,1,1,.29,1.65L6,59.86Z"/><path class="cls-25" d="M9.15,59.29A.84.84,0,0,1,9,57.63l1.76-.31A.83.83,0,1,1,11.06,59l-1.76.31Z"/><path class="cls-26" d="M13.45,58.53a.84.84,0,0,1-.15-1.66l4.17-.73a.83.83,0,1,1,.29,1.64l-4.17.74Z"/><path class="cls-27" d="M103.44,59.83h-.14l-.3,0a.84.84,0,1,1,.29-1.65l.3.05a.84.84,0,0,1-.15,1.66Z"/><path class="cls-28" d="M100.64,59.34l-.15,0L98,58.89a.84.84,0,0,1,.3-1.65l2.45.44a.84.84,0,0,1-.14,1.66Z"/><path class="cls-29" d="M96.13,58.54H96l-4.51-.79a.84.84,0,0,1-.67-1,.83.83,0,0,1,1-.68l4.51.79a.84.84,0,0,1-.15,1.66Z"/><path class="cls-30" d="M103.43,42.62a.83.83,0,0,1-.59-.25.87.87,0,0,1-.24-.59.85.85,0,0,1,.24-.59.83.83,0,0,1,.59-.25.84.84,0,0,1,.84.84.87.87,0,0,1-.24.59A.86.86,0,0,1,103.43,42.62Z"/><path class="cls-31" d="M98.27,43.53a.84.84,0,0,1-.14-1.66l2.4-.43a.84.84,0,0,1,.29,1.65l-2.4.42Z"/><path class="cls-32" d="M91.62,44.7A.84.84,0,0,1,91.48,43l4.72-.83a.83.83,0,1,1,.29,1.64l-4.72.84Z"/><path class="cls-33" d="M97.07,26.71a.85.85,0,0,1-.73-.42.84.84,0,0,1,.31-1.14l.47-.27A.84.84,0,0,1,98,26.33l-.48.27A.77.77,0,0,1,97.07,26.71Z"/><path class="cls-34" d="M92.93,29.1a.82.82,0,0,1-.72-.42.83.83,0,0,1,.3-1.14l2.33-1.34a.83.83,0,0,1,.84,1.44L93.35,29A.88.88,0,0,1,92.93,29.1Z"/><path class="cls-35" d="M87.15,32.44a.82.82,0,0,1-.72-.42.83.83,0,0,1,.3-1.14l4-2.32A.84.84,0,0,1,91.58,30l-4,2.32A.91.91,0,0,1,87.15,32.44Z"/><path class="cls-36" d="M86.47,13.26a.86.86,0,0,1-.6-.25.87.87,0,0,1-.24-.59.84.84,0,0,1,.84-.84.83.83,0,0,1,.59.25.85.85,0,0,1,.24.59.87.87,0,0,1-.24.59A.83.83,0,0,1,86.47,13.26Z"/><path class="cls-37" d="M83,17.39a.8.8,0,0,1-.53-.19.83.83,0,0,1-.1-1.18l1.23-1.47a.84.84,0,1,1,1.28,1.08L83.63,17.1A.84.84,0,0,1,83,17.39Z"/><path class="cls-38" d="M80.21,20.71a.85.85,0,0,1-.64-1.38l.79-.94a.84.84,0,0,1,1.28,1.08l-.78.94A.88.88,0,0,1,80.21,20.71Z"/><path class="cls-39" d="M78.75,22.45a.85.85,0,0,1-.64-1.38l1.46-1.74a.84.84,0,0,1,1.29,1.08L79.4,22.15A.88.88,0,0,1,78.75,22.45Z"/><path class="cls-40" d="M71.55,4.65a.82.82,0,0,1-.83-.83A.85.85,0,0,1,71,3.23.83.83,0,0,1,71.55,3a.85.85,0,0,1,.84.84.83.83,0,0,1-.25.59A.85.85,0,0,1,71.55,4.65Z"/><path class="cls-41" d="M69.75,9.61a.74.74,0,0,1-.29,0A.83.83,0,0,1,69,8.49l.77-2.13a.84.84,0,0,1,1.57.57l-.77,2.13A.83.83,0,0,1,69.75,9.61Z"/><path class="cls-42" d="M67.88,14.74a.92.92,0,0,1-.28-.05.84.84,0,0,1-.51-1.07l1.09-3a.83.83,0,1,1,1.57.56l-1.08,3A.85.85,0,0,1,67.88,14.74Z"/><path class="cls-43" d="M67.45,15.93a1,1,0,0,1-.29,0,.85.85,0,0,1-.5-1.08l.43-1.18a.84.84,0,0,1,1.08-.5.85.85,0,0,1,.5,1.07l-.44,1.19A.83.83,0,0,1,67.45,15.93Z"/><path class="cls-44" d="M54.6,1.67a.89.89,0,0,1-.6-.24.87.87,0,0,1-.24-.59A.89.89,0,0,1,54,.24.89.89,0,0,1,54.6,0a.87.87,0,0,1,.59.24.89.89,0,0,1,.24.6.87.87,0,0,1-.24.59A.87.87,0,0,1,54.6,1.67Z"/><path class="cls-45" d="M54.6,6.14h0a.84.84,0,0,1-.82-.85l0-1.67a.83.83,0,0,1,.84-.82h0a.84.84,0,0,1,.82.85l0,1.67A.83.83,0,0,1,54.6,6.14Z"/><path class="cls-46" d="M54.6,13.67h0a.84.84,0,0,1-.83-.84l0-4.21a.84.84,0,1,1,1.67,0l0,4.21A.83.83,0,0,1,54.6,13.67Z"/><path class="cls-47" d="M96.67,12a.29.29,0,0,0,.44,0,.3.3,0,0,0,0-.43l-1-1a.31.31,0,1,0-.44.44Z"/><path class="cls-48" d="M96.78,12.84a.31.31,0,0,0-.31-.31H95.12a.31.31,0,0,0,0,.62h1.35A.31.31,0,0,0,96.78,12.84Z"/><path class="cls-49" d="M96.71,13.68l-.95,1a.3.3,0,0,0,0,.43.29.29,0,0,0,.44,0l1-1a.31.31,0,1,0-.44-.44Z"/><path class="cls-50" d="M98,14a.31.31,0,0,0-.31.31v1.34a.31.31,0,1,0,.62,0V14.33A.31.31,0,0,0,98,14Z"/><path class="cls-51" d="M99.29,13.65a.3.3,0,0,0-.44,0,.31.31,0,0,0,0,.44l1,.95a.31.31,0,0,0,.44,0,.31.31,0,0,0,0-.44Z"/><path class="cls-52" d="M100.84,12.48H99.49a.31.31,0,1,0,0,.62h1.35a.31.31,0,1,0,0-.62Z"/><path class="cls-53" d="M99,12a.31.31,0,0,0,.22-.09l1-.95a.31.31,0,0,0-.44-.44l-1,.95a.31.31,0,0,0,0,.44A.31.31,0,0,0,99,12Z"/><path class="cls-54" d="M98,11.61a.31.31,0,0,0,.32-.31V10a.32.32,0,0,0-.63,0V11.3A.31.31,0,0,0,98,11.61Z"/><path class="cls-55" d="M32.2,8.61a.24.24,0,0,0,.18.07.23.23,0,0,0,.17-.07.25.25,0,0,0,0-.36l-.77-.77a.24.24,0,0,0-.35,0,.25.25,0,0,0,0,.36Z"/><path class="cls-56" d="M32.28,9.3A.25.25,0,0,0,32,9.05H30.94a.25.25,0,0,0,0,.5H32A.25.25,0,0,0,32.28,9.3Z"/><path class="cls-57" d="M32.23,10l-.77.77a.25.25,0,0,0,0,.36.24.24,0,0,0,.18.07.22.22,0,0,0,.17-.07l.77-.77a.25.25,0,0,0,0-.36A.24.24,0,0,0,32.23,10Z"/><path class="cls-58" d="M33.28,10.25a.25.25,0,0,0-.25.25v1.09a.25.25,0,1,0,.5,0V10.5A.25.25,0,0,0,33.28,10.25Z"/><path class="cls-59" d="M34.31,10A.24.24,0,0,0,34,10a.25.25,0,0,0,0,.36l.77.77a.24.24,0,0,0,.18.07.22.22,0,0,0,.17-.07.25.25,0,0,0,0-.36Z"/><path class="cls-60" d="M35.57,9H34.48a.25.25,0,0,0,0,.5h1.09a.25.25,0,0,0,0-.5Z"/><path class="cls-61" d="M34.11,8.65a.22.22,0,0,0,.17-.07l.77-.77a.25.25,0,0,0,0-.36.24.24,0,0,0-.35,0l-.77.77a.25.25,0,0,0,0,.36A.24.24,0,0,0,34.11,8.65Z"/><path class="cls-62" d="M33.24,8.31a.26.26,0,0,0,.25-.25V7A.26.26,0,0,0,33,7V8.06A.26.26,0,0,0,33.24,8.31Z"/><path class="cls-63" d="M15.1,15.59a2,2,0,1,1,2-2A2,2,0,0,1,15.1,15.59Zm0-3.46a1.43,1.43,0,1,0,1.43,1.43A1.43,1.43,0,0,0,15.1,12.13Z"/><path class="cls-64" d="M81.28,12.84l-1.55-1.55,1.55-1.55a.35.35,0,0,0-.5-.5l-1.55,1.55L77.68,9.24a.35.35,0,0,0-.5.5l1.55,1.55-1.55,1.55a.35.35,0,0,0,.5.5l1.55-1.55,1.55,1.55a.35.35,0,0,0,.5-.5Z"/><path class="cls-65" d="M10.64,33.3h2.41v2.41a.39.39,0,0,0,.39.39.4.4,0,0,0,.39-.39V33.3h2.41a.4.4,0,0,0,.39-.39.39.39,0,0,0-.39-.39H13.83V30.11a.39.39,0,0,0-.39-.39.38.38,0,0,0-.39.39v2.41H10.64a.39.39,0,0,0-.39.39A.4.4,0,0,0,10.64,33.3Z"/><path class="cls-66" d="M100.57,31.84a.48.48,0,0,0-.68,0l-1.47,1.48a.48.48,0,1,0,.68.68l1.47-1.48A.48.48,0,0,0,100.57,31.84Z"/><path class="cls-67" d="M97.17,35.25a.49.49,0,0,0-.69,0L95,36.73a.48.48,0,1,0,.68.68l1.48-1.48A.5.5,0,0,0,97.17,35.25Z"/><path class="cls-68" d="M99.89,37.41a.48.48,0,0,0,.68-.68L99.1,35.25a.48.48,0,1,0-.68.68Z"/><path class="cls-69" d="M97.17,33.32l-1.48-1.48a.48.48,0,1,0-.68.68L96.48,34a.49.49,0,0,0,.69,0A.5.5,0,0,0,97.17,33.32Z"/><path class="cls-70" d="M24.7,23.73a.52.52,0,0,1-.52.52.52.52,0,0,1,0-1A.52.52,0,0,1,24.7,23.73Z"/><path class="cls-71" d="M89.26,22.92a.52.52,0,0,1-.52.52.52.52,0,0,1-.52-.52.53.53,0,0,1,.52-.52A.52.52,0,0,1,89.26,22.92Z"/><path class="cls-72" d="M49.84,46.61a12.44,12.44,0,0,1-8.77-3.44,12.31,12.31,0,0,1-3.6-8.92V28.44a12.29,12.29,0,0,1,3.6-8.91,12.86,12.86,0,0,1,17.53,0,12.29,12.29,0,0,1,3.6,8.91v5.81a12.31,12.31,0,0,1-3.6,8.92A12.44,12.44,0,0,1,49.84,46.61Zm0-29A10.52,10.52,0,0,0,39,28.44v5.81A10.52,10.52,0,0,0,49.84,45.12,10.51,10.51,0,0,0,60.71,34.25V28.44A10.51,10.51,0,0,0,49.84,17.57Z"/><path class="cls-73" d="M25.9,78.26H24.41v-15c0-9.84,17.94-13.81,25.43-13.81a41.36,41.36,0,0,1,8.87,1.12l-.33,1.46A40.34,40.34,0,0,0,49.84,51a43.19,43.19,0,0,0-15.11,3.16c-7.3,3.07-8.83,6.68-8.83,9.16Z"/><path class="cls-74" d="M73.07,72.75A13.82,13.82,0,1,1,86.88,58.94,13.83,13.83,0,0,1,73.07,72.75Zm0-26.14A12.33,12.33,0,1,0,85.39,58.94,12.33,12.33,0,0,0,73.07,46.61Z"/><rect class="cls-75" x="85.39" y="67.3" width="1.49" height="12.32" transform="translate(-26.71 82.42) rotate(-45)"/><path class="cls-76" d="M77.56,60h-9a.55.55,0,0,1-.55-.55h0a.55.55,0,0,1,.55-.55h9a.55.55,0,0,1,.55.55h0A.55.55,0,0,1,77.56,60Z"/><path class="cls-77" d="M72.53,63.89v-9a.55.55,0,0,1,.55-.56h0a.56.56,0,0,1,.55.56v9a.55.55,0,0,1-.55.55h0A.55.55,0,0,1,72.53,63.89Z"/></g></g></svg>