<svg xmlns="http://www.w3.org/2000/svg" viewBox="0 0 45.52 50.18"><defs><style>.cls-1{fill:#fff;fill-rule:evenodd;}</style></defs><title>logo-white</title><g id="Layer_2" data-name="Layer 2"><g id="Layer_1-2" data-name="Layer 1"><path id="_Path_" data-name="&lt;Path&gt;" class="cls-1" d="M29.06,13.67a5.83,5.83,0,0,0-1.55.19,3.92,3.92,0,0,0-3.11,3.55,3.71,3.71,0,0,0,2.11,3.93c.69.39,1.43.69,2.15,1a4.44,4.44,0,0,1,1.39.86,1.37,1.37,0,0,1-.22,2.07,3.11,3.11,0,0,1-4.28-1.42,4.41,4.41,0,0,0-.53-1,.65.65,0,0,0-.66-.25c-.3.05-.4.28-.47.52a4.33,4.33,0,0,0,2.25,5,5.8,5.8,0,0,0,4.08.32A4.33,4.33,0,0,0,33.67,25a4.07,4.07,0,0,0-2.1-4.48c-.8-.5-1.65-.9-2.49-1.34a6.46,6.46,0,0,1-1.38-.88,1.11,1.11,0,0,1-.45-1.11c.11-.48.52-.65.94-.75a2.69,2.69,0,0,1,2.64.82c.78.77,1.43.81,2,.11s.87-1.67.05-2.37A5.83,5.83,0,0,0,29.06,13.67Z"/><path id="_Path_2" data-name="&lt;Path&gt;" class="cls-1" d="M35.38,45.68a3.75,3.75,0,0,0,2.4,4,5.74,5.74,0,0,0,5.31-.28,4.33,4.33,0,0,0,1.8-5.56,5.67,5.67,0,0,0-2.6-2.38,23.9,23.9,0,0,1-2.94-1.6,1.24,1.24,0,0,1-.58-1.28c.11-.55.6-.6,1-.71a2.64,2.64,0,0,1,2.62.88c.65.63,1.17.68,1.72.26a1.64,1.64,0,0,0,.06-2.72,5.71,5.71,0,0,0-4.72-1.08A4.07,4.07,0,0,0,36,40a3.77,3.77,0,0,0,2.28,2.84c.93.48,1.9.88,2.82,1.36a1.35,1.35,0,0,1,.87,1.43A1.51,1.51,0,0,1,40.73,47a3.11,3.11,0,0,1-3.64-1.61,9.11,9.11,0,0,0-.51-1,.64.64,0,0,0-.71-.32.62.62,0,0,0-.48.59A9.2,9.2,0,0,0,35.38,45.68Z"/><path id="_Path_3" data-name="&lt;Path&gt;" class="cls-1" d="M45.51,16.23c0-.42,0-.84,0-1.27A1,1,0,0,0,45,14a2,2,0,0,0-1.92-.09,1.57,1.57,0,0,0-.82,1.49,7.77,7.77,0,0,0,.08,1A7.54,7.54,0,0,1,42,20.07c-.16.44-.3,1-.83,1.07s-.8-.4-1.1-.76a7.08,7.08,0,0,1-1.47-4.8c0-1.05-.31-1.42-1.34-1.63a5.59,5.59,0,0,0-.59-.08c-1.26,0-1.76.42-1.68,1.67a16.17,16.17,0,0,0,.6,2.91,7.22,7.22,0,0,0,2.14,3.68,7.53,7.53,0,0,1,1,1.1c.47.64.33,1.09-.43,1.37a7.13,7.13,0,0,1-2.05.32c-.82.06-1.16.45-1.24,1.39-.13,1.42.15,2.25.88,2.45a2.35,2.35,0,0,0,1.26-.05,6.19,6.19,0,0,0,1.43-.6C43.17,25.45,45.23,21.35,45.51,16.23Z"/><path id="_Path_4" data-name="&lt;Path&gt;" class="cls-1" d="M23.5,40.81a7.79,7.79,0,0,1,0-1.93,1.15,1.15,0,0,1,1.49-1c.41.07.82.09,1.06-.33a1.67,1.67,0,0,0-.09-1.7.94.94,0,0,0-1.24-.36c-.32.1-.65.11-.8-.31A1.17,1.17,0,0,1,25,33.69a.9.9,0,0,0,.71-.13,2.64,2.64,0,0,0,.46-2.25c-.24-.72-.85-.76-1.46-.76A3.7,3.7,0,0,0,20.9,34c-.15.82-.45,1.38-1.34,1.55a1.37,1.37,0,0,0-1.11,1.17c-.18.83.08,1.16.93,1.09a.9.9,0,0,1,1,.77,5.14,5.14,0,0,1,.06,1.11c-.05,2.61-.14,5.22-.16,7.83,0,1.93.64,2.54,2.56,2.53,1.19,0,1.51-.41,1.38-1.63C24,45.86,23.63,43.34,23.5,40.81Z"/><path id="_Path_5" data-name="&lt;Path&gt;" class="cls-1" d="M28.45,42.38a55,55,0,0,0,.22,5.74c0,.73,0,1.6.81,1.94a2.37,2.37,0,0,0,2.23-.54c.12-.08.22-.2.33-.29a1.3,1.3,0,0,0,.35-1.68c-1.21-2.69-1-5.54-.86-8.36,0-1,.26-1.65,1.76-1.27.62.16.82-.12.86-.66a5.86,5.86,0,0,0,0-.59c0-1.1-.25-1.32-1.34-1.19-.71.09-1-.21-.74-.91.16-.49.43-1,.58-1.45.21-.68-.11-1-.83-1a2.68,2.68,0,0,0-2.66,2.27,4.17,4.17,0,0,1-.25.78.57.57,0,0,1-.6.34c-1.22,0-1.62.26-1.87,1.39-.16.75.2,1.15,1,1.09,1-.09,1.26.14,1.2,1.2S28.5,41.32,28.45,42.38Z"/><path id="_Path_6" data-name="&lt;Path&gt;" class="cls-1" d="M13.4,42.12c0,1.14,0,2,0,2.78a31.29,31.29,0,0,0,.14,3.87c.12.94.24,1.06,1.15,1.06.5,0,1,0,1.49,0,1.12,0,1.27-.17,1.05-1.27a43.74,43.74,0,0,1-.71-6.36,32.87,32.87,0,0,1,.19-6c.09-.61-.09-.88-.74-.83a11.76,11.76,0,0,1-1.57,0,.58.58,0,0,0-.7.51c-.07.31-.12.63-.16,1A50.92,50.92,0,0,0,13.4,42.12Z"/><path id="_Path_7" data-name="&lt;Path&gt;" class="cls-1" d="M15.38,33.72a1.57,1.57,0,0,0,1.75-1.52,1.61,1.61,0,0,0-1.73-1.56,1.62,1.62,0,0,0-1.75,1.55A1.54,1.54,0,0,0,15.38,33.72Z"/><path id="_Path_8" data-name="&lt;Path&gt;" class="cls-1" d="M29.06,13.67A5.83,5.83,0,0,1,32.85,15c.82.7.6,1.54-.05,2.37s-1.19.66-2-.11a2.69,2.69,0,0,0-2.64-.82c-.42.1-.83.27-.94.75a1.11,1.11,0,0,0,.45,1.11,6.46,6.46,0,0,0,1.38.88c.84.44,1.69.84,2.49,1.34A4.07,4.07,0,0,1,33.67,25a4.33,4.33,0,0,1-3.45,3.51,5.8,5.8,0,0,1-4.08-.32,4.33,4.33,0,0,1-2.25-5c.07-.24.17-.47.47-.52a.65.65,0,0,1,.66.25,4.41,4.41,0,0,1,.53,1,3.11,3.11,0,0,0,4.28,1.42,1.37,1.37,0,0,0,.22-2.07,4.44,4.44,0,0,0-1.39-.86c-.72-.33-1.46-.63-2.15-1a3.71,3.71,0,0,1-2.11-3.93,3.92,3.92,0,0,1,3.11-3.55A5.83,5.83,0,0,1,29.06,13.67Z"/><path id="_Path_9" data-name="&lt;Path&gt;" class="cls-1" d="M35.38,45.68a9.2,9.2,0,0,1,0-1,.62.62,0,0,1,.48-.59.64.64,0,0,1,.71.32,9.11,9.11,0,0,1,.51,1A3.11,3.11,0,0,0,40.73,47a1.51,1.51,0,0,0,1.19-1.28,1.35,1.35,0,0,0-.87-1.43c-.92-.48-1.89-.88-2.82-1.36A3.77,3.77,0,0,1,36,40a4.07,4.07,0,0,1,3.51-4.85,5.71,5.71,0,0,1,4.72,1.08A1.64,1.64,0,0,1,44.12,39c-.55.42-1.07.37-1.72-.26a2.64,2.64,0,0,0-2.62-.88c-.41.11-.9.16-1,.71a1.24,1.24,0,0,0,.58,1.28,23.9,23.9,0,0,0,2.94,1.6,5.67,5.67,0,0,1,2.6,2.38,4.33,4.33,0,0,1-1.8,5.56,5.74,5.74,0,0,1-5.31.28A3.75,3.75,0,0,1,35.38,45.68Z"/><path id="_Path_10" data-name="&lt;Path&gt;" class="cls-1" d="M45.51,16.23c-.28,5.12-2.34,9.22-6.88,11.88a6.19,6.19,0,0,1-1.43.6,2.35,2.35,0,0,1-1.26.05c-.73-.2-1-1-.88-2.45.08-.94.42-1.33,1.24-1.39a7.13,7.13,0,0,0,2.05-.32c.76-.28.9-.73.43-1.37a7.53,7.53,0,0,0-1-1.1,7.22,7.22,0,0,1-2.14-3.68,16.17,16.17,0,0,1-.6-2.91c-.08-1.25.42-1.72,1.68-1.67a5.59,5.59,0,0,1,.59.08c1,.21,1.36.58,1.34,1.63a7.08,7.08,0,0,0,1.47,4.8c.3.36.55.86,1.1.76s.67-.63.83-1.07a7.54,7.54,0,0,0,.29-3.68,7.77,7.77,0,0,1-.08-1,1.57,1.57,0,0,1,.82-1.49A2,2,0,0,1,45,14a1,1,0,0,1,.52.93C45.52,15.39,45.51,15.81,45.51,16.23Z"/><path id="_Path_11" data-name="&lt;Path&gt;" class="cls-1" d="M23.5,40.81c.13,2.53.46,5,.74,7.57.13,1.22-.19,1.62-1.38,1.63-1.92,0-2.57-.6-2.56-2.53,0-2.61.11-5.22.16-7.83a5.14,5.14,0,0,0-.06-1.11.9.9,0,0,0-1-.77c-.85.07-1.11-.26-.93-1.09a1.37,1.37,0,0,1,1.11-1.17c.89-.17,1.19-.73,1.34-1.55a3.7,3.7,0,0,1,3.84-3.41c.61,0,1.22,0,1.46.76a2.64,2.64,0,0,1-.46,2.25.9.9,0,0,1-.71.13,1.17,1.17,0,0,0-1.1,1.47c.15.42.48.41.8.31a.94.94,0,0,1,1.24.36,1.67,1.67,0,0,1,.09,1.7c-.24.42-.65.4-1.06.33a1.15,1.15,0,0,0-1.49,1A7.79,7.79,0,0,0,23.5,40.81Z"/><path id="_Path_12" data-name="&lt;Path&gt;" class="cls-1" d="M28.45,42.38c.05-1.06.11-2.13.16-3.2s-.16-1.29-1.2-1.2c-.76.06-1.12-.34-1-1.09.25-1.13.65-1.43,1.87-1.39a.57.57,0,0,0,.6-.34,4.17,4.17,0,0,0,.25-.78,2.68,2.68,0,0,1,2.66-2.27c.72,0,1,.33.83,1-.15.5-.42,1-.58,1.45-.22.7,0,1,.74.91,1.09-.13,1.33.09,1.34,1.19a5.86,5.86,0,0,1,0,.59c0,.54-.24.82-.86.66-1.5-.38-1.73.31-1.76,1.27-.11,2.82-.35,5.67.86,8.36A1.3,1.3,0,0,1,32,49.23c-.11.09-.21.21-.33.29a2.37,2.37,0,0,1-2.23.54c-.82-.34-.78-1.21-.81-1.94A55,55,0,0,1,28.45,42.38Z"/><path id="_Path_13" data-name="&lt;Path&gt;" class="cls-1" d="M13.4,42.12a50.92,50.92,0,0,1,.14-5.27c0-.32.09-.64.16-1a.58.58,0,0,1,.7-.51,11.76,11.76,0,0,0,1.57,0c.65-.05.83.22.74.83a32.87,32.87,0,0,0-.19,6,43.74,43.74,0,0,0,.71,6.36c.22,1.1.07,1.27-1.05,1.27-.5,0-1,0-1.49,0-.91,0-1-.12-1.15-1.06a31.29,31.29,0,0,1-.14-3.87C13.39,44.08,13.4,43.26,13.4,42.12Z"/><path id="_Path_14" data-name="&lt;Path&gt;" class="cls-1" d="M15.38,33.72a1.54,1.54,0,0,1-1.73-1.53,1.62,1.62,0,0,1,1.75-1.55,1.61,1.61,0,0,1,1.73,1.56A1.57,1.57,0,0,1,15.38,33.72Z"/><path id="_Path_15" data-name="&lt;Path&gt;" class="cls-1" d="M21.94,25a.23.23,0,0,1,0-.14A.31.31,0,0,1,22,25Z"/><path class="cls-1" d="M11.34,35.56c.75-.2.92-.6.53-1.26-.77-1.32-2-1.41-2.87-.17a1.91,1.91,0,0,1-2.2,1,2.91,2.91,0,0,0-.59,0c-1.73,0-3.3.46-4.17,2.09a5.07,5.07,0,0,0,.11,5.23c.26.45.85.79.78,1.31s-.79.67-1.21,1A3,3,0,0,0,.57,48,2.75,2.75,0,0,0,3.05,50.1a5.56,5.56,0,0,0,3.18-.59,3,3,0,0,1,3.34.2c.63.5,1.16.31,1.51-.42s.82-1.75.35-2.56a2.78,2.78,0,0,0-2.51-1,3.8,3.8,0,0,0-.59.06,30.42,30.42,0,0,0-3.66,1c-.46.11-.87.06-1.07-.42s.15-.74.48-1a4.26,4.26,0,0,1,2.26-.66,4.86,4.86,0,0,0,4.21-7.21C9.73,36,9.73,36,11.34,35.56Zm-5.1,6.22a2.08,2.08,0,0,1-2.13-2.34,2,2,0,0,1,2.17-2.15,2.25,2.25,0,0,1,0,4.49Z"/><path class="cls-1" d="M10.25,23.29a.87.87,0,0,0-1,.4,4.39,4.39,0,0,0-.58.78c-.75,1.49-3.83,1.36-4.75.45a1.21,1.21,0,0,1,.19-2,15.75,15.75,0,0,1,2.84-1.1,6.06,6.06,0,0,0,2.84-1.67,2.1,2.1,0,0,1,.13-.26,3.75,3.75,0,0,0-1.23-5.56,5.33,5.33,0,0,0-6.78,1.5c-.09.11-.21.21-.29.33A10.3,10.3,0,0,0,.47,24.76a5.27,5.27,0,0,0,6.47,3.86,4.42,4.42,0,0,0,3.74-4.3C10.7,23.92,10.69,23.47,10.25,23.29Zm-7.13-4.1a4.53,4.53,0,0,1,1-2.11,2.27,2.27,0,0,1,3.14-.17,1.13,1.13,0,0,1,0,1.84A11.89,11.89,0,0,1,3.92,20C3.22,20.12,3,19.89,3.12,19.19Z"/><path class="cls-1" d="M21.94,25.34V25a.23.23,0,0,1,0-.14c0-.59-.14-1.18-.14-1.76,0-1.54,0-3.07-.15-4.6-.35-3.47-2.56-5.21-6-4.81a3.3,3.3,0,0,0-3.19,3,1.43,1.43,0,0,0,.82,1.6c.73.19,1-.37,1.3-.86A2.22,2.22,0,0,1,18,17a1.24,1.24,0,0,1,.44,1.27c-.12.49-.53.58-1,.68a7.45,7.45,0,0,0-4.24,2.3l.18,0-.18,0A4,4,0,0,0,15,28a16.63,16.63,0,0,0,6.52.16.56.56,0,0,0,.52-.62A9.27,9.27,0,0,0,21.94,25.34Zm-3.17-1.4c-.06.62.09,1.33-.67,1.66A2.47,2.47,0,0,1,15.64,25a1.94,1.94,0,0,1-.29-2.14c.09-.2.2-.39.31-.59a5.15,5.15,0,0,1-1-.58,5.15,5.15,0,0,0,1,.58,3.61,3.61,0,0,1,1.73-1c1-.15,1.36.17,1.38,1.14,0,.47,0,.94,0,1.41C18.78,23.89,18.77,23.91,18.77,23.94Z"/><path class="cls-1" d="M23.1,7.66A17.5,17.5,0,0,1,25.51,3a9.85,9.85,0,0,1,1.54-1.62,4.79,4.79,0,0,1,7.14.55,9.46,9.46,0,0,1,2.31,5,3.51,3.51,0,0,1-2.3,4A16.91,16.91,0,0,1,27.84,12a94.77,94.77,0,0,1-11.18-.12,14.69,14.69,0,0,1-4.3-.87c-2.24-.9-3-2.37-2.54-4.72A8.78,8.78,0,0,1,12.9,1.09,4.53,4.53,0,0,1,18.57.91a10.27,10.27,0,0,1,3.65,4.7C22.5,6.29,22.84,6.94,23.1,7.66Zm4.18,1.73a18.16,18.16,0,0,0,5.58-.8c1-.38,1.2-.78.93-1.84A7.51,7.51,0,0,0,32.44,4c-1.26-1.58-2.5-1.7-4-.33a9.92,9.92,0,0,0-2.54,4.21c-.55,1.63-.55,1.63,1.13,1.56Zm-8.82,0c2.43,0,2.43,0,1.7-1.91,0-.09-.06-.19-.1-.28a8.6,8.6,0,0,0-3-4.08,1.93,1.93,0,0,0-2.71.2,6.46,6.46,0,0,0-1.84,3.08c-.44,1.5-.2,2,1.32,2.37A19.51,19.51,0,0,0,18.46,9.38Z"/></g></g></svg>