<svg xmlns="http://www.w3.org/2000/svg" xmlns:xlink="http://www.w3.org/1999/xlink" viewBox="0 0 88.08 97.1"><defs><style>.cls-1,.cls-10,.cls-11,.cls-12,.cls-2,.cls-3,.cls-4,.cls-5,.cls-6,.cls-7,.cls-8,.cls-9{fill-rule:evenodd;}.cls-1{fill:url(#linear-gradient);}.cls-2{fill:url(#linear-gradient-2);}.cls-3{fill:url(#linear-gradient-3);}.cls-4{fill:url(#linear-gradient-4);}.cls-5{fill:url(#linear-gradient-5);}.cls-6{fill:url(#linear-gradient-6);}.cls-7{fill:url(#linear-gradient-7);}.cls-8{fill:url(#linear-gradient-15);}.cls-9{fill:url(#linear-gradient-16);}.cls-10{fill:url(#linear-gradient-17);}.cls-11{fill:url(#linear-gradient-18);}.cls-12{fill:url(#linear-gradient-19);}</style><linearGradient id="linear-gradient" x1="13.71" y1="88.72" x2="79.55" y2="14.45" gradientUnits="userSpaceOnUse"><stop offset="0" stop-color="#e62b77"/><stop offset="1" stop-color="#473584"/></linearGradient><linearGradient id="linear-gradient-2" x1="46.75" y1="118.01" x2="112.6" y2="43.74" xlink:href="#linear-gradient"/><linearGradient id="linear-gradient-3" x1="22.94" y1="96.9" x2="88.78" y2="22.63" xlink:href="#linear-gradient"/><linearGradient id="linear-gradient-4" x1="25.96" y1="99.58" x2="91.8" y2="25.31" xlink:href="#linear-gradient"/><linearGradient id="linear-gradient-5" x1="34.8" y1="107.42" x2="100.64" y2="33.14" xlink:href="#linear-gradient"/><linearGradient id="linear-gradient-6" x1="19.73" y1="94.06" x2="85.57" y2="19.78" xlink:href="#linear-gradient"/><linearGradient id="linear-gradient-7" x1="9.6" y1="85.08" x2="75.44" y2="10.8" xlink:href="#linear-gradient"/><linearGradient id="linear-gradient-15" x1="9.7" y1="85.23" x2="75.61" y2="10.88" xlink:href="#linear-gradient"/><linearGradient id="linear-gradient-16" x1="10.61" y1="85.97" x2="76.45" y2="11.7" xlink:href="#linear-gradient"/><linearGradient id="linear-gradient-17" x1="-11.18" y1="66.66" x2="54.67" y2="-7.61" xlink:href="#linear-gradient"/><linearGradient id="linear-gradient-18" x1="1.58" y1="77.97" x2="67.43" y2="3.7" xlink:href="#linear-gradient"/><linearGradient id="linear-gradient-19" x1="-6.52" y1="70.79" x2="59.32" y2="-3.49" xlink:href="#linear-gradient"/></defs><title>logo</title><g id="Layer_2" data-name="Layer 2"><g id="Layer_1-2" data-name="Layer 1"><path id="_Path_" data-name="&lt;Path&gt;" class="cls-1" d="M56.24,26.44a12.08,12.08,0,0,0-3,.37,7.61,7.61,0,0,0-6,6.89c-.42,3.22,1,5.85,4.08,7.6,1.34.75,2.77,1.33,4.16,2a8.48,8.48,0,0,1,2.69,1.66,2.64,2.64,0,0,1-.43,4,6,6,0,0,1-8.29-2.74,7.87,7.87,0,0,0-1-1.9,1.3,1.3,0,0,0-1.29-.48c-.57.09-.77.53-.91,1a8.36,8.36,0,0,0,4.37,9.73,11.23,11.23,0,0,0,7.88.63c3.54-1,6-3.1,6.67-6.8s-.82-6.69-4-8.67c-1.56-1-3.21-1.74-4.83-2.59a12.41,12.41,0,0,1-2.67-1.69,2.2,2.2,0,0,1-.88-2.16c.22-.93,1-1.25,1.82-1.44a5.22,5.22,0,0,1,5.12,1.58c1.51,1.48,2.76,1.56,3.82.21,1.25-1.61,1.68-3.23.08-4.58A11.26,11.26,0,0,0,56.24,26.44Z"/><path id="_Path_2" data-name="&lt;Path&gt;" class="cls-2" d="M68.46,88.38a7.28,7.28,0,0,0,4.64,7.71,11.07,11.07,0,0,0,10.28-.54,8.39,8.39,0,0,0,3.48-10.76c-1-2.19-3-3.46-5-4.6s-4-1.78-5.69-3.1A2.39,2.39,0,0,1,75,74.61c.22-1.06,1.17-1.16,2-1.36,2-.53,3.64.31,5.07,1.69,1.26,1.22,2.25,1.32,3.32.51a3.17,3.17,0,0,0,.12-5.26,11.08,11.08,0,0,0-9.13-2.1c-4.83.89-7.46,4.54-6.79,9.38.37,2.69,2.14,4.34,4.41,5.51,1.8.92,3.67,1.69,5.46,2.62a2.64,2.64,0,0,1,1.68,2.77,3,3,0,0,1-2.31,2.48,6,6,0,0,1-7-3.11c-.31-.65-.63-1.3-1-1.91a1.24,1.24,0,0,0-1.36-.61,1.19,1.19,0,0,0-.94,1.15A16.83,16.83,0,0,0,68.46,88.38Z"/><path id="_Path_3" data-name="&lt;Path&gt;" class="cls-3" d="M88.07,31.41c0-.82,0-1.64,0-2.46a2,2,0,0,0-1-1.81A3.82,3.82,0,0,0,83.34,27a3,3,0,0,0-1.58,2.88,11.79,11.79,0,0,0,.15,1.87,14.83,14.83,0,0,1-.56,7.12c-.31.84-.59,1.88-1.6,2.06s-1.56-.76-2.13-1.47a13.71,13.71,0,0,1-2.85-9.28c0-2-.59-2.75-2.59-3.15A7.42,7.42,0,0,0,71,26.85c-2.45-.12-3.42.8-3.25,3.22a31.08,31.08,0,0,0,1.15,5.63,13.93,13.93,0,0,0,4.15,7.13,15,15,0,0,1,2,2.11c.92,1.25.63,2.12-.83,2.67a14.36,14.36,0,0,1-4,.61c-1.59.12-2.24.88-2.4,2.68-.26,2.76.3,4.37,1.71,4.75A4.53,4.53,0,0,0,72,55.56a11.61,11.61,0,0,0,2.79-1.17C83.53,49.24,87.52,41.31,88.07,31.41Z"/><path id="_Path_4" data-name="&lt;Path&gt;" class="cls-4" d="M45.48,79a14.63,14.63,0,0,1,0-3.74,2.21,2.21,0,0,1,2.87-2c.8.13,1.6.18,2.05-.63a3.27,3.27,0,0,0-.17-3.31,1.82,1.82,0,0,0-2.4-.69c-.62.2-1.26.22-1.54-.59a2.24,2.24,0,0,1,2.12-2.84,1.79,1.79,0,0,0,1.37-.26c.83-.66,1.32-3,.89-4.35s-1.64-1.48-2.82-1.48c-4,0-6.66,2.33-7.44,6.6-.28,1.58-.85,2.68-2.58,3A2.66,2.66,0,0,0,35.7,71c-.35,1.6.16,2.25,1.81,2.12a1.72,1.72,0,0,1,2,1.49,9,9,0,0,1,.12,2.15c-.1,5-.27,10.09-.31,15.14,0,3.74,1.24,4.91,5,4.89,2.3,0,2.92-.79,2.66-3.15C46.37,88.73,45.72,83.87,45.48,79Z"/><path id="_Path_5" data-name="&lt;Path&gt;" class="cls-5" d="M55.05,82c-.19,3.71.24,7.4.42,11.1.07,1.41,0,3.1,1.58,3.76s3-.2,4.3-1c.24-.16.43-.39.65-.57A2.52,2.52,0,0,0,62.68,92C60.33,86.81,60.8,81.29,61,75.83c.07-1.86.51-3.19,3.41-2.45,1.2.3,1.6-.23,1.68-1.28a11,11,0,0,0,0-1.15c0-2.13-.48-2.54-2.59-2.29-1.37.16-1.86-.41-1.43-1.77.31-1,.83-1.84,1.13-2.8.4-1.32-.23-2-1.62-2a5.22,5.22,0,0,0-5.15,4.41A7.5,7.5,0,0,1,56,68a1.1,1.1,0,0,1-1.17.66c-2.36-.08-3.12.51-3.6,2.69-.32,1.45.37,2.24,1.85,2.11,2-.17,2.43.26,2.33,2.33S55.15,80,55.05,82Z"/><path id="_Path_6" data-name="&lt;Path&gt;" class="cls-6" d="M25.92,81.51c0,2.19,0,3.78,0,5.37a64.58,64.58,0,0,0,.27,7.49c.24,1.81.47,2,2.24,2.06h2.88c2.17,0,2.45-.34,2-2.46A82.11,82.11,0,0,1,32,81.66a64.28,64.28,0,0,1,.37-11.52c.17-1.17-.18-1.7-1.43-1.61a21.87,21.87,0,0,1-3,0,1.14,1.14,0,0,0-1.35,1,16.6,16.6,0,0,0-.31,1.85C25.82,74.9,26,78.51,25.92,81.51Z"/><path id="_Path_7" data-name="&lt;Path&gt;" class="cls-7" d="M29.76,65.25c2,0,3.41-1.23,3.39-2.94a3.13,3.13,0,0,0-3.36-3,3.12,3.12,0,0,0-3.37,3C26.4,64.06,27.73,65.24,29.76,65.25Z"/><path id="_Path_8" data-name="&lt;Path&gt;" class="cls-1" d="M56.24,26.44A11.26,11.26,0,0,1,63.56,29c1.6,1.35,1.17,3-.08,4.58-1.06,1.35-2.31,1.27-3.82-.21a5.22,5.22,0,0,0-5.12-1.58c-.8.19-1.6.51-1.82,1.44a2.2,2.2,0,0,0,.88,2.16,12.41,12.41,0,0,0,2.67,1.69c1.62.85,3.27,1.64,4.83,2.59,3.22,2,4.75,4.88,4,8.67s-3.13,5.84-6.67,6.8a11.23,11.23,0,0,1-7.88-.63,8.36,8.36,0,0,1-4.37-9.73c.14-.47.34-.91.91-1a1.3,1.3,0,0,1,1.29.48,7.87,7.87,0,0,1,1,1.9,6,6,0,0,0,8.29,2.74,2.64,2.64,0,0,0,.43-4,8.48,8.48,0,0,0-2.69-1.66c-1.39-.64-2.82-1.22-4.16-2-3.13-1.75-4.5-4.38-4.08-7.6a7.61,7.61,0,0,1,6-6.89A12.08,12.08,0,0,1,56.24,26.44Z"/><path id="_Path_9" data-name="&lt;Path&gt;" class="cls-2" d="M68.46,88.38a16.83,16.83,0,0,1,0-2,1.19,1.19,0,0,1,.94-1.15,1.24,1.24,0,0,1,1.36.61c.37.61.69,1.26,1,1.91a6,6,0,0,0,7,3.11,3,3,0,0,0,2.31-2.48,2.64,2.64,0,0,0-1.68-2.77C77.65,84.67,75.78,83.9,74,83c-2.27-1.17-4-2.82-4.41-5.51-.67-4.84,2-8.49,6.79-9.38a11.08,11.08,0,0,1,9.13,2.1,3.17,3.17,0,0,1-.12,5.26c-1.07.81-2.06.71-3.32-.51-1.43-1.38-3-2.22-5.07-1.69-.79.2-1.74.3-2,1.36a2.39,2.39,0,0,0,1.13,2.48c1.73,1.32,3.8,2,5.69,3.1s4,2.41,5,4.6a8.39,8.39,0,0,1-3.48,10.76,11.07,11.07,0,0,1-10.28.54A7.28,7.28,0,0,1,68.46,88.38Z"/><path id="_Path_10" data-name="&lt;Path&gt;" class="cls-3" d="M88.07,31.41c-.55,9.9-4.54,17.83-13.31,23A11.61,11.61,0,0,1,72,55.56a4.53,4.53,0,0,1-2.42.09c-1.41-.38-2-2-1.71-4.75.16-1.8.81-2.56,2.4-2.68a14.36,14.36,0,0,0,4-.61c1.46-.55,1.75-1.42.83-2.67a15,15,0,0,0-2-2.11,13.93,13.93,0,0,1-4.15-7.13,31.08,31.08,0,0,1-1.15-5.63c-.17-2.42.8-3.34,3.25-3.22a7.42,7.42,0,0,1,1.14.15c2,.4,2.63,1.12,2.59,3.15a13.71,13.71,0,0,0,2.85,9.28c.57.71,1.07,1.67,2.13,1.47s1.29-1.22,1.6-2.06a14.83,14.83,0,0,0,.56-7.12,11.79,11.79,0,0,1-.15-1.87A3,3,0,0,1,83.34,27a3.82,3.82,0,0,1,3.72.17,2,2,0,0,1,1,1.81C88.09,29.77,88.07,30.59,88.07,31.41Z"/><path id="_Path_11" data-name="&lt;Path&gt;" class="cls-4" d="M45.48,79c.24,4.9.89,9.76,1.42,14.64.26,2.36-.36,3.14-2.66,3.15-3.72,0-5-1.15-5-4.89,0-5.05.21-10.1.31-15.14a9,9,0,0,0-.12-2.15,1.72,1.72,0,0,0-2-1.49c-1.65.13-2.16-.52-1.81-2.12a2.66,2.66,0,0,1,2.15-2.26c1.73-.32,2.3-1.42,2.58-3,.78-4.27,3.45-6.6,7.44-6.6,1.18,0,2.36.08,2.82,1.48s-.06,3.69-.89,4.35a1.79,1.79,0,0,1-1.37.26A2.24,2.24,0,0,0,46.31,68c.28.81.92.79,1.54.59a1.82,1.82,0,0,1,2.4.69,3.27,3.27,0,0,1,.17,3.31c-.45.81-1.25.76-2.05.63a2.21,2.21,0,0,0-2.87,2A14.63,14.63,0,0,0,45.48,79Z"/><path id="_Path_12" data-name="&lt;Path&gt;" class="cls-5" d="M55.05,82c.1-2.06.21-4.13.32-6.19S55,73.32,53,73.49c-1.48.13-2.17-.66-1.85-2.11.48-2.18,1.24-2.77,3.6-2.69A1.1,1.1,0,0,0,56,68a7.5,7.5,0,0,0,.48-1.5,5.22,5.22,0,0,1,5.15-4.41c1.39-.06,2,.65,1.62,2-.3,1-.82,1.85-1.13,2.8-.43,1.36.06,1.93,1.43,1.77,2.11-.25,2.58.16,2.59,2.29a11,11,0,0,1,0,1.15c-.08,1.05-.48,1.58-1.68,1.28-2.9-.74-3.34.59-3.41,2.45-.2,5.46-.67,11,1.68,16.19A2.52,2.52,0,0,1,62,95.26c-.22.18-.41.41-.65.57-1.32.84-2.74,1.7-4.3,1s-1.51-2.35-1.58-3.76C55.29,89.41,54.86,85.72,55.05,82Z"/><path id="_Path_13" data-name="&lt;Path&gt;" class="cls-6" d="M25.92,81.51c0-3-.1-6.61.29-10.2a16.6,16.6,0,0,1,.31-1.85,1.14,1.14,0,0,1,1.35-1,21.87,21.87,0,0,0,3,0c1.25-.09,1.6.44,1.43,1.61A64.28,64.28,0,0,0,32,81.66,82.11,82.11,0,0,0,33.35,94c.41,2.12.13,2.46-2,2.46H28.43c-1.77,0-2-.25-2.24-2.06a64.58,64.58,0,0,1-.27-7.49C25.91,85.29,25.92,83.7,25.92,81.51Z"/><path id="_Path_14" data-name="&lt;Path&gt;" class="cls-7" d="M29.76,65.25c-2,0-3.36-1.19-3.34-3a3.12,3.12,0,0,1,3.37-3,3.13,3.13,0,0,1,3.36,3C33.17,64,31.74,65.26,29.76,65.25Z"/><path id="_Path_15" data-name="&lt;Path&gt;" class="cls-8" d="M42.46,48.41a.36.36,0,0,1,0-.27,1.11,1.11,0,0,1,.09.19S42.49,48.38,42.46,48.41Z"/><path class="cls-9" d="M21.94,68.81c1.45-.39,1.77-1.15,1-2.44-1.48-2.55-3.9-2.73-5.54-.33-1.07,1.56-2.33,2.37-4.26,1.9a4.9,4.9,0,0,0-1.15,0c-3.35,0-6.38.9-8.06,4a9.83,9.83,0,0,0,.21,10.13c.51.86,1.64,1.53,1.52,2.53s-1.54,1.3-2.35,1.93A5.77,5.77,0,0,0,1.1,93c.61,2.45,2.45,3.57,4.8,4a10.74,10.74,0,0,0,6.15-1.14c2.25-1,4.33-1.33,6.48.38,1.2,1,2.24.59,2.91-.82.74-1.56,1.58-3.39.68-5s-3-1.91-4.86-2a7.48,7.48,0,0,0-1.15.12c-2.46.26-4.7,1.36-7.08,1.93-.89.22-1.67.11-2.06-.81s.29-1.44.93-1.87a8.33,8.33,0,0,1,4.36-1.29c7.35-.41,11.55-7.64,8.15-14C18.83,69.63,18.83,69.63,21.94,68.81Zm-9.87,12c-2.51,0-4.15-1.79-4.11-4.53a3.91,3.91,0,0,1,4.18-4.17,4.36,4.36,0,0,1-.07,8.7Z"/><path class="cls-10" d="M19.84,45.07a1.72,1.72,0,0,0-2,.77,8.44,8.44,0,0,0-1.1,1.51c-1.46,2.88-7.41,2.63-9.21.87a2.34,2.34,0,0,1,.37-3.95c1.69-1.05,3.65-1.43,5.49-2.12,2-.76,4.08-1.46,5.51-3.24a3.44,3.44,0,0,1,.25-.51,7.26,7.26,0,0,0-2.38-10.75A10.29,10.29,0,0,0,3.64,30.56a5.49,5.49,0,0,0-.56.63A20,20,0,0,0,.91,47.91c1.65,5.8,6.57,8.6,12.51,7.47a8.55,8.55,0,0,0,7.24-8.33C20.7,46.28,20.69,45.42,19.84,45.07Zm-13.79-8a8.53,8.53,0,0,1,2-4.07c2.11-1.74,4.5-1.86,6.07-.33,1.24,1.21,1.25,2.29,0,3.56a23.23,23.23,0,0,1-6.61,2.37C6.24,38.93,5.81,38.49,6.05,37.12Z"/><path class="cls-11" d="M42.45,49c0-.21,0-.42,0-.63a.36.36,0,0,1,0-.27c.05-1.14-.28-2.28-.28-3.4,0-3,0-6-.29-8.91-.68-6.7-4.95-10.07-11.66-9.3-3.57.41-5.91,2.6-6.17,5.78-.13,1.52.51,2.81,1.57,3.1,1.43.37,1.95-.71,2.52-1.66A4.29,4.29,0,0,1,34.91,33a2.4,2.4,0,0,1,.86,2.45c-.25,1-1,1.13-1.87,1.32a14.39,14.39,0,0,0-8.21,4.45,2.21,2.21,0,0,1,.35,0,2.21,2.21,0,0,0-.35,0C21.35,45.71,23,52.55,29,54.23c4.15,1.17,8.39.82,12.61.32a1.08,1.08,0,0,0,1-1.2A16.37,16.37,0,0,0,42.45,49Zm-6.14-2.72c-.1,1.2.18,2.58-1.28,3.21a4.81,4.81,0,0,1-4.77-1.18,3.78,3.78,0,0,1-.57-4.14c.19-.39.41-.75.61-1.13A10.16,10.16,0,0,1,28.41,42a10.16,10.16,0,0,0,1.89,1.13,6.8,6.8,0,0,1,3.36-1.84c1.86-.29,2.62.33,2.66,2.2,0,.91,0,1.82,0,2.73Z"/><path class="cls-12" d="M44.69,14.82a34.25,34.25,0,0,1,4.67-9.08,19.19,19.19,0,0,1,3-3.13C57-1.19,62.18-.79,66.16,3.68a18.49,18.49,0,0,1,4.48,9.69c.52,3.48-1.06,6.21-4.47,7.71-3.92,1.72-8.12,2-12.29,2.18A186.17,186.17,0,0,1,32.23,23a28.45,28.45,0,0,1-8.31-1.69C19.58,19.61,18,16.76,19,12.21A16.85,16.85,0,0,1,25,2.12a8.72,8.72,0,0,1,11-.35A19.66,19.66,0,0,1,43,10.86C43.53,12.16,44.19,13.42,44.69,14.82Zm8.1,3.35c3.65-.18,7.32-.26,10.8-1.55,2-.73,2.32-1.51,1.79-3.56a14.5,14.5,0,0,0-2.61-5.42C60.34,4.58,57.94,4.36,55.1,7a19,19,0,0,0-4.93,8.15c-1.05,3.15-1.06,3.15,2.18,3Zm-17.07,0c4.7.09,4.7.09,3.28-3.7-.06-.18-.11-.37-.19-.55-1.3-3.09-2.91-6-5.79-7.9-2-1.31-3.48-1.16-5.22.39a12.45,12.45,0,0,0-3.57,6c-.86,2.9-.39,3.76,2.55,4.59A38.92,38.92,0,0,0,35.72,18.16Z"/></g></g></svg>