<svg xmlns="http://www.w3.org/2000/svg" xmlns:xlink="http://www.w3.org/1999/xlink" viewBox="0 0 404.99 284.76"><defs><style>.cls-1{fill:url(#linear-gradient);}.cls-2{fill:url(#linear-gradient-2);}.cls-3{fill:url(#linear-gradient-3);}</style><linearGradient id="linear-gradient" x1="397.43" y1="18.99" x2="17.43" y2="278.99" gradientUnits="userSpaceOnUse"><stop offset="0" stop-color="#e72e78"/><stop offset="1" stop-color="#473684"/></linearGradient><linearGradient id="linear-gradient-2" x1="425.76" y1="60.39" x2="45.76" y2="320.39" xlink:href="#linear-gradient"/><linearGradient id="linear-gradient-3" x1="392.78" y1="12.19" x2="12.78" y2="272.19" xlink:href="#linear-gradient"/></defs><title>secured_payment</title><g id="Layer_2" data-name="Layer 2"><g id="Layer_1-2" data-name="Layer 1"><path class="cls-1" d="M59.72,237.3h72a11.87,11.87,0,1,0,0-23.73h-72a11.87,11.87,0,0,0,0,23.73Z"/><path class="cls-2" d="M162.13,237.3H207a11.87,11.87,0,1,0,0-23.73H162.13a11.87,11.87,0,1,0,0,23.73Z"/><path class="cls-3" d="M369.4,0H35.6A35.64,35.64,0,0,0,0,35.6V249.17a35.64,35.64,0,0,0,35.6,35.59H369.4A35.63,35.63,0,0,0,405,249.17V35.6A35.63,35.63,0,0,0,369.4,0Zm11.86,249.17A11.87,11.87,0,0,1,369.4,261H35.6a11.88,11.88,0,0,1-11.87-11.86V142.38H381.26Zm0-188.19H23.73V35.6A11.88,11.88,0,0,1,35.6,23.73H369.4A11.88,11.88,0,0,1,381.26,35.6Z"/></g></g></svg>