<svg xmlns="http://www.w3.org/2000/svg" viewBox="0 0 19.47 18.54"><defs><style>.cls-1{fill:#fff;}</style></defs><title>select_the_recipient_icon_light</title><g id="Layer_2" data-name="Layer 2"><g id="Layer_1-2" data-name="Layer 1"><path class="cls-1" d="M9.7,10.41A5.21,5.21,0,1,0,4.49,5.19,5.22,5.22,0,0,0,9.7,10.41Zm0-9A3.84,3.84,0,1,1,5.87,5.19,3.85,3.85,0,0,1,9.7,1.36Z"/><path class="cls-1" d="M.69,18.54H18.78a.68.68,0,0,0,.69-.69,6.55,6.55,0,0,0-6.54-6.53H6.54A6.54,6.54,0,0,0,0,17.85a.68.68,0,0,0,.69.69Zm5.85-5.85h6.39a5.17,5.17,0,0,1,5.12,4.48H1.42a5.19,5.19,0,0,1,5.12-4.48Z"/></g></g></svg>