<svg xmlns="http://www.w3.org/2000/svg" xmlns:xlink="http://www.w3.org/1999/xlink" viewBox="0 0 19.47 18.54"><defs><style>.cls-1{fill:url(#linear-gradient);}.cls-2{fill:url(#linear-gradient-2);}</style><linearGradient id="linear-gradient" x1="4.49" y1="5.2" x2="14.91" y2="5.2" gradientUnits="userSpaceOnUse"><stop offset="0" stop-color="#e62c77"/><stop offset="1" stop-color="#473583"/></linearGradient><linearGradient id="linear-gradient-2" x1="1.23" y1="20.42" x2="17.36" y2="12.16" xlink:href="#linear-gradient"/></defs><title>select_the_recipient_icon</title><g id="Layer_2" data-name="Layer 2"><g id="Layer_1-2" data-name="Layer 1"><path class="cls-1" d="M9.7,10.41A5.21,5.21,0,1,0,4.49,5.19,5.22,5.22,0,0,0,9.7,10.41Zm0-9A3.84,3.84,0,1,1,5.87,5.19,3.85,3.85,0,0,1,9.7,1.36Z"/><path class="cls-2" d="M.69,18.54H18.78a.68.68,0,0,0,.69-.69,6.55,6.55,0,0,0-6.54-6.53H6.54A6.54,6.54,0,0,0,0,17.85a.68.68,0,0,0,.69.69Zm5.85-5.85h6.39a5.17,5.17,0,0,1,5.12,4.48H1.42a5.19,5.19,0,0,1,5.12-4.48Z"/></g></g></svg>