<svg xmlns="http://www.w3.org/2000/svg" xmlns:xlink="http://www.w3.org/1999/xlink" viewBox="0 0 19.06 17.84"><defs><style>.cls-1{fill:url(#linear-gradient);}</style><linearGradient id="linear-gradient" x1="0.02" y1="14.64" x2="18.76" y2="5.05" gradientUnits="userSpaceOnUse"><stop offset="0" stop-color="#e62c77"/><stop offset="1" stop-color="#473583"/></linearGradient></defs><title>select_your_gift_icon</title><g id="Layer_2" data-name="Layer 2"><g id="Layer_1-2" data-name="Layer 1"><path class="cls-1" d="M17.87,4.74H14.1a4.46,4.46,0,0,0,.66-.53,2.5,2.5,0,0,0,0-3.51,2.52,2.52,0,0,0-3.49,0c-.52.52-1.89,2.63-1.7,4H9.49c.19-1.41-1.18-3.52-1.7-4A2.52,2.52,0,0,0,4.3.7a2.51,2.51,0,0,0,0,3.51A5.22,5.22,0,0,0,5,4.74H1.19A1.19,1.19,0,0,0,0,5.93v3a.6.6,0,0,0,.6.6h.59v7.14a1.19,1.19,0,0,0,1.19,1.19h14.3a1.19,1.19,0,0,0,1.19-1.19V9.51h.59a.6.6,0,0,0,.6-.6v-3A1.2,1.2,0,0,0,17.87,4.74Zm-7.08,0c-.28-.28.52-2.35,1.32-3.16a1.32,1.32,0,0,1,1.81,0,1.3,1.3,0,0,1,0,1.83A5.84,5.84,0,0,1,11,4.74.39.39,0,0,1,10.79,4.7ZM5.14,3.37a1.3,1.3,0,0,1,0-1.83,1.28,1.28,0,0,1,1.8,0c.81.81,1.61,2.88,1.33,3.16a.39.39,0,0,1-.22,0A5.8,5.8,0,0,1,5.14,3.37ZM1.19,5.93H8.93V8.32H1.19ZM2.38,9.51H8.93v7.14H2.38Zm14.3,7.14H10.13V9.51h6.55Zm1.19-8.33H10.13V5.93h7.74Z"/></g></g></svg>