<svg xmlns="http://www.w3.org/2000/svg" viewBox="0 0 18.85 17.64"><defs><style>.cls-1{fill:#fff;}</style></defs><title>select_your_gift_icon_light</title><g id="Layer_2" data-name="Layer 2"><g id="Layer_1-2" data-name="Layer 1"><path class="cls-1" d="M17.67,4.69H13.94a4.46,4.46,0,0,0,.66-.53A2.46,2.46,0,0,0,14.6.7a2.49,2.49,0,0,0-3.46,0c-.51.51-1.86,2.59-1.67,4H9.38c.19-1.4-1.17-3.48-1.68-4A2.48,2.48,0,0,0,4.25.7a2.46,2.46,0,0,0,0,3.46,4.89,4.89,0,0,0,.65.53H1.18A1.18,1.18,0,0,0,0,5.87V8.81a.58.58,0,0,0,.59.59h.59v7.07a1.17,1.17,0,0,0,1.18,1.17H16.49a1.17,1.17,0,0,0,1.18-1.17V9.4h.59a.59.59,0,0,0,.59-.59V5.87A1.18,1.18,0,0,0,17.67,4.69Zm-7,0c-.27-.28.51-2.32,1.31-3.12a1.27,1.27,0,1,1,1.78,1.8,5.77,5.77,0,0,1-2.87,1.36A.39.39,0,0,1,10.67,4.65ZM5.08,3.33a1.29,1.29,0,0,1,0-1.8,1.24,1.24,0,0,1,1.79,0c.79.8,1.58,2.84,1.31,3.12a.39.39,0,0,1-.22,0A5.81,5.81,0,0,1,5.08,3.33ZM1.18,5.87H8.83V8.22H1.18ZM2.36,9.4H8.83v7.07H2.36Zm14.13,7.07H10V9.4h6.48Zm1.18-8.25H10V5.87h7.66Z"/></g></g></svg>