<svg xmlns="http://www.w3.org/2000/svg" xmlns:xlink="http://www.w3.org/1999/xlink" viewBox="0 0 187.4 284.76"><defs><style>.cls-1{fill:url(#linear-gradient);}.cls-2{fill:url(#linear-gradient-2);}.cls-3{fill:url(#linear-gradient-3);}.cls-4{fill:url(#linear-gradient-4);}.cls-5{fill:url(#linear-gradient-5);}</style><linearGradient id="linear-gradient" x1="144.96" y1="-10.74" x2="-23.04" y2="257.26" gradientUnits="userSpaceOnUse"><stop offset="0" stop-color="#e72e78"/><stop offset="1" stop-color="#473684"/></linearGradient><linearGradient id="linear-gradient-2" x1="160.97" y1="-0.71" x2="-7.03" y2="267.29" xlink:href="#linear-gradient"/><linearGradient id="linear-gradient-3" x1="177.07" y1="9.38" x2="9.07" y2="277.38" xlink:href="#linear-gradient"/><linearGradient id="linear-gradient-4" x1="191.99" y1="18.74" x2="23.99" y2="286.74" xlink:href="#linear-gradient"/><linearGradient id="linear-gradient-5" x1="177.05" y1="9.42" x2="9.05" y2="277.42" xlink:href="#linear-gradient"/></defs><title>simple_interfaces_icon</title><g id="Layer_2" data-name="Layer 2"><g id="Layer_1-2" data-name="Layer 1"><path class="cls-1" d="M57.71,82.9h72a11.87,11.87,0,1,0,0-23.73h-72a11.87,11.87,0,0,0,0,23.73Z"/><path class="cls-2" d="M57.71,118.47h72a11.87,11.87,0,1,0,0-23.73h-72a11.87,11.87,0,0,0,0,23.73Z"/><path class="cls-3" d="M57.71,154.25h72a11.87,11.87,0,1,0,0-23.73h-72a11.87,11.87,0,0,0,0,23.73Z"/><path class="cls-4" d="M57.71,187.39h72a11.87,11.87,0,1,0,0-23.73h-72a11.87,11.87,0,0,0,0,23.73Z"/><path class="cls-5" d="M187.4,35.6A35.63,35.63,0,0,0,151.81,0H35.6A35.64,35.64,0,0,0,0,35.6V249.17a35.64,35.64,0,0,0,35.6,35.59H151.81a35.64,35.64,0,0,0,31.28-18.62h0V266a35.31,35.31,0,0,0,4.26-16.87ZM35.6,23.73H151.81A11.88,11.88,0,0,1,163.67,35.6V219.38H23.73V35.6A11.88,11.88,0,0,1,35.6,23.73Zm47.95,219a13.62,13.62,0,1,1,13.61,13.63A13.62,13.62,0,0,1,83.55,242.76Z"/></g></g></svg>