<svg xmlns="http://www.w3.org/2000/svg" xmlns:xlink="http://www.w3.org/1999/xlink" viewBox="0 0 1010.48 51.46"><defs><style>.cls-1{fill:url(#linear-gradient);}.cls-2{fill:url(#linear-gradient-2);}.cls-3{fill:url(#linear-gradient-3);}.cls-4{fill:url(#linear-gradient-4);}.cls-5{fill:url(#linear-gradient-5);}.cls-6{font-size:20px;fill:#656565;font-family:DIN-Medium, DIN;}.cls-7{letter-spacing:-0.01em;}.cls-8{letter-spacing:-0.02em;}.cls-9{letter-spacing:0em;}.cls-10{letter-spacing:-0.01em;}.cls-11{letter-spacing:0em;}.cls-12{fill:url(#linear-gradient-6);}.cls-13{fill:url(#linear-gradient-7);}.cls-14{fill:url(#linear-gradient-8);}.cls-15{fill:url(#linear-gradient-9);}.cls-16{fill:url(#linear-gradient-10);}.cls-17{fill:url(#linear-gradient-11);}.cls-18{fill:url(#linear-gradient-12);}.cls-19{fill:url(#linear-gradient-13);}.cls-20{fill:url(#linear-gradient-14);}.cls-21{fill:url(#linear-gradient-15);}.cls-22{fill:url(#linear-gradient-16);}.cls-23{fill:url(#linear-gradient-17);}.cls-24{fill:url(#linear-gradient-18);}</style><linearGradient id="linear-gradient" x1="1161.24" y1="-87.03" x2="-46.35" y2="26.68" gradientUnits="userSpaceOnUse"><stop offset="0" stop-color="#e62b77"/><stop offset="1" stop-color="#473584"/></linearGradient><linearGradient id="linear-gradient-2" x1="1163.5" y1="-63" x2="-44.08" y2="50.71" xlink:href="#linear-gradient"/><linearGradient id="linear-gradient-3" x1="1161.71" y1="-82" x2="-45.87" y2="31.7" xlink:href="#linear-gradient"/><linearGradient id="linear-gradient-4" x1="1161.95" y1="-79.48" x2="-45.64" y2="34.22" xlink:href="#linear-gradient"/><linearGradient id="linear-gradient-5" x1="1162.27" y1="-76.04" x2="-45.31" y2="37.66" xlink:href="#linear-gradient"/><linearGradient id="linear-gradient-6" x1="1061.48" y1="-53.78" x2="-146.11" y2="59.93" xlink:href="#linear-gradient"/><linearGradient id="linear-gradient-7" x1="1063.7" y1="-30.18" x2="-143.89" y2="83.53" xlink:href="#linear-gradient"/><linearGradient id="linear-gradient-8" x1="1061.87" y1="-49.56" x2="-145.71" y2="64.14" xlink:href="#linear-gradient"/><linearGradient id="linear-gradient-9" x1="1062.15" y1="-46.64" x2="-145.43" y2="67.07" xlink:href="#linear-gradient"/><linearGradient id="linear-gradient-10" x1="1062.43" y1="-43.71" x2="-145.16" y2="70" xlink:href="#linear-gradient"/><linearGradient id="linear-gradient-11" x1="1007.37" y1="-21.65" x2="-200.22" y2="92.06" xlink:href="#linear-gradient"/><linearGradient id="linear-gradient-12" x1="1007.6" y1="-19.15" x2="-199.98" y2="94.56" xlink:href="#linear-gradient"/><linearGradient id="linear-gradient-13" x1="1007.94" y1="-15.52" x2="-199.64" y2="98.19" xlink:href="#linear-gradient"/><linearGradient id="linear-gradient-14" x1="1008.17" y1="-13.07" x2="-199.41" y2="100.63" xlink:href="#linear-gradient"/><linearGradient id="linear-gradient-15" x1="962.83" y1="4.19" x2="-244.75" y2="117.9" xlink:href="#linear-gradient"/><linearGradient id="linear-gradient-16" x1="963.09" y1="6.92" x2="-244.5" y2="120.62" xlink:href="#linear-gradient"/><linearGradient id="linear-gradient-17" x1="963.36" y1="9.81" x2="-244.22" y2="123.52" xlink:href="#linear-gradient"/><linearGradient id="linear-gradient-18" x1="963.69" y1="13.26" x2="-243.9" y2="126.96" xlink:href="#linear-gradient"/></defs><title>stats</title><g id="Layer_2" data-name="Layer 2"><g id="Layer_1-2" data-name="Layer 1"><path class="cls-1" d="M23.9,17.66a51.23,51.23,0,0,1-2.23,5.24L12.13,42.33H5.71l9-18a7.68,7.68,0,0,1-1.8.5A14.16,14.16,0,0,1,11,25a10.64,10.64,0,0,1-4.27-.85,10.47,10.47,0,0,1-3.47-2.44A11.51,11.51,0,0,1,.85,17.84a13.91,13.91,0,0,1-.85-5A14.43,14.43,0,0,1,.91,7.59a11.82,11.82,0,0,1,2.56-4A11.41,11.41,0,0,1,7.39,1a13.16,13.16,0,0,1,5-.91,14.24,14.24,0,0,1,5,.85,10.85,10.85,0,0,1,3.94,2.51,11.37,11.37,0,0,1,2.56,4,14.14,14.14,0,0,1,.92,5.21A14.9,14.9,0,0,1,23.9,17.66ZM17,7.39a5.93,5.93,0,0,0-4.62-2,5.86,5.86,0,0,0-4.59,2A7.67,7.67,0,0,0,6,12.72,7.94,7.94,0,0,0,7.68,17.9,5.71,5.71,0,0,0,12.36,20,6,6,0,0,0,17,18a7.45,7.45,0,0,0,1.8-5.32A7.59,7.59,0,0,0,17,7.39Z"/><path class="cls-2" d="M32.67,51.46v-16H39.5V45.86Z"/><path class="cls-3" d="M47.8,42.33V37l16.14-19.6a11.87,11.87,0,0,0,1.7-2.74,7.17,7.17,0,0,0,.53-2.85,6.62,6.62,0,0,0-1.59-4.6,5.8,5.8,0,0,0-4.53-1.76,7.46,7.46,0,0,0-2.3.35,5.43,5.43,0,0,0-2,1.12,5.57,5.57,0,0,0-1.38,2,7.49,7.49,0,0,0-.53,3h-6A12.55,12.55,0,0,1,48.78,7,10.49,10.49,0,0,1,51.31,3.3,11.54,11.54,0,0,1,55.16.91,13.58,13.58,0,0,1,60.05.06a14.24,14.24,0,0,1,5,.82,10.85,10.85,0,0,1,3.82,2.36A10.5,10.5,0,0,1,71.29,7a12.86,12.86,0,0,1,.89,4.88,10.44,10.44,0,0,1-1,4.74,24,24,0,0,1-3,4.33L55.1,37H72.18v5.36Z"/><path class="cls-4" d="M102.59,35.85a11,11,0,0,1-2.77,3.83A11.53,11.53,0,0,1,95.76,42a15.88,15.88,0,0,1-5,.76,16.72,16.72,0,0,1-4.8-.67A11.47,11.47,0,0,1,82,40a10.45,10.45,0,0,1-2.85-3.66A12.46,12.46,0,0,1,78,31h6a6.41,6.41,0,0,0,2.21,4.85A5.47,5.47,0,0,0,88.28,37a8.69,8.69,0,0,0,2.5.36,6.94,6.94,0,0,0,4.89-1.81,6.73,6.73,0,0,0,1.94-5.17,7.13,7.13,0,0,0-1.74-5.06q-1.73-1.86-5.27-1.86h-1V18.25h1q3.3,0,4.83-1.74A6.81,6.81,0,0,0,97,11.86,6.3,6.3,0,0,0,95.17,7a6.25,6.25,0,0,0-4.39-1.65A6.07,6.07,0,0,0,86.37,7a6.67,6.67,0,0,0-1.89,4.41h-6A12.29,12.29,0,0,1,79.59,6.6,11.1,11.1,0,0,1,82.24,3,11.72,11.72,0,0,1,86.07.79,13.62,13.62,0,0,1,90.78,0a13.8,13.8,0,0,1,4.89.85,11.3,11.3,0,0,1,3.85,2.42A11.09,11.09,0,0,1,102.06,7a12.14,12.14,0,0,1,.91,4.74,10.24,10.24,0,0,1-1.39,5.56,8.93,8.93,0,0,1-3.85,3.38,9.7,9.7,0,0,1,4.3,3.6,11.27,11.27,0,0,1,1.59,6.3A12.9,12.9,0,0,1,102.59,35.85Z"/><path class="cls-5" d="M131.7,36v6.3h-5.83V36h-17V30.44l14.78-30h6.48l-14.72,30h10.42V20.66h5.83v9.78h4.47V36Z"/><text class="cls-6" transform="translate(147.26 42.33)">User</text><text class="cls-6" transform="translate(390.74 42.33)">D<tspan class="cls-7" x="13.32" y="0">o</tspan><tspan x="23.92" y="0">wn</tspan><tspan class="cls-8" x="50.15" y="0">l</tspan><tspan class="cls-9" x="55.97" y="0">oad</tspan></text><text class="cls-6" transform="translate(662.08 42.33)">Li<tspan class="cls-10" x="16.76" y="0">k</tspan><tspan class="cls-9" x="27.46" y="0">es</tspan></text><text class="cls-6" transform="translate(894.12 42.33)">5 S<tspan class="cls-11" x="27.26" y="0">t</tspan><tspan class="cls-9" x="34.01" y="0">ar Rating</tspan></text><path class="cls-12" d="M260.35,42.33V7l-8.18,7.18V7.48L260.35.41h6V42.33Z"/><path class="cls-13" d="M281.42,51.46v-16h6.83V45.86Z"/><path class="cls-14" d="M319.66,35.71a11.2,11.2,0,0,1-6.47,6.15,13.77,13.77,0,0,1-9.36,0,11,11,0,0,1-6.45-6.15,12.69,12.69,0,0,1-.94-5V12.07a12.67,12.67,0,0,1,.94-5A11.07,11.07,0,0,1,300,3.27,11.26,11.26,0,0,1,303.83.88a13.77,13.77,0,0,1,9.36,0A11.26,11.26,0,0,1,319.66,7a12.33,12.33,0,0,1,1,5v18.6A12.35,12.35,0,0,1,319.66,35.71Zm-5-23.46A7.34,7.34,0,0,0,313,7.3a5.63,5.63,0,0,0-4.5-1.88A5.55,5.55,0,0,0,304,7.3a7.43,7.43,0,0,0-1.59,5V30.5A7.38,7.38,0,0,0,304,35.44a5.53,5.53,0,0,0,4.48,1.89,5.61,5.61,0,0,0,4.5-1.89,7.3,7.3,0,0,0,1.62-4.94Z"/><path class="cls-15" d="M351,35.71a11.54,11.54,0,0,1-2.62,3.77,11.28,11.28,0,0,1-3.85,2.38,13.79,13.79,0,0,1-9.37,0,11.28,11.28,0,0,1-3.85-2.38,11,11,0,0,1-2.59-3.77,12.69,12.69,0,0,1-.94-5V12.07a12.67,12.67,0,0,1,.94-5,10.93,10.93,0,0,1,2.59-3.77A11.31,11.31,0,0,1,335.2.88a13.79,13.79,0,0,1,9.37,0,11.31,11.31,0,0,1,3.85,2.39A11.43,11.43,0,0,1,351,7a12.33,12.33,0,0,1,1,5v18.6A12.35,12.35,0,0,1,351,35.71Zm-5-23.46a7.34,7.34,0,0,0-1.62-4.95,5.63,5.63,0,0,0-4.5-1.88,5.55,5.55,0,0,0-4.48,1.88,7.43,7.43,0,0,0-1.59,5V30.5a7.38,7.38,0,0,0,1.59,4.94,5.53,5.53,0,0,0,4.48,1.89,5.61,5.61,0,0,0,4.5-1.89A7.3,7.3,0,0,0,346,30.5Z"/><path class="cls-16" d="M382.42,35.71a11.54,11.54,0,0,1-2.62,3.77,11.23,11.23,0,0,1-3.86,2.38,13.77,13.77,0,0,1-9.36,0,11.28,11.28,0,0,1-3.85-2.38,11,11,0,0,1-2.59-3.77,12.69,12.69,0,0,1-.94-5V12.07a12.67,12.67,0,0,1,.94-5,10.93,10.93,0,0,1,2.59-3.77A11.31,11.31,0,0,1,366.58.88a13.77,13.77,0,0,1,9.36,0,11.26,11.26,0,0,1,3.86,2.39A11.43,11.43,0,0,1,382.42,7a12.33,12.33,0,0,1,1,5v18.6A12.35,12.35,0,0,1,382.42,35.71Zm-5-23.46a7.34,7.34,0,0,0-1.62-4.95,5.64,5.64,0,0,0-4.51-1.88,5.54,5.54,0,0,0-4.47,1.88,7.43,7.43,0,0,0-1.59,5V30.5a7.38,7.38,0,0,0,1.59,4.94,5.52,5.52,0,0,0,4.47,1.89,5.62,5.62,0,0,0,4.51-1.89,7.3,7.3,0,0,0,1.62-4.94Z"/><path class="cls-17" d="M547.48,42.33V7l-8.18,7.18V7.48L547.48.41h6V42.33Z"/><path class="cls-18" d="M591.17,17.66a51.42,51.42,0,0,1-2.24,5.24l-9.54,19.43H573l9-18a7.73,7.73,0,0,1-1.79.5,14.42,14.42,0,0,1-2,.14,10.56,10.56,0,0,1-4.26-.85,10.4,10.4,0,0,1-3.48-2.44,11.49,11.49,0,0,1-2.35-3.83,13.91,13.91,0,0,1-.86-5,14.43,14.43,0,0,1,.92-5.25,11.82,11.82,0,0,1,2.56-4A11.37,11.37,0,0,1,574.65,1a13.18,13.18,0,0,1,5-.91,14.23,14.23,0,0,1,5,.85,10.89,10.89,0,0,1,4,2.51,11.51,11.51,0,0,1,2.56,4,14.14,14.14,0,0,1,.91,5.21A14.89,14.89,0,0,1,591.17,17.66ZM584.25,7.39a6,6,0,0,0-4.62-2,5.83,5.83,0,0,0-4.59,2,7.67,7.67,0,0,0-1.77,5.33A7.94,7.94,0,0,0,575,17.9,5.71,5.71,0,0,0,579.63,20,6.05,6.05,0,0,0,584.25,18,7.45,7.45,0,0,0,586,12.72,7.59,7.59,0,0,0,584.25,7.39Z"/><path class="cls-19" d="M620.19,36v6.3h-5.83V36h-17V30.44l14.77-30h6.48l-14.72,30h10.42V20.66h5.83v9.78h4.48V36Z"/><path class="cls-20" d="M653.54,35.71a11.2,11.2,0,0,1-6.47,6.15,13.77,13.77,0,0,1-9.36,0,11,11,0,0,1-6.45-6.15,12.69,12.69,0,0,1-.94-5V12.07a12.67,12.67,0,0,1,.94-5,11.07,11.07,0,0,1,2.59-3.77A11.26,11.26,0,0,1,637.71.88a13.77,13.77,0,0,1,9.36,0A11.26,11.26,0,0,1,653.54,7a12.33,12.33,0,0,1,1,5v18.6A12.35,12.35,0,0,1,653.54,35.71Zm-5-23.46a7.34,7.34,0,0,0-1.62-4.95,5.63,5.63,0,0,0-4.5-1.88,5.55,5.55,0,0,0-4.48,1.88,7.43,7.43,0,0,0-1.59,5V30.5a7.38,7.38,0,0,0,1.59,4.94,5.53,5.53,0,0,0,4.48,1.89,5.61,5.61,0,0,0,4.5-1.89,7.3,7.3,0,0,0,1.62-4.94Z"/><path class="cls-21" d="M777.41,42.33V7l-8.18,7.18V7.48L777.41.41h6V42.33Z"/><path class="cls-22" d="M821.5,35.59a11.09,11.09,0,0,1-2.76,3.86,12,12,0,0,1-4.12,2.41,16.05,16.05,0,0,1-10.13,0,11.72,11.72,0,0,1-4.09-2.41,11.44,11.44,0,0,1-2.74-3.86,12.43,12.43,0,0,1-1-5.09,11.07,11.07,0,0,1,.5-3.42,11.37,11.37,0,0,1,1.3-2.74,10.32,10.32,0,0,1,1.82-2.11,13.71,13.71,0,0,1,2.15-1.57,11.3,11.3,0,0,1-3.56-3.44,9.69,9.69,0,0,1-1.5-5.56,11.57,11.57,0,0,1,.94-4.77,11.08,11.08,0,0,1,2.59-3.65A11.5,11.5,0,0,1,804.76.88a14.34,14.34,0,0,1,9.56,0,11.87,11.87,0,0,1,3.92,2.36,10.87,10.87,0,0,1,2.62,3.65,11.73,11.73,0,0,1,.94,4.77,9.69,9.69,0,0,1-1.5,5.56,11.4,11.4,0,0,1-3.56,3.44,14.19,14.19,0,0,1,2.15,1.57,10.64,10.64,0,0,1,1.82,2.11,11.76,11.76,0,0,1,1.3,2.74,11.07,11.07,0,0,1,.5,3.42A12.43,12.43,0,0,1,821.5,35.59Zm-5.59-8a6.79,6.79,0,0,0-1.47-2.21,7.56,7.56,0,0,0-2.18-1.5,6.54,6.54,0,0,0-2.71-.56,6.7,6.7,0,0,0-2.73.56,7.05,7.05,0,0,0-2.18,1.5,7.24,7.24,0,0,0-1.45,2.21,7.1,7.1,0,0,0,1.45,7.68,6.53,6.53,0,0,0,2.18,1.48,7,7,0,0,0,2.73.53,6.86,6.86,0,0,0,2.71-.53,7,7,0,0,0,2.18-1.48,6.64,6.64,0,0,0,1.47-2.2,7.35,7.35,0,0,0,0-5.48Zm-1.85-20.4a6,6,0,0,0-4.51-1.82,5.86,5.86,0,0,0-4.47,1.82,6.46,6.46,0,0,0-1.71,4.59,6.34,6.34,0,0,0,1.71,4.6,6,6,0,0,0,4.47,1.76,6.07,6.07,0,0,0,4.51-1.76,6.31,6.31,0,0,0,1.73-4.6A6.43,6.43,0,0,0,814.06,7.24Z"/><path class="cls-23" d="M852.38,35.85a11,11,0,0,1-2.76,3.83,11.57,11.57,0,0,1-4.07,2.3,15.77,15.77,0,0,1-5,.76,16.72,16.72,0,0,1-4.8-.67,11.47,11.47,0,0,1-4-2.09,10.59,10.59,0,0,1-2.86-3.66A12.61,12.61,0,0,1,827.74,31h6a6.51,6.51,0,0,0,.68,2.88,6.59,6.59,0,0,0,1.53,2A5.47,5.47,0,0,0,838.08,37a8.69,8.69,0,0,0,2.5.36,6.94,6.94,0,0,0,4.89-1.81,6.73,6.73,0,0,0,1.94-5.17,7.13,7.13,0,0,0-1.74-5.06,6.87,6.87,0,0,0-5.27-1.86h-1V18.25h1q3.3,0,4.83-1.74a6.81,6.81,0,0,0,1.53-4.65A6.27,6.27,0,0,0,845,7a6.21,6.21,0,0,0-4.38-1.65A6.1,6.1,0,0,0,836.16,7a6.66,6.66,0,0,0-1.88,4.41h-6a12.47,12.47,0,0,1,1.12-4.76A11,11,0,0,1,832,3,11.72,11.72,0,0,1,835.87.79,13.62,13.62,0,0,1,840.58,0a13.84,13.84,0,0,1,4.89.85,11.3,11.3,0,0,1,3.85,2.42A11.07,11.07,0,0,1,851.85,7a12,12,0,0,1,.92,4.74,10.32,10.32,0,0,1-1.39,5.56,9,9,0,0,1-3.85,3.38,9.68,9.68,0,0,1,4.29,3.6,11.27,11.27,0,0,1,1.59,6.3A12.74,12.74,0,0,1,852.38,35.85Z"/><path class="cls-24" d="M881.5,36v6.3h-5.83V36h-17V30.44l14.78-30H880l-14.72,30h10.42V20.66h5.83v9.78H886V36Z"/></g></g></svg>